<?xml version="1.0" standalone="no"?>
<!DOCTYPE svg PUBLIC "-//W3C//DTD SVG 1.1//EN" "http://www.w3.org/Graphics/SVG/1.1/DTD/svg11.dtd" >
<svg xmlns="http://www.w3.org/2000/svg" xmlns:xlink="http://www.w3.org/1999/xlink" version="1.1">
<metadata>
Created by FontForge 20170731 at Wed Jul 14 02:52:21 1999
 By Aleksey,,,
1.01  Primitive  Copr.1993    By Richard William Mueller
</metadata>
<defs>
<font id="Primitive" horiz-adv-x="450" >
  <font-face 
    font-family="Primitive"
    font-weight="400"
    font-stretch="normal"
    units-per-em="1000"
    panose-1="0 0 4 0 0 0 0 0 0 0"
    ascent="800"
    descent="-200"
    x-height="416"
    cap-height="743"
    bbox="-9 -254 1448 916"
    underline-thickness="20"
    underline-position="-163"
    unicode-range="U+0020-F002"
  />
<missing-glyph horiz-adv-x="500" 
d="M63 0v750h375v-750h-375zM125 63h250v625h-250v-625z" />
    <glyph glyph-name=".notdef" horiz-adv-x="500" 
d="M63 0v750h375v-750h-375zM125 63h250v625h-250v-625z" />
    <glyph glyph-name=".null" horiz-adv-x="0" 
 />
    <glyph glyph-name="nonmarkingreturn" horiz-adv-x="350" 
 />
    <glyph glyph-name="space" unicode=" " horiz-adv-x="350" 
 />
    <glyph glyph-name="exclam" unicode="!" horiz-adv-x="470" 
d="M437 714q0 -29 -28 -50q-42 -32 -45 -36q-10 -9 -13 -40q-5 -42 -7 -49l-18 -78q-11 -47 -11 -80q0 -20 4 -38q5 -11 5 -21q0 -21 -23 -46q-33 -36 -35 -39q-27 -29 -48 -25q-21 -1 -26 40q-12 15 -20 46q-11 37 -17 49q-2 22 1 60q3 46 3 60q0 43 -13 74q3 31 -11 55
q-13 10 -62 20q-41 7 -52 31q3 26 25 40t46 25t80 11q46 0 116 -7q25 6 49 13q41 10 64 10q36 0 36 -25zM292 33q-4 -11 -21 -29q-13 -6 -38 -6q-39 0 -55 8q-27 19 -27 71q0 15 2.5 28.5t30.5 41.5q16 12 41 12q32 0 58 -16q21 -19 21 -51q0 -21 -12 -59z" />
    <glyph glyph-name="quotedbl" unicode="&#x22;" horiz-adv-x="370" 
d="M310 731q-14 -82 -33 -186q-3 -15 -14 -15h-33q-12 0 -14 15q-8 51 -27 188q-2 17 10 17h100q15 0 11 -19zM148 731q-14 -82 -33 -186q-3 -15 -14 -15h-33q-12 0 -14 15q-8 51 -27 188q-2 17 10 17h100q15 0 11 -19z" />
    <glyph glyph-name="numbersign" unicode="#" horiz-adv-x="550" 
d="M504 524q10 0 10 -22q0 -17 -6.5 -34t-15.5 -17h-101q-4 -32 -12 -67h100q10 0 10 -22q0 -17 -6.5 -34t-15.5 -17h-101l-28 -166q-3 -13 -36 -13q-40 0 -37 15l28 164h-68q-28 -174 -28 -165q-3 -13 -38 -13q-37 0 -35 14q4 29 28 164h-96q-12 0 -12 24q0 17 7 33t17 16
h97q4 23 12 67h-96q-12 0 -12 23q0 18 7 34t17 16h96q19 105 20 109q3 15 33 15q42 0 39 -20q-1 -1 -18 -104h68q14 97 18 110.5t37 13.5q40 0 36 -18q-4 -22 -18 -106h100zM318 451h-68q-4 -32 -12 -67h68q4 23 12 67z" />
    <glyph glyph-name="dollar" unicode="$" horiz-adv-x="720" 
d="M606 30q-3 -2 -93 -53q-51 -12 -106 -10v-125q0 -11 -29 -11t-29 11v130q-70 11 -152 43q-7 0 -23.5 2t-24.5 2q-22 0 -39 -10q-19 -14 -11 -44q15 -20 39 -20q8 0 15 2q4 2 17 15q9 9 16 9t15 -7q14 -8 29.5 -16.5t17.5 -23.5q5 -11 5 -22q0 -19 -16 -39q0 -1 -29 -32
q-13 -9 -34 -9q-9 0 -50 7q-61 18 -87 124q-5 72 29 147q25 36 72 86q39 42 78 83q14 20 5 35q-120 55 -147 129q-2 19 -2 37q0 86 50 118q12 16 59 38q53 24 122 24q22 0 46 -2v74q0 13 28 13q30 0 30 -14v-83q49 -10 100 -29q10 -3 20 -3q19 0 43 10q20 10 40 19
q36 -28 29 -79q-11 -35 -38 -81q-24 -38 -47 -76q-4 -29 28 -48q53 -30 54 -31q42 -42 42 -113q0 -36 -11 -88t-61 -89zM422 512q15 35 -3 57q-31 28 -90 28q-15 0 -32 -2q-32 -11 -52.5 -38.5t-21.5 -61.5q9 -38 70 -58q7 0 25.5 -3.5t27.5 -3.5q10 0 17 3q26 28 33 37
q18 22 26 42zM537 495q-15 15 -36 3q-25 -25 -71 -83q-41 -54 -74 -83q-7 -9 -41 -60q-25 -38 -48 -57q-43 -47 -45 -50q-23 -30 -27 -59q2 -7 27 -17q33 14 63 49q24 31 48 63q4 2 8.5 4.5t2.5 9.5q53 77 146 184q16 23 32 45q19 29 15 51zM541 181q-23 66 -97 69
q-22 -5 -37 -46q-11 -20 -41 -55.5t-41 -54.5q-3 -6 -3 -12q0 -10 9 -21q14 -16 15 -18q26 -10 57 -10q36 0 87 16q52 28 52 108q0 12 -1 24z" />
    <glyph glyph-name="percent" unicode="%" horiz-adv-x="570" 
d="M288 520q0 -36 -16 -77q-53 -77 -119 -79q-42 -1 -76 34q-28 29 -44 72q-8 22 -8 44q0 62 57 124q31 34 82 31q52 -11 88 -53.5t36 -95.5zM502 622q-196 -310 -401 -628q-1 -2 -4 -2q-10 0 -28.5 10t-16.5 17q6 24 203 330q195 302 211 317q8 1 23.5 -10.5t15.5 -23.5
q0 -6 -3 -10zM531 153q0 -36 -16 -78q-54 -76 -119 -78q-80 -2 -120 106q-8 21 -8 44q0 62 57 124q31 34 82 31q52 -11 88 -53.5t36 -95.5zM199 569q-6 49 -34 55q-21 5 -39 -10q-11 -13 -14 -36q-6 -39 -6 -40q1 -28 1 -56q2 -35 11 -55t38 -16q26 0 39 30q12 60 4 128z
M442 202q-6 49 -34 55q-21 5 -39 -10q-11 -13 -14 -36q-6 -39 -6 -40q1 -28 1 -56q2 -35 10.5 -54.5t39.5 -17.5q25 2 38 30q12 62 4 129z" />
    <glyph glyph-name="ampersand" unicode="&#x26;" horiz-adv-x="889" 
d="M840 0q0 -4 -4 -4l-7 1q-81 9 -129 9q-47 0 -88 -7q-9 -4 -16 -4q-16 0 -35 23t-35 23q-8 0 -17.5 -3.5t-33.5 -17.5q-20 -11 -32 -12q-38 -23 -166 -23q-79 0 -150 45q-43 51 -59 81q-26 46 -27 95q-2 86 19 124q6 9 24 22.5t24 20.5q5 12 44 29q33 15 30 44
q-39 40 -39 104q0 28 8 65q2 12 25.5 38.5t48.5 37.5q65 29 149 29q43 0 91 -8l82 -44q45 -31 53 -74q6 -32 -5 -67q-9 -28 -32.5 -48.5t-47.5 -39.5q-8 -4 -17 -9.5t-9 -12.5q0 -4 2 -8q4 -14 23.5 -32.5t24.5 -30.5l32 -44q21 -27 46 -27q6 0 12 1q15 32 15 45q0 11 -6 21
q0 20 -30 35t-30 26q0 9 13 24q6 5 20 2t20 1q14 -3 35 -3l22 -1q27 0 41 -6q6 -2 13 -2q11 0 32 6t30 6q19 0 29 -21q3 -10 -14 -27q-11 1 -38 -14q-39 -21 -64 -74l-36 -92q1 -27 29 -56q24 -22 47 -45q26 -44 81 -59q11 -6 11 -20q0 -13 -9 -22zM467 590q3 13 -8 25
q-16 16 -18 21q-24 11 -65 1q-24 -8 -33 -48q14 -57 55 -77q10 -5 21 -5q18 0 31 13q8 12 16.5 25.5t8.5 24.5q0 10 -8 20zM564 179q0 7 4 16t4 13q0 7 -8 13q-39 48 -123 139q-14 30 -27 46q-33 35 -66 71q-41 38 -86 43q-15 -21 -15 -29q0 -6 3 -13q16 -22 64 -73
q41 -44 60 -75q22 -8 38 -41q18 -37 32 -47q25 -25 76 -69q4 1 14.5 -1.5t15.5 -2.5q11 0 14 10zM458 97q12 10 12 19q0 8 -20 24t-25 28q-18 7 -44 45q-31 43 -47 55q-8 18 -32 36t-27 35q4 0 -25 4q-14 1 -23 -6l-24 -38q-12 -22 -10 -43q-1 -35 17 -66t48 -45
q15 -21 50 -37q28 -13 57 -26q20 -7 36 -7q30 0 57 22z" />
    <glyph glyph-name="quotesingle" unicode="'" horiz-adv-x="200" 
d="M148 731q-14 -82 -33 -186q-3 -15 -14 -15h-33q-12 0 -14 15q-8 51 -27 188q-2 17 10 17h100q15 0 11 -19z" />
    <glyph glyph-name="parenleft" unicode="(" horiz-adv-x="431" 
d="M398 -39q-2 -3 -4 -20q0 -11 -15 -12q-25 -1 -58 9q-50 16 -54 17q-53 26 -88 54q-30 23 -62 65l-56 76q-42 122 -42 213q0 26 3 51q22 175 100 225q10 11 81 72q64 27 102 33q23 2 46 5q26 1 43 -5l-2 -34q-1 -16 -8 -17q-25 -6 -55 -22q-38 -19 -45 -38
q-46 -60 -42 -95q5 -39 38 -46q4 -1 37 -11q20 -7 38 -6q8 -13 8 -33t-8 -36q-7 -1 -14 -1q-12 0 -30 4t-25 4q-21 0 -38 -23q-13 -14 -13 -33q0 -12 7 -34q17 -34 54 -34q6 0 19 1t19 1q19 0 30 -8q5 -3 0 -37q-5 -33 -13 -32q-28 10 -71 4q-33 -16 -39 -55q1 -20 7 -56
q8 -7 21 -35q10 -23 29 -29q14 -22 47 -38q4 -5 32 -11q23 -6 23 -21q0 -5 -2 -12z" />
    <glyph glyph-name="parenright" unicode=")" horiz-adv-x="417" 
d="M397 416q2 -10 -4 -85q-9 -96 -10 -117q-6 -17 -22 -55q0 -3 -29 -47q-32 -47 -37 -63q-36 -50 -108 -82q-13 -6 -129 -46q-28 0 -34 12q3 7 2 22t0 22q3 12 18.5 13t37.5 15q26 16 35 19q6 12 33 45q22 27 26 47q0 6 4 21.5t4 22.5q0 14 -12 22q-3 20 -55 42
q-15 1 -20.5 -3.5t-9.5 -4.5q-5 0 -17 4q0 -7 4 30q1 19 -6 27q4 12 23 12q5 0 18.5 -1t20.5 -1q33 0 42 26q5 12 14 36q-13 55 -48 60q-19 3 -32 0q-14 -3 -32 -2q0 3 -3 21q-3 14 -3 22q0 16 8 24q27 1 44 8q25 11 39 14q12 26 12 53q0 23 -9 42q-11 16 -23 32t-27 23
q-8 20 -53 31q-40 9 -40 32q0 7 3 17q-1 16 26 23l68 -8q45 -7 85 -29q54 -29 114 -89q10 -18 18.5 -37.5t63.5 -169.5z" />
    <glyph glyph-name="asterisk" unicode="*" horiz-adv-x="360" 
d="M300 455q2 -6 -15 -28t-23 -18q-16 13 -57 41v-79q0 -7 -30 -8t-34 5v82q-27 -18 -62 -43q-7 -4 -24 17.5t-15 29.5q22 16 78 57q-33 23 -76 52q-1 1 -1 3q0 10 13.5 30t20.5 20q19 -12 67 -46q1 10 2 25q-8 34 3 48q2 6 30 6q28 -1 28 -10v-68q10 7 24 15q22 22 38 25
q5 0 19 -19.5t14 -28.5q0 -2 -1 -3q-21 -14 -72 -49q11 -7 34 -26q28 -12 39 -30z" />
    <glyph glyph-name="plus" unicode="+" horiz-adv-x="400" 
d="M321 299q8 -4 8 -43q0 -37 -10 -37q-62 0 -94 -1v-87q0 -12 -49 -12q-33 0 -37 8q-2 5 -2 91h-97q-12 0 -12 49q0 33 7.5 37t32.5 3q30 -2 35 -1q20 -3 36 1q-3 25 -2 60q2 35 6.5 44t43.5 9q37 0 37 -10v-102q76 2 97 -9z" />
    <glyph glyph-name="comma" unicode="," horiz-adv-x="200" 
d="M148 32q-11 -88 -72 -140q-5 -10 -19 -18t-24 -8q-3 0 -6 3.5t-3 8.5q0 10 21.5 34t25.5 39q8 15 8 32q0 14 -7 15q-24 7 -43.5 29t-19.5 38q0 38 21 57q20 23 52 23q28 0 46 -18q26 -25 26 -65q0 -16 -6 -30z" />
    <glyph glyph-name="hyphen" unicode="-" horiz-adv-x="330" 
d="M263 301q7 -4 7 -37q0 -46 -12 -46h-198q-12 0 -12 49q0 33 7.5 37t20.5 3q18 -2 24 -1q31 3 98 -4q45 9 65 -1z" />
    <glyph glyph-name="hyphen" unicode="&#x2010;" horiz-adv-x="330" 
d="M263 301q7 -4 7 -37q0 -46 -12 -46h-198q-12 0 -12 49q0 33 7.5 37t20.5 3q18 -2 24 -1q31 3 98 -4q45 9 65 -1z" />
    <glyph glyph-name="period" unicode="." horiz-adv-x="200" 
d="M137 103q10 -17 10 -35q0 -27 -21.5 -49.5t-48.5 -22.5q-24 0 -45 21q-17 18 -23 40q1 24 3 33q5 18 18 26q16 16 43 16q41 0 64 -29z" />
    <glyph glyph-name="slash" unicode="/" horiz-adv-x="350" 
d="M343 715q-4 -3 -147 -481q-145 -481 -146.5 -484.5t-9.5 -3.5q-13 0 -30.5 6t-17.5 11q-1 27 146 505q146 475 153 480q14 2 30 -5q21 -9 22 -28z" />
    <glyph glyph-name="zero" unicode="0" horiz-adv-x="640" 
d="M568 433q19 -50 19 -109q0 -76 -31 -162q-112 -164 -256 -168q-90 -2 -163 74q-58 61 -93 155q-17 46 -17 94q0 132 125 266q67 72 172 66q86 -18 149 -75t95 -141zM419 447q-15 119 -88 139q-12 2 -24 2q-43 0 -79 -30q-27 -30 -35 -88q-7 -48 -13 -97q2 -120 2 -134
q5 -82 26 -133t102 -45q70 5 99 79q18 78 18 178q0 66 -8 129z" />
    <glyph glyph-name="one" unicode="1" horiz-adv-x="430" 
d="M385 23q-9 -21 -37 -21q-10 0 -30.5 3.5t-28.5 3.5q-22 10 -48 10q-23 0 -66.5 -11t-65.5 -11q-28 0 -51 13q-5 8 -5 17q0 16 13 30q8 9 52 26q34 13 38 41q11 78 11 163q0 76 -9 144q-10 24 -47 30q-30 5 -61 9q-31 9 -31 39q0 7 2 16q11 4 31 5q26 2 34 3q98 59 101 61
q61 31 113 29q6 -11 6 -23q0 -15 -10 -39q-11 -30 -13 -39q6 -82 5 -198q-1 -216 -1 -198q4 -28 34 -41q26 -10 52 -19q19 -15 12 -43z" />
    <glyph glyph-name="two" unicode="2" horiz-adv-x="600" 
d="M554 190q6 -9 6 -21q0 -10 -5.5 -29t-6.5 -26q-10 -30 -39 -62q-10 -9 -54 -50q-42 -15 -87 -15q-118 0 -202 84q-14 -4 -20.5 -27t-16.5 -28q-21 -26 -61 -23q-32 11 -41 25q-2 64 38 115q24 32 89 81.5t89 77.5q114 86 114 164q0 9 -1 18q1 45 -31 79q-22 23 -56 23
q-28 0 -65 -17q-18 -16 -20 -73q-1 -53 -33 -67q-19 -16 -42 -16q-17 0 -67 20q-14 10 -14 30q0 9 3.5 25t3.5 22q57 111 269 127q142 -11 192 -70q21 -52 21 -93q0 -12 -2 -24q-31 -77 -110 -137q-43 -32 -151 -90q-13 -9 -13 -22q0 -12 13 -26q61 -66 142 -66q21 0 40 6
q25 11 62.5 43.5t55.5 41.5z" />
    <glyph glyph-name="three" unicode="3" horiz-adv-x="580" 
d="M528 160q-62 -128 -153 -146q-67 -22 -139 -22q-94 0 -170 37q-41 31 -41 91q0 54 44 67q11 3 23 3q26 0 75 -26q10 -11 26 -42.5t28 -43.5q20 -19 50 -18q52 -2 105 55q8 18 8 38q0 42 -30 84q-18 16 -59 34.5t-57 32.5q-8 5 -2 19q31 17 61 33q34 22 44 50q14 23 14 46
t-13 45q-41 73 -93 71q-34 -1 -54 -30q-3 -29 -7 -59q-5 -34 -32 -45.5t-57 -11.5q-32 0 -52 16q-10 17 -10 35q0 20 13 45l22 42q34 24 105 64q95 3 101 3q151 0 205 -84q2 -15 2 -28q0 -82 -54 -119q-4 -4 -4 -11q0 -8 5 -12q98 -60 98 -178q0 -17 -2 -35z" />
    <glyph glyph-name="four" unicode="4" horiz-adv-x="640" 
d="M587 184q-12 -28 -32 -35q-15 2 -50 14q-30 11 -51 10q-10 -15 0 -62q9 -13 55 -33q38 -16 38 -39q0 -8 -4 -18q-14 -27 -41 -27q-15 0 -45.5 11t-41.5 12q-21 6 -44 6q-30 0 -75 -12q-60 -15 -74 -17q-13 0 -26 26q-3 19 8 40q7 5 70 27q42 14 46 47q2 18 -14 40
q-9 1 -19 1q-24 0 -80 -14q-52 -14 -82 -12q-27 5 -54 11q-32 8 -43 30q3 154 130 266q28 25 47 79q24 71 32 85q5 5 15 8.5t12 4.5q64 -12 122 -12q60 0 116 13q13 2 18 -16q5 -37 -34 -69q-40 -35 -40 -67q10 -111 3 -202q3 -19 15 -17q57 4 88 77q25 6 34 -8
q2 -18 -1 -73q-3 -48 2 -75zM321 265q-11 161 -8 256q-3 4 -12 10q-12 -4 -22 -18q-14 -19 -19 -23q-14 -37 -79 -115q-58 -69 -67 -118q3 -18 28 -23q92 17 170 21q2 3 9 10z" />
    <glyph glyph-name="five" unicode="5" horiz-adv-x="590" 
d="M540 205q-14 -112 -128 -180q-42 -25 -108 -34q-19 -3 -117 -9q-59 2 -144 77q-17 35 -17 64q0 38 31 54q12 6 24 6q16 0 37 -12q17 -9 34 -19q11 -8 42 -62q24 -42 56 -42q12 0 25 4q86 13 115 70q11 36 11 63q0 31 -15 59q-30 42 -104 42q-15 0 -41.5 -1.5t-38.5 -1.5
q-30 -11 -60 -23q-35 -11 -63 -8q-19 9 -19 34q0 8 2.5 23.5t2.5 21.5q20 46 37 131q20 99 31 133q23 16 53 16q18 0 53.5 -7.5t52.5 -7.5q11 0 20 2q14 -3 29 -3q34 0 84 20q78 33 80 34q12 -4 12 -20q0 -3 -8 -36q-16 -41 -55 -70.5t-86 -38.5q-65 -12 -169 -2
q-19 -9 -26 -59q1 0 5.5 -4.5t7.5 -4.5q51 19 110 19q97 0 173 -47q71 -55 71 -181z" />
    <glyph glyph-name="six" unicode="6" horiz-adv-x="630" 
d="M569 129q-40 -63 -54 -79q-37 -43 -79 -57q-49 -9 -93 -9q-162 0 -242 114q-39 76 -43 86q-21 51 -21 93q0 15 2 29q5 123 49 198q125 142 242 142q15 0 29 -2q23 3 44 3q100 0 140 -57q13 -18 13 -40q0 -11 -4 -18q-13 -40 -63 -50q-74 11 -149 81q-10 3 -21 3
q-60 0 -116 -78q-14 -39 -14 -69q0 -31 17 -47q10 2 56 26q33 8 68 8q65 0 124.5 -27.5t96.5 -75.5q29 -60 29 -114q0 -33 -11 -60zM437 233q-21 51 -86 87q-30 11 -53 11q-28 0 -51 -15q-40 -17 -40 -63q0 -12 4 -23q39 -123 141 -156q32 -5 72 15q24 23 24 73q0 35 -11 71
z" />
    <glyph glyph-name="seven" unicode="7" horiz-adv-x="570" 
d="M529 640q8 -9 8 -21q0 -11 -19 -53q-52 -49 -92 -137l-64 -152q-13 -70 -13 -103q0 -60 29 -89q7 -7 43 -17q27 -8 28 -27q3 -35 -29 -43q-40 -2 -101 5q-50 7 -101 13q-13 -1 -49.5 -11t-49.5 -10q-14 0 -16.5 8.5t-2.5 17.5q0 27 23 66q27 45 32 62q8 12 49 90
q30 55 57 86q35 59 49 81q27 43 53 75q5 5 5 10q0 14 -18 15q-32 2 -54 2q-92 0 -139 -43q-38 -27 -108 -87q-4 -4 -12 -4t-11 4q20 59 62 266q9 3 18 3q17 0 49 -20t57 -18q74 2 217 8q1 0 39 17q23 10 40 10q11 0 21 -4z" />
    <glyph glyph-name="eight" unicode="8" horiz-adv-x="560" 
d="M507 273q11 -43 11 -82q0 -81 -45 -127q-70 -72 -193 -72q-78 0 -161 29q-9 3 -57 36q-37 70 -37 111q0 26 10 49q14 49 90 104q-7 17 -30 40q-26 25 -33 36q-16 34 -16 79q0 46 16 83q13 30 21 43q15 22 34 31q22 -3 47 -3q19 0 55.5 2t54.5 2q42 0 75 -8q16 -7 16 -26
q0 -12 -8 -21q-9 -24 -44 -26h-58q-25 0 -50 1q-34 -2 -47 -22q-4 -12 -4 -26q0 -24 12 -52q65 -36 100 -36q21 0 36 11q81 59 98 181q18 12 40 12t44 -12q1 0 6 -8q-4 -40 -18 -98q-15 -25 -45 -59q-44 -48 -51 -57q7 -14 32 -22q29 -10 38 -18q19 -25 61 -75zM345 244
q-34 12 -67 24q-39 12 -70 14q-86 -35 -86 -140q7 -55 92 -86q31 -7 59 -7q84 0 120 57q14 34 14 59q0 26 -18 48t-44 31z" />
    <glyph glyph-name="nine" unicode="9" horiz-adv-x="600" 
d="M551 288q0 -118 -84 -215q-129 -75 -227 -75q-26 0 -51 5q-77 36 -100 52q-53 37 -61 89q-2 6 -2 12q0 12 9 26q7 11 14 23q13 15 71 12q81 -35 88 -114q16 -23 84 -39q92 12 121 104q-2 12 2 34q4 27 4 35q0 21 -11 35q-27 -9 -64 -30q-36 -16 -76 -16q-93 0 -184 72
q-28 27 -35 79q-5 46 -10 91q7 67 96 148q46 25 103 25q93 0 182 -57q133 -104 133 -255q0 -20 -2 -41zM400 363q-36 126 -118 201q-29 13 -56 13q-31 0 -53 -17q-7 -4 -15 -19q-4 -15 -4 -33q0 -59 34 -120q54 -77 125 -81q40 9 53 15q29 14 34 41z" />
    <glyph glyph-name="colon" unicode=":" horiz-adv-x="200" 
d="M156 333q0 -43 -40 -68q-14 -2 -38 -10q-67 27 -69 77q10 16 20.5 32.5t24.5 19.5q15 14 36 14q28 0 47 -18.5t19 -46.5zM154 85q1 -7 1 -14q0 -29 -32 -65q-26 -10 -42 -10t-31 8l-26 26q-15 17 -12 35q-1 5 -1 10q0 31 33 53q22 14 44 14q21 0 38 -15q11 -13 28 -42z
" />
    <glyph glyph-name="semicolon" unicode=";" horiz-adv-x="200" 
d="M142 306q0 -15 -14.5 -24t-28.5 -17q-7 -3 -14 -3t-20.5 5.5t-21.5 6.5q-14 11 -30 49q0 1 6 33q3 20 15 27q20 20 52 20q10 0 20 -2.5t19 -13.5q11 -14 17 -17q7 -12 7 -26q0 -11 -7 -38zM148 32q-11 -88 -72 -140q-5 -10 -19 -18t-24 -8q-3 0 -6 3.5t-3 8.5
q0 10 21.5 34t25.5 39q8 15 8 32q0 14 -7 15q-24 7 -43.5 29t-19.5 38q0 38 21 57q20 23 52 23q28 0 46 -18q26 -25 26 -65q0 -16 -6 -30z" />
    <glyph glyph-name="less" unicode="&#x3c;" horiz-adv-x="370" 
d="M313 61l-247 165v83l247 168v-108l-156 -99l156 -101v-108z" />
    <glyph glyph-name="equal" unicode="=" horiz-adv-x="400" 
d="M334 364q7 -4 7 -34q0 -41 -12 -41h-156q-103 -1 -123 -1q-12 0 -12 49q0 33 7.5 37t32.5 3q30 -2 35 -1q18 -2 69 1q44 2 69 -5q48 10 83 -8zM334 224q7 -4 7 -34q0 -41 -12 -41h-156q-103 -1 -123 -1q-12 0 -12 49q0 33 7.5 37t32.5 3q30 -2 35 -1q18 -2 69 1
q44 2 69 -5q48 10 83 -8z" />
    <glyph glyph-name="greater" unicode="&#x3e;" horiz-adv-x="370" 
d="M312 226l-247 -165v108l156 101l-156 99v108l247 -168v-83z" />
    <glyph glyph-name="question" unicode="?" horiz-adv-x="770" 
d="M723 449q-16 -101 -135 -188q-20 -11 -114 -97q-5 -5 -16 -28q-8 -16 -17 -16q-7 0 -17 10q-4 13 -20 23.5t-20 19.5q-6 4 -58 18q-34 10 -43 36q2 54 22 68q27 5 38 42q-1 23 -45 123.5t-47 118.5q-8 11 -20 11q-10 0 -18 -8l-72 -94q-62 -79 -83 -79q-7 0 -12 13
q-8 25 -3 82q1 12 -3 42q-5 34 -5 48q0 59 58 83q53 15 105 31q19 13 58 12q43 -1 59 5q22 9 48 9q11 0 32.5 -2t32.5 -2q13 0 25 2q40 7 115 -23q81 -32 105 -73q54 -55 54 -140q0 -23 -4 -47zM362 122q9 -17 9 -37q0 -27 -19 -62q-14 -20 -38 -24q-12 -2 -47 0
q-24 2 -44.5 27t-20.5 57q0 23 13 45q13 10 40 30q15 3 28 3q51 0 79 -39zM546 596q-20 26 -49.5 40.5t-51.5 12.5q-32 -7 -33 -22q4 -23 26 -88q23 -70 31 -73q5 -10 15 -10q9 0 26 10q14 23 29 45q16 29 16 51q0 18 -9 34zM407 398q16 46 -6 95q-17 41 -33 81
q-23 50 -43 56q-34 4 -34 -18q0 -12 11 -38t12 -32q-3 -11 23.5 -67t43.5 -77q15 -11 26 0z" />
    <glyph glyph-name="at" unicode="@" horiz-adv-x="855" 
d="M814 437q0 -109 -65 -195q-69 -93 -167 -93q-49 0 -57 1q-21 3 -24 16q-2 4 0 27q2 17 -10 22q-92 -47 -95 -48q-54 -24 -96 -24q-12 0 -23 2q-71 11 -72 50q-3 107 93 156q22 14 72 30t72 32q34 18 74 28q18 15 16 50q-8 27 -38 31q-36 5 -75 -17l-44 -58
q-26 -31 -60 -37q-21 -3 -31 29q-1 5 -1 11q0 36 34 67q54 50 150 50q32 0 90 -7q49 -22 52 -24q27 -17 31 -45q1 -10 1 -22q0 -17 -4 -52.5t-4 -53.5q-17 -74 -18 -112q8 -16 23 -16q-2 0 38 10q30 0 60 75q28 69 28 118q0 114 -88 182q-81 62 -200 62q-158 0 -256 -106
q-92 -100 -92 -243q0 -144 94 -227q87 -76 219 -76q160 0 278 87q8 6 16 6q17 0 17 -17q0 -10 -10 -17q-136 -101 -292 -101q-179 0 -285 84q-116 90 -116 260q0 182 128 292q118 103 295 103q142 0 237 -71q105 -80 105 -219zM519 385q-32 0 -62 -19q-23 -14 -54 -27
q-27 -10 -55 -30q-20 -27 -20 -54t20 -39q29 -4 67 17l62 34q27 11 35 52q3 33 7 66z" />
    <glyph glyph-name="A" unicode="A" horiz-adv-x="1030" 
d="M987 34q3 -16 -6.5 -28.5t-22.5 -8.5q-30 6 -68 6q-30 0 -92 -5t-92 -5q-60 0 -102 14q-17 6 -16 23q1 32 35 36q5 -1 10 -1q22 0 45 27q5 13 5 28q0 31 -21 53q-32 15 -73 15q-23 0 -68.5 -6t-68.5 -6q-26 0 -48 6q-14 0 -39 2t-36 2q-23 0 -41 -6q-29 -29 -31 -51
q0 -35 36 -56l64 -28q23 -11 23 -28q0 -7 -7 -11q-26 -12 -57 -12q-18 0 -55.5 6.5t-58.5 5.5q-16 4 -32 4q-15 0 -42 -5t-41 -5q-15 0 -30 4q-18 4 -5 36q18 8 55 26q67 37 88 150q23 53 57 178q31 117 60 176q0 10 7 27.5t7 26.5t-5 17q-25 -2 -58 -23l-56 -38
q-7 -4 -26 -26q-15 -17 -28 -17q-22 0 -22 20q0 9 8 27q32 70 76 155q4 8 15 8q12 0 39 -12q32 -14 40 -16q63 5 183 6q153 1 191 2q82 22 90 22q15 0 21 -7q27 -32 61 -87l54 -90q8 -30 -19 -35q-19 0 -40 20q-27 25 -37 30q-16 5 -55 38q-33 27 -56 27q-8 0 -15 -2
q12 -51 44 -133q38 -97 49 -133q21 -70 41 -141q26 -83 54 -137q2 -1 61 -25q37 -15 51 -40zM559 494q-8 20 -41 124l-18 26q-12 13 -28 12q-34 -6 -49 -32q-11 -18 -12 -35.5t-16 -48.5t-15 -47q0 -15 10 -29q21 -5 44 -5q9 0 51 3q32 2 55 0q21 6 21 24q0 4 -2 8zM621 337
q-16 38 -35 43q-160 5 -222 -3q-42 -21 -36 -78q-1 -15 12 -22t26 -13q19 3 43 3q18 0 57 -2.5t59 -2.5q43 0 77 8q23 8 23 40q0 13 -4 27z" />
    <glyph glyph-name="B" unicode="B" horiz-adv-x="920" 
d="M862 264q10 -34 10 -68q0 -75 -46 -130q-100 -75 -181 -72q-39 -11 -86 -11q-40 0 -117 11q-81 11 -120 12q-22 -2 -99 0q-61 2 -98 -9q-11 -4 -30 -4q-43 0 -41 23q2 26 31 40l48 22q10 14 21 42q13 32 19 43q-4 36 -4 124q0 80 -8 124q-1 1 -33 38q-21 23 -22 43
q13 18 50 19q43 2 55 10q55 23 111 45q66 28 105 56q25 0 25 -29q0 -4 -1 -13v-13q0 -11 2 -18q6 -55 2 -102q5 -21 55 -23q117 8 150 80q5 18 5 36q0 77 -71 128q-39 18 -166 23q-7 -7 -23.5 -10.5t-22.5 -7.5l-108 -60q-64 -35 -114 -33q-1 3 -10 1q-11 -2 -15 -1
q-37 9 -53 16q-29 14 -38 39q-2 9 -2 19q0 30 22 55t56 25q12 0 22 -4q11 -47 45 -55q9 -2 19 -2q22 0 61 15q43 18 62 20q107 29 202 29q162 0 248 -86q44 -56 44 -124q0 -21 -5 -40q-43 -66 -96 -81q-10 -5 -10 -14q0 -5 5 -8l86 -46q47 -32 59 -74zM380 83q8 63 8 142
q0 50 -4 133q-4 100 -5 133q-5 35 -27 30q-16 -8 -27 -44q-5 -60 -5 -151q-1 -115 -2 -148q-3 -95 15 -106q7 -4 15 -4q18 0 32 15zM704 203q0 89 -48 127q-53 42 -127 42q-37 0 -73 -11q-3 -35 0 -103q3 -67 -1 -102q0 -58 57 -95q18 -11 39 -11q18 0 46 8q38 13 44 14
q63 34 63 131z" />
    <glyph glyph-name="C" unicode="C" horiz-adv-x="780" 
d="M742 698q-20 -38 -55 -116q-11 -31 -11 -74q0 -25 4 -64q6 -56 7 -64q-4 -4 -9 -4q2 0 -29 10q-23 29 -65 109q-40 75 -70 109q-46 53 -108 68q-117 -5 -166 -95q-42 -53 -42 -144q0 -27 4 -74q4 -54 5 -74q29 -81 71 -116q8 2 9.5 10.5t2.5 16.5q0 79 -16 239
q-6 14 -23.5 39t-22.5 41q16 10 62 25q39 13 59 32q20 4 53.5 25.5t51.5 24.5q2 -7 2 -14q0 -11 -9 -37t-7 -42q4 -33 2 -86q-3 -81 -3 -89q0 -17 3.5 -49t3.5 -48q0 -13 -2.5 -39.5t-2.5 -40.5q0 -27 8 -48q16 -16 40 -16q7 0 28 3t33 2q40 14 85 48q4 3 73 60q2 -1 10 2
q6 1 7 -5q11 -126 -126 -198q-101 -53 -214 -53q-144 0 -233 87q-116 113 -116 303q0 41 6 85q20 155 165 254q56 38 131 38q49 0 145 -21q100 -22 147 -24q18 1 48 21t49 21q20 -13 15 -38z" />
    <glyph glyph-name="D" unicode="D" horiz-adv-x="920" 
d="M872 413q-2 -24 -2 -66v-25q0 -96 -19 -142q-26 -62 -83 -133q-35 -43 -107 -60q-63 -10 -126 -21q-28 3 -155 6q-95 3 -154 18q-25 1 -69 -9t-66 -10q-11 0 -22 2q-14 33 2 53q10 12 52 28q35 13 41 41q10 47 13 125q1 63 3 126q2 37 -30 75q-46 56 -50 64q4 11 14 11
q4 0 15.5 -3.5t17.5 -3.5t10 2q52 6 133 37q96 36 131 44q7 2 20.5 10.5t21.5 8.5q5 0 10 -2q1 -4 1 -8q0 -7 -7 -21t-8 -21q-2 -23 6 -62q9 -48 10 -59q-6 -56 -3 -140q3 -123 3 -139q-1 -19 -2 -39q-1 -23 7 -37q29 -32 63 -28q55 18 93 66t49 110q5 26 5 60q0 14 -3 79
q-2 49 0 80q-33 180 -144 221q-116 13 -179 -2l-106 -58q-63 -29 -114 -29q-22 0 -44 5q-19 15 -37 31q-21 19 -21 40q0 5 1 11q-1 32 42 71q25 12 42 12q10 0 18 -3q5 -21 11 -30q9 -16 25 -18q27 3 160 34q98 22 166 19q148 -7 232 -100q95 -81 133 -221zM390 430
q-2 9 -5 19.5t-11 14.5q-16 4 -32 -15q-8 -17 -8 -40q0 -10 2 -32t2 -33q-4 -28 -4 -63q0 -28 5 -97q4 -64 3 -99q0 -3 9 -17q13 -5 30 4q16 32 16 78q0 12 -14 122q13 91 7 158z" />
    <glyph glyph-name="E" unicode="E" horiz-adv-x="890" 
d="M848 -20q5 -12 5 -25q0 -38 -38 -79q-25 -13 -55 -13q-29 0 -55 13q-26 25 -39 76q-18 71 -24 83q-5 1 -11 1q-18 0 -49 -17q-35 -19 -52 -22q-56 -23 -121 -23q-111 0 -214 61q-70 55 -112 136.5t-42 166.5q0 88 39.5 181.5t103.5 152.5q29 19 108 47q74 8 116 8
q44 0 82 -7q42 -24 113 -24q27 0 58 4q14 2 40 18t42 16q10 0 21 -5q1 -3 2 -9.5t2 -9.5q-22 -51 -44 -103q-24 -60 -30 -109q1 -41 -1 -108q-2 -80 -2 -105q0 -140 35 -232q6 -17 23 -31.5t32 -27.5q9 -5 35 -6q23 0 32 -8zM299 129q2 39 2 85t-2.5 137t-2.5 135
q0 60 3 108q1 4 -2 5q-2 1 -6 0t-7 -3q-51 -109 -55 -285q10 -48 20 -95q13 -56 35 -87q2 -4 8 -4t7 4zM623 220q14 62 14 126q0 152 -69 248q-53 74 -122 74q-13 0 -25.5 -3.5t-33.5 -18.5q-24 -44 -24 -112q0 -19 2 -51q3 -43 3 -53q2 -38 31 -34q42 1 87 38l70 62
q15 -4 17 -22q1 -14 2 -29q-4 -38 -4 -104q1 -77 -1 -104q-3 -7 -15 -19q-5 -2 -9 -2q-12 0 -18 19q-8 24 -11 28l-38 28q-23 16 -42 22q-42 13 -69 -2q3 -25 0 -124q-3 -77 12 -123q12 -16 42 -16q13 0 47 6q104 19 154 166z" />
    <glyph glyph-name="F" unicode="F" horiz-adv-x="760" 
d="M721 696q-10 -52 -61 -148q-49 -92 -56 -149l-13 -100q0 -56 37 -81q3 -2 7 -2q6 0 15 5.5t12 5.5q2 0 4 -1q26 -25 26 -64q0 -15 -4 -31q-3 -10 -20.5 -22.5t-23.5 -11.5q-85 9 -111 76q-1 2 -13 46q-8 28 -30 34q-55 9 -92 9q-54 0 -86 -18q-17 -26 -17 -62
q0 -15 3 -42q4 -30 5 -43q15 -34 50 -44q14 -4 68 -6q43 -1 65 -15q7 -4 8 -20q0 -16 -6 -18q-18 -6 -41 -6q-18 0 -51.5 4.5t-48.5 4.5q-14 0 -42 -5t-45 -5q-24 0 -71 4.5t-70 4.5q-26 0 -48 -4q-14 -3 -24.5 9t-10.5 27q0 14 23 18q30 6 37 13q39 23 44 74q1 48 1 97
q-5 9 -6 22q-3 20 -3 21q-2 22 -2 47q0 28 3.5 86t3.5 88q0 56 -9 100q-5 27 -55 41q-43 12 -38 47q6 15 25 19q26 1 76 -2q54 -4 78 -4q25 0 72 7.5t71 7.5q28 0 80 -6.5t78 -6.5q30 0 56 6q36 10 73 19q42 11 68 10q13 0 13 -11q0 -3 -2 -12t-2 -13zM537 479q6 20 6 41
q0 60 -40 96q-41 26 -93 26q-42 0 -93 -18q-25 -20 -25 -59q0 -7 3 -36q1 -24 0 -38q16 -33 63 -33q10 0 32 2t32 2q13 0 23 -2q10 4 25 4q5 0 16.5 -1t16.5 -1q23 0 34 17zM530 340q12 29 -9 50q-33 6 -94 6h-101q-35 -10 -35 -33q0 -4 1 -9q3 -17 19 -24q-2 0 70 -2
q43 -2 73 2q2 0 26 -2q17 -1 27 1q14 2 23 11z" />
    <glyph glyph-name="G" unicode="G" horiz-adv-x="820" 
d="M774 -15q1 -3 1 -6q0 -8 -8 -8q-5 0 -9 4q-8 2 -65 26q-42 18 -68 18q-33 0 -58 -25q-101 -36 -195 -36q-129 0 -209 72q-62 56 -95 144q-31 82 -31 176q0 85 26 160q13 28 53 84q21 26 66 76q33 16 66 33q40 17 72 17q15 0 29 -3q106 3 107 3q56 -31 129 -31
q53 0 104 17q2 1 18 7q13 4 20 4q14 0 19 -16q-10 -51 -55 -178q-9 -14 -12 -40q-5 -34 -7 -42q0 -11 -1 -22q-1 -15 -11 -16q-35 20 -62 63q-23 39 -45 78q-16 10 -65 64q-37 41 -73 41q-12 0 -25 -3q-89 4 -137 -79q-15 -39 -18 -94q-1 -49 -3 -98q3 -28 32 -40
q56 -4 185 -1q119 2 185 -4q20 5 40 5q25 0 62 -10q14 -10 14 -27q0 -10 -5 -25q-7 -22 -7 -24q-13 -29 -13 -71q0 -15 4 -64q3 -40 1 -63q22 -39 44 -66zM544 220q9 25 -4 43q-72 18 -153 5q-12 -4 -28 -4q-12 0 -36 3.5t-35 3.5q-34 0 -49 -27q3 -11 7.5 -22.5t16.5 -14.5
q18 -4 42 -4q19 0 66 5q43 4 66 3q7 0 29 -3.5t34 -3.5q29 0 44 16zM542 123q-15 31 -57 31q-9 0 -43 -3q-27 -3 -43 -1q-8 -1 -16 -1q-12 0 -36 3.5t-36 3.5q-10 0 -19 -2q-28 -14 -28 -49q0 -24 18 -37q64 -46 129 -46q37 0 71 16q33 24 42 34q19 22 18 51z" />
    <glyph glyph-name="H" unicode="H" horiz-adv-x="990" 
d="M949 30q0 -28 -21 -34q-46 6 -103 6q-39 0 -117 -4t-117 -4q-21 6 -21 21q1 32 44 47q49 17 58 41q-2 13 0 37q2 33 2 42q0 53 -35 66q-93 10 -280 -2q-31 -15 -31 -63q0 -9 1 -35q2 -21 1 -32q5 -29 35 -49q28 -9 38 -14q21 -11 29 -26q2 -22 -16 -31q-35 5 -76 5
q-30 0 -88.5 -3.5t-88.5 -3.5q-54 0 -99 8q-15 9 -8 32q11 15 59 30q41 13 50 42l2 134q2 79 10 135l-18 225q-8 31 -51 46q-49 18 -61 37q-2 6 -2 11q0 16 20 21q4 1 32 2q180 9 247 2q17 7 37 7t37 -7q5 -11 5 -19q0 -18 -33 -31q-40 -15 -48 -26q-23 -31 -23 -68
q0 -23 10 -41q27 -21 76 -21q16 0 47 2.5t46 2.5q12 0 22 -1q10 2 21 2t31.5 -2t30.5 -2q34 0 53 19q15 31 15 51q0 9 -2 16q-10 30 -48 52q-58 31 -63 36q-5 9 -3 19q1 11 8 14q20 3 41 3q32 0 93 -8.5t92 -8.5q17 0 52 7.5t52 7.5q23 0 41 -11q12 -23 4 -35
q-59 -21 -67 -24q-36 -19 -46 -52q-2 -10 -2 -21q0 -17 5.5 -49.5t5.5 -49.5q0 -19 -5 -35q-2 -27 -2 -59q0 -39 4 -125q4 -80 3 -119q-1 -33 24 -52q5 -3 50 -25q31 -15 41 -36zM675 408q-3 19 -38 33q-70 11 -133 11q-86 0 -158 -20q-20 -12 -20 -44q0 -13 4 -26
q6 -22 47 -37q67 -1 197 4q6 1 13 1t21.5 -1.5t21.5 -1.5q23 0 35 14q9 7 11 19q2 9 1 24q-2 21 -2 24z" />
    <glyph glyph-name="I" unicode="I" 
d="M412 4q-23 -5 -52 -5q-24 0 -71 5t-70 5q-32 0 -59 -7.5t-58 -7.5q-44 0 -69 16q-3 3 0 21q3 17 9 20q43 11 61 21q30 17 39 48q6 11 6 25q0 6 -5 37q-4 23 1 38q4 24 4 56q0 31 -6 98q-5 64 -4 94q0 12 3.5 43.5t3.5 48.5q0 66 -45 87q-23 3 -47 6.5t-33 23.5
q-2 9 7 28.5t18 21.5q168 0 242 16l62 -6q37 -5 57 -22q2 -44 -28 -53q-22 1 -50 -19q-29 -29 -27 -109q6 -313 3 -383q11 -71 47 -81q15 -1 55 -12q7 -4 9 -29q3 -24 -3 -25z" />
    <glyph glyph-name="J" unicode="J" horiz-adv-x="740" 
d="M709 720q7 -19 -6 -42q-29 -14 -82 -48q-17 -15 -17 -39q0 -8 2 -23t2 -23q0 -12 -4.5 -37.5t-4.5 -38.5q0 -36 13.5 -108t13.5 -110q0 -28 -5 -54q-5 -67 -44 -125q-43 -63 -106 -84q-55 -25 -125 -25q-110 0 -220 57q-77 73 -92 156q9 91 10 92q11 51 51 70
q15 0 42 8.5t40 8.5q16 0 30 -8q21 -19 42 -39q23 -24 19 -54q0 -51 -42 -85q-17 24 -38 24q-8 0 -15 -4q-11 -6 -16 -10q-8 -7 -11 -15q7 -78 92 -106q65 0 83 17q1 3 7 49q-6 54 -6 166q1 109 -6 165q-6 46 0 128q-8 26 -37 26q-7 2 -12 2q-17 0 -34 -21q-23 -29 -30 -34
q-63 -57 -131 -83q-10 1 -10 16q0 11 5 23q22 30 51 124q24 82 63 114q53 4 107 -29q22 3 48 3q17 0 65 -3q41 -2 67 -1q81 4 241 0zM447 392q0 17 2.5 48t2.5 47q0 94 -55 109q-2 -2 -9 -4q-2 -27 -2 -57q0 -52 7 -157t7 -158q0 -56 -5 -103q3 -3 10 -12q6 -1 13.5 5t9.5 7
q31 51 31 130q0 25 -6 73t-6 72z" />
    <glyph glyph-name="K" unicode="K" horiz-adv-x="970" 
d="M932 24q-16 -26 -31 -24q-23 -2 -61 5.5t-60 6.5q-19 -1 -67 -11q-44 -8 -67 -8q-31 0 -53 12q-13 15 -13 42q0 8 1.5 26.5t1.5 27.5q0 28 -15 44q-67 69 -106 131q-25 14 -50 5q-63 -50 -91 -133q-2 -40 27 -54q33 -6 59 -25q31 -23 31 -53q0 -25 -26 -21q-14 -3 -30 -3
q-21 0 -62.5 7.5t-63.5 7.5q-21 0 -62.5 -8t-63.5 -8q-50 0 -77 31q0 6 -1.5 15.5t-1.5 13.5q0 12 12 20q85 38 93 82q5 59 5 135q0 29 -1 86.5t-1 86.5q0 72 4 129q-3 34 -37 49q-28 11 -57 22q-28 15 -23 53q8 10 24 14t34 4q20 0 60.5 -5t62.5 -6q27 -1 177 10
q27 -8 27 -24q0 -4 -2 -8q-6 -27 -47 -48.5t-50 -45.5q-7 -14 -7 -35q0 -13 3.5 -39t3.5 -38q0 -23 -7.5 -67t-7.5 -65q0 -12 2.5 -22t12.5 -10q9 0 23 9q31 19 62 56q25 31 50 63q91 92 112 122q53 75 48 161q10 10 59 10q16 -8 37 -28q31 -31 33 -32q17 -14 66 -35
q43 -17 61 -40q5 -35 -30 -53q-87 1 -183 -69q-29 -11 -39 -17q-20 -12 -29 -33q-9 -49 15 -69q25 -35 100 -129q63 -79 96 -132q13 -13 48 -25q39 -13 51 -21q23 -15 21 -43z" />
    <glyph glyph-name="L" unicode="L" horiz-adv-x="880" 
d="M834 419q-2 -22 -3 -45q-3 -26 -22 -33q-9 -10 -23 -12q-6 9 -12 19t-16 10q-31 -1 -42 -23q-3 -20 -3 -38q0 -63 54 -157q57 -100 63 -158q0 -2 -3 -7.5t-2 -8.5q-41 -2 -117 22t-117 24q-21 0 -42 -4q-206 2 -380 -12q-34 2 -100 15q-21 13 -8 50q5 15 28 19q29 5 35 9
q46 32 46 98q0 18 -4 56.5t-4 57.5q5 28 5 67q0 23 -3 73q-2 47 -2 69q1 80 -19 109q-10 23 -60 38q-43 13 -43 40q0 8 2 18q11 12 21 16q38 -5 80 -5q31 0 89.5 4t87.5 4q40 0 76 -5q129 14 144 14q24 -5 25 -24q-4 -34 -40 -53q-48 -4 -68 -42q-4 -15 -4 -35q0 -18 4 -52
t4 -48q-6 -39 -6 -87q0 -35 4.5 -106.5t4.5 -108.5t-3 -69q9 -28 26 -34q14 -2 28 -2q50 0 81 21q26 34 35 87q5 26 8 99q-4 26 -4 51q0 78 37 130q31 26 51 26q9 0 17 -3q71 -13 94 -74zM390 125q-10 70 -13 186q-3 148 -6 185q-1 13 4.5 47t5.5 50q0 47 -39 56
q-7 -6 -22 -20q-3 -20 -3 -45q0 -22 3.5 -69t3.5 -71q0 -36 -6 -65q6 -46 6 -134q-1 -92 4 -135q1 -13 13.5 -15t24.5 -4q14 13 15 14q8 9 9 20z" />
    <glyph glyph-name="M" unicode="M" horiz-adv-x="1300" 
d="M1244 42q-2 -32 -19 -41q-78 8 -135 8q-93 0 -166 -20q-38 -3 -69 12q-7 5 -7 14q0 7 15 34q25 21 50 41q29 26 29 53q0 9 -3 20q-13 42 -37 148q-21 94 -39 146l-8 60q-6 35 -29 46q-45 -25 -71 -97q-36 -99 -48 -116q3 -28 46 -73.5t40 -82.5q-3 -39 -26 -75
q-14 -21 -51 -59.5t-52 -61.5q-14 -5 -27 -5q-37 0 -76 45l-63 72q-20 23 -20 48q0 11 5 21q4 18 34 55q25 31 21 59q-99 152 -147 259q-16 12 -22 8q-23 -44 -34 -114q-9 -61 -18 -121q-3 -16 -27 -81q-19 -54 -19 -85q0 -45 38 -70q20 -12 40.5 -25t29.5 -32q3 -4 3 -9
q0 -14 -13 -22q-16 -1 -33 -1q-27 0 -79 4t-79 4q-48 0 -87 -10l-31 13q-17 9 -17 28q0 29 30 42q26 9 51 18q46 27 66 95l32 118q9 30 26 139q13 85 38 133q1 4 5 14t4 16q0 4 -2 8q-13 13 -46 19q-39 7 -49 12q-23 11 -24 40q-1 12 11 23.5t22 10.5q5 0 71 -8q42 -5 70 -5
q30 0 57 5q56 10 69 10q25 0 43 -10q19 -27 38 -83q20 -62 32 -83q33 -79 63 -114q15 14 26 47q12 39 19 50q59 73 76 179q11 27 47 27q18 0 60.5 -10t60.5 -11q10 -2 23 -2q16 0 50.5 4.5t51.5 4.5q19 0 35 -4q11 -5 11 -38q0 -11 -4 -16q-9 -12 -45 -19q-31 -6 -41 -26.5
t-10 -42.5q0 -20 10 -50l16 -48q6 -59 41 -159q36 -107 44 -155q8 -20 15 -40q11 -23 32 -27q66 -13 76 -61zM636 163q-3 19 -36 26q-26 -16 -26 -44q0 -15 11 -25q28 -8 38 4q5 10 9.5 20t3.5 19z" />
    <glyph glyph-name="N" unicode="N" horiz-adv-x="930" 
d="M883 115q5 -16 5 -31q0 -49 -41 -92q-28 -20 -71 -20t-101 20q-66 41 -66 161q0 16 2 55q-26 29 -78 29q-30 0 -63 -10q-27 -14 -30 -35q-2 -86 47 -108q15 -9 30 -17q16 -11 22 -25q4 -15 -19 -27q-173 -10 -207 -10q-55 0 -102 5q-13 0 -46 -6t-49 -6q-40 0 -57 29
q-1 6 -1 11q0 23 25 39q61 16 73 62q1 20 6 87q5 54 5 87q0 19 -5 55t-5 54q0 12 3 37t3 37q0 39 -24 59l-56 42q-32 26 -41 54q1 7 10 15q18 -8 40 -8q12 0 96 19q82 23 165 45q98 27 170 27q102 0 190 -45q99 -52 128 -141q17 -52 17 -109q0 -106 -53 -186
q-49 -40 -67 -62q-34 -41 -37 -84q1 -19 22 -31q24 -10 40 8q6 8 6 18q0 8 -8 27q24 32 55 31q52 -8 67 -60zM664 563q-13 41 -41 71q-56 40 -117 40q-12 0 -24 -2q-10 -7 -21.5 -16t-11.5 -20q-7 -56 -7 -65q0 -36 17 -59q41 -9 86 -9q39 0 85 7q16 3 25.5 19t8.5 34z
M668 391q-9 11 -19 22q-13 13 -26 16q-11 -2 -27 -2q-11 0 -36 1.5t-37 1.5q-54 0 -76 -32q-6 -16 -2 -45q7 -23 36 -29t75 -4q60 3 79 2q5 3 16 9q19 14 17 60zM377 116q7 193 -6 327q-1 16 -1 34q0 20 2 58.5t2 57.5q0 35 -6 60q-7 4 -13 4q-8 0 -15 -14q-9 -17 -14 -21
q-18 -107 -18 -129q0 -16 2 -47.5t2 -47.5q0 -29 -2.5 -86.5t-2.5 -86.5q0 -62 9 -112q13 -24 40 -22q8 2 13 11q7 13 8 14z" />
    <glyph glyph-name="O" unicode="O" horiz-adv-x="870" 
d="M817 395q-5 -23 -3.5 -70.5t-3.5 -70.5q-52 -132 -143 -214q-27 -20 -79 -37q-68 -23 -82 -30q-32 -6 -64 -6q-80 0 -224 59q-149 111 -169 249q-9 64 -9 107q0 90 41 158q12 38 35 73q33 50 94 86q58 35 122 43q15 -1 32 -1q19 0 52.5 1.5t49.5 1.5q62 0 109 -21
q98 -45 164.5 -135.5t77.5 -192.5zM599 542q5 61 -79 118q-44 24 -97 24q-39 0 -76 -14q-89 -50 -89 -128q0 -8 1 -15q8 -13 29 -23q101 -13 164 -15q17 7 54 9.5t53 7.5q27 9 40 36zM627 390q-24 39 -69 39q-18 0 -57 -8t-59 -8q-12 -2 -26 -2q-17 0 -51.5 4t-50.5 4
q-24 0 -41 -6q-24 -17 -24 -40q0 -5 1 -10q2 -21 28 -42q16 -5 42 -3q43 3 37 3q36 -5 107 -2.5t106 -2.5q-2 5 11 5q9 0 11 4q37 22 35 65zM601 230q-30 16 -66 16q-31 0 -77 -13q-10 -1 -20 -1q-20 0 -58.5 5t-57.5 5q-17 0 -32 -3q-29 -9 -34 -63q9 -24 17 -48
q12 -26 31 -39q49 -52 130 -52q23 0 46 5q88 21 111 95q2 5 15 31q10 20 10 33q0 17 -15 29z" />
    <glyph glyph-name="P" unicode="P" horiz-adv-x="920" 
d="M873 475q-37 -128 -108 -140q-46 -27 -108 -27q-23 0 -70.5 5t-71.5 5q-17 0 -32 -2q-25 -28 -25 -83q0 -12 2 -40.5t1 -42.5q6 -28 9 -36q8 -21 22 -31q23 -6 46 -13q27 -8 30 -30q-10 -35 -75 -41q-4 -1 -99 -1q-76 0 -152 11q-19 -1 -59 -9t-61 -8q-35 0 -61 19
q-8 14 2 41q7 8 23.5 10t22.5 6q28 18 60 74q-3 18 -3 40t4 65t4 64q0 62 -25 102q-1 1 -41 35q-26 22 -25 46q20 11 57 10q42 -1 58 4q29 14 137 45q86 25 128 57q6 3 15 3q-1 -11 -12 -63q-8 -40 -8 -65q0 -50 29 -82q40 -20 84 -20q33 0 57 12q37 18 57 56.5t16 84.5
q-8 86 -57 113q-61 33 -130 33q-50 0 -103 -17q-20 -7 -129 -62q-79 -40 -133 -40q-43 0 -83 22q-24 24 -24 59q0 57 50 93q23 11 51 11q19 0 34 -6q1 -2 7 -32q4 -18 22 -23q42 -4 94 15l88 34q20 1 102 8q61 6 99 6q116 0 197 -51q94 -94 94 -178q0 -23 -7 -46zM385 99
q3 32 -1 86q-6 64 -6 85q0 23 3 66t3 65q0 31 -4 58.5t-26 30.5q-16 -6 -29 -30q-3 -20 -3 -44q0 -25 5 -75t5 -76q0 -27 -4 -51l6 -62q6 -37 27 -55q18 -5 24 2z" />
    <glyph glyph-name="Q" unicode="Q" horiz-adv-x="850" 
d="M811 394q-11 -62 -21 -123q-14 -74 -31 -123q-60 -80 -143 -129q-91 -54 -184 -54q-18 0 -51 3.5t-48 3.5q-52 0 -85 -34q-5 -6 -31 -25q-19 -14 -27 -29q16 -3 17 -3q54 14 109 29q61 14 108 14q52 0 99 -17q31 -6 63 -12q38 -8 63 -8q45 0 77 22q9 2 26 15.5t25 13.5
q6 0 12 -5q1 -7 1 -14q0 -38 -38 -90q-98 -84 -197 -76q-17 -3 -34 -3q-52 0 -144 32q-100 35 -146 39q-39 4 -90 -14q-42 -15 -84 -31q-10 8 -10 20q0 10 9 30.5t10 26.5q78 95 153 132q16 20 5 36q-54 44 -74 64q-38 38 -57 77q-54 76 -54 215q0 28 2 68q14 50 30 80
q22 55 75 107q26 26 102 86q73 36 126 31q59 -3 175 -14q14 -7 126 -76q42 -64 83 -128q48 -76 53 -137zM587 575q-59 104 -165 104q-58 0 -107 -27q-4 -6 -31 -31q-21 -20 -26 -39q-4 -9 -4 -20q0 -19 10 -31q29 -28 91 -28q19 0 56.5 3t54.5 3q14 0 26 -1q37 -10 48 -10
q21 0 36 14q19 28 11 63zM614 392q-8 31 -36 34q-31 -6 -75 -6q-16 0 -47 1t-47 1q-44 0 -76 -6q-10 1 -27 7t-26 6q-10 0 -20 -5q-29 -13 -29 -62q1 -10 25 -41q23 -8 50 -8q16 0 45.5 3.5t43.5 4.5q23 1 69 -7t67 -8q47 0 75 31q12 20 12 37q0 10 -4 18zM590 181
q-6 57 -69 57q-11 0 -34 -1.5t-34 -1.5q-25 0 -39 7q-26 -8 -70 -7q-53 2 -71 -1q-24 -9 -26 -57q13 -51 44 -88q36 -43 83 -49q21 -5 40 -5q57 0 116 53q20 21 39 41q24 27 21 52z" />
    <glyph glyph-name="R" unicode="R" horiz-adv-x="1000" 
d="M952 26q0 -13 -23 -31q-41 4 -129 9q-16 1 -51.5 -8.5t-52.5 -9.5q-33 0 -53 28q2 15 2 30q0 43 -25 111q-27 74 -31 109q-8 19 -34 33q-68 8 -95 -36q-7 -12 -7 -27q0 -9 5 -35q4 -22 2 -36q-3 -19 -1 -44q1 -21 3 -43q27 -12 55 -24q30 -18 32 -47q1 -8 -6.5 -11
t-13.5 -6q-16 -1 -34 -1q-41 0 -122.5 10t-120.5 10q-58 0 -104 -15q-6 0 -26 -3t-31 -3q-32 0 -44 21q7 29 60 43t58 49q0 73 10 220q3 90 -84 132q-9 4 -9 16q2 10 3 20q5 2 14 7q26 -3 52 -3q134 0 231 75l50 18q30 8 50 5q-2 -12 -17 -64q-11 -42 -11 -67q0 -37 23 -63
q28 -31 97 -27q44 10 80.5 42t46.5 75q4 18 4 35q0 62 -45 103q-28 19 -42 26q-23 12 -46 14q-34 9 -69 9q-62 0 -141 -32l-132 -58q-16 1 -49 -2q-38 -5 -53 -5q-56 0 -77 41q-6 22 -6 41q0 47 37 66q43 10 86 11q8 -27 10 -32q9 -18 25 -22.5t32 -4.5q38 0 108.5 30.5
t112.5 30.5q138 0 171 -3q93 -8 159 -44q24 -26 49 -53q31 -34 39 -60q2 -68 -3 -102q-8 -56 -37 -94q-23 -17 -46 -35q-27 -21 -31 -46q6 -33 27 -89q25 -66 31 -87q16 -25 24 -35q15 -19 33 -26q24 -4 48 -7q32 -6 32 -29zM389 85q-1 44 2 117q2 81 2 113q0 79 -9 141
q-1 7 -7 17q-6 3 -14 3q-18 0 -34 -15q-18 -36 -12 -103q7 -76 -2 -106q1 -67 5 -91q8 -54 35 -81q9 -2 19 -3q12 -1 15 8z" />
    <glyph glyph-name="S" unicode="S" horiz-adv-x="820" 
d="M743 153q-12 -57 -68 -97q-2 -2 -104 -60q-50 -12 -105 -12q-116 0 -250 54q-9 0 -27 2.5t-27 2.5q-24 0 -43 -12q-22 -14 -12 -49q16 -23 43 -23q9 0 17 3q5 3 19 16q10 11 18 11t17 -8q16 -9 31 -18q19 -11 22 -27q5 -12 5 -24q0 -22 -18 -44l-32 -36q-15 -10 -39 -10
q-13 0 -56 8q-66 20 -97 139q-5 81 32 164q28 41 81 97l88 93q16 22 5 39q-135 61 -164 145q-3 22 -3 43q0 95 56 130q15 20 66 43q62 28 138 28q98 0 228 -47q11 -3 22 -3q22 0 49 11q22 11 45 21q33 -25 33 -72q0 -8 -1 -16q-12 -39 -43 -91q-26 -42 -52 -85
q-4 -24 14 -41q10 -10 39 -24t39 -24q47 -46 47 -125q0 -40 -13 -102zM469 595q7 16 7 32q0 19 -11 32q-34 31 -99 31q-17 0 -38 -2q-35 -12 -58 -42.5t-24 -69.5q9 -43 78 -65q8 0 28.5 -3.5t30.5 -3.5q11 0 19 3q28 29 38 41q20 24 29 47zM598 576q-16 16 -41 4
q-29 -28 -79 -94q-47 -60 -83 -93q-9 -11 -46 -67q-28 -43 -54 -64q-46 -50 -50 -56q-26 -34 -31 -66q2 -7 31 -19q36 16 70 56l54 70q5 2 9.5 5t2.5 10q57 81 164 207q18 25 36 51q22 31 17 56zM602 224q-11 33 -41 54.5t-68 23.5q-24 -6 -41 -52q-13 -23 -46.5 -62.5
t-45.5 -60.5q-3 -7 -3 -14q0 -11 10 -23l16 -20q30 -12 65 -12q40 0 97 18q59 31 59 120q0 14 -2 28z" />
    <glyph glyph-name="T" unicode="T" horiz-adv-x="930" 
d="M881 224q-20 -109 -78 -149q-35 -22 -102 -69q-112 -31 -205 -31q-92 0 -165 31q-38 8 -94 59q-39 36 -53 55q-51 71 -51 176q0 85 34 154q29 60 91 99q59 39 128 45q-1 -2 -48 -68q-31 -45 -35 -78.5t-4 -62.5q0 -105 46 -177q22 -26 35 -24q5 5 6 7q-5 28 -2 90t-2 91
q-9 48 -42 77q15 9 88 28q57 14 81 46h13q5 0 6 -8q-4 -33 -4 -72q0 -31 3.5 -91t3.5 -90q0 -45 -6 -81q4 -17 8.5 -35t22.5 -19q10 -2 20 4t11 16q1 92 2 274q-7 15 -2 62q5 42 -10 62q-59 10 -189 80q-116 63 -191 63q-14 0 -29 -2l-32 -12q-19 -9 -23 -25q-5 -41 26 -57
q2 -2 15 -4q10 -2 10 -7q0 -2 -2 -6q-12 -11 -24 -21q-15 -12 -28 -12q-7 0 -14 3l-34 26t-19 35q-9 85 53 119q57 22 153 22q14 0 61 -1q38 -1 61 0q51 1 150.5 -24t146.5 -25q71 0 125 41q16 12 31 12q9 0 16 -4q22 -17 22 -54q0 -14 -3 -27q-34 -96 -192 -126
q-12 -10 -16 -21q5 -63 5 -186q0 -126 4 -187q6 -11 16 -11q5 0 20 5t22 4q45 10 83 48q31 36 63 73q19 0 17 -40z" />
    <glyph glyph-name="U" unicode="U" horiz-adv-x="920" 
d="M867 25q-14 -10 -37 -10q52 0 -41 2q-33 1 -81 -13l-81 -23q-30 5 -23 40q9 44 -3 56q-12 -5 -25 -17q-19 -16 -23 -19q-100 -56 -208 -56q-82 0 -151 34q-147 111 -147 218q0 24 7 49q6 70 38 130q36 64 92 94q41 35 39 95q-1 27 -33 35q-21 -5 -25 -7q-13 -6 -17 -19.5
t-6 -27.5q-5 -17 -17 -22q-73 17 -83 77q0 68 85 107q10 0 28 1t26 1q37 0 60 -19q55 -31 55 -110q0 -23 -13 -107q-43 -90 -43 -189q0 -115 64 -180q11 -11 20 -11q5 0 8 2.5t8 16.5q2 86 -1 228q-4 170 -4 225q0 58 2 108q17 22 41 21q22 -8 23 -25q6 -14 6 -35
q0 -15 -4.5 -46t-4.5 -44q0 -45 35 -59q12 0 49 -5q34 -5 53 -5q62 0 81 44q2 10 2 21q0 40 -25 66q-30 11 -60 23q-32 16 -30 49q31 10 95.5 3.5t93.5 2.5l73 12q11 0 20 -2q2 -2 6 -8q-13 -51 -25 -103q-14 -60 -14 -106q0 -22 3 -44q17 -53 17 -124q0 -31 -4 -92.5
t-4 -92.5q0 -29 2 -53q11 -21 45 -31q55 -16 56 -16q8 -19 8 -25q0 -9 -8 -15zM580 459q-11 -1 -24 -1q-19 0 -62 5q-39 5 -62 4q-35 -15 -35 -57q0 -32 29 -47q22 -12 68 -5q15 2 38 -3q27 -6 36 -6q15 0 26 7q21 30 21 51q0 35 -35 52zM604 183q10 46 10 60q0 27 -15 41
q-9 -1 -18 -1q-19 0 -56 6t-54 6q-39 0 -61 -23q-1 -10 -6 -67q-3 -37 -3 -66q0 -26 29 -40q14 3 56 2q36 0 56 7q51 26 62 75z" />
    <glyph glyph-name="V" unicode="V" horiz-adv-x="1070" 
d="M1024 670q-11 -31 -62 -45t-64 -41q-41 -71 -94 -181q-88 -183 -89 -185q-8 -17 -17 -34q-10 -22 -10 -36q0 -12 6 -21q4 -4 36 -17q22 -9 22 -25q0 -7 -3 -15q-5 -14 -12 -13q-39 -7 -115 -27q-45 -29 -140 -82q-7 -3 -13 -3q-15 0 -23 31q-11 44 -14 50q-27 46 -91 194
q-53 122 -103 189q-28 73 -57 147q-40 84 -118 88q-6 0 -14 21q-3 17 14 43q6 4 19 9q37 -3 81 -3q110 0 272 20q20 3 69 -21q63 -31 67 -76q-3 -46 -4 -54q-7 -29 -30 -43q-30 -18 -61 -18q-17 0 -32 6q-31 28 -35 63q28 16 23 51q-8 19 -44 21q-36 -13 -41 -45
q-2 -12 -2 -23q0 -43 29 -93q24 -42 49 -84l36 -78q21 -45 42 -74q3 -5 8 -5q13 0 18 16q38 54 74 141q29 73 59 147q11 17 11 36t-16 51q-17 37 -20 51q-1 15 43 20q25 3 56 2q27 -5 115 -14q15 1 53 6q34 4 53 4q28 0 51 -8q23 -21 18 -43zM818 633q-9 6 -21 6
q-17 0 -30 -10q-9 -31 -41 -87t-41 -86q-16 -51 -50 -115q-32 -56 -64 -111q-16 -39 -16 -52t8 -21q7 -4 14 -4q15 0 30 12q40 75 100 203q75 155 99 204q16 33 16 44q0 9 -4 17z" />
    <glyph glyph-name="W" unicode="W" horiz-adv-x="1450" 
d="M1389 703q-14 -34 -76 -65t-77 -66q-42 -98 -84 -195q-50 -116 -91 -193q-3 -27 2 -46q4 -3 33 -20q21 -11 26 -26q7 -21 0 -24l-86 -34q-49 -22 -73 -54q-9 -9 -26 -14q-16 -4 -22 0q-36 26 -57 92q-26 86 -38 105q-20 32 -41 88q-27 74 -35 91q-7 11 -29 2
q-21 -28 -44 -87q-24 -62 -43 -88q-4 -9 -4 -15q0 -14 28.5 -21t32.5 -21q9 -31 9 -35q0 -16 -17 -20q-92 -6 -164 -86q-4 -7 -20 -9q-17 -3 -20 4q-11 22 -22 59q-12 45 -18 60q-29 74 -104 223q-74 145 -103 224q-7 10 -21 51q-13 34 -31 49l-62 16q-37 11 -46 42
q-2 40 27 44q29 1 86.5 -3.5t88.5 -3.5q20 -1 57 5.5t55 6.5q39 0 45.5 -12t2.5 -40q-6 -13 -36 -24q-25 -9 -28 -30q2 -52 21 -70q23 -54 80 -163q55 -105 80 -165q12 -11 20 -11q6 0 11 4q28 31 52 98q29 80 43 104q2 8 2 19q0 10 -2 19q-5 8 -41 95q-23 57 -60 83
q-27 11 -53 22q-32 15 -32 45q-1 4 -1 8q0 16 24 19q19 1 39 2q19 -1 67 -11q40 -9 66 -8q95 24 185 24q60 0 112 -11q14 -35 -7 -56q-14 -14 -52.5 -26.5t-53 -31t-26.5 -36.5q-14 -22 -14 -41q0 -9 3 -18q28 -41 60 -112q43 -94 54 -115q12 -41 41 -72q13 0 17 4
q46 96 129 291q3 12 19 48q13 30 13 50q0 12 -4 23q-22 19 -45 38q-26 23 -26 46q0 7 2 14q15 2 31 2q31 0 91.5 -13t92.5 -13t61 10q26 -6 26 -25zM792 675q-8 10 -33 2q-10 -9 -8 -33q2 -18 12 -22q13 -3 20 11q13 28 13 30q0 6 -4 12z" />
    <glyph glyph-name="X" unicode="X" horiz-adv-x="1030" 
d="M976 14q-23 -20 -52 -20q-21 0 -67 15.5t-70 15.5q-10 0 -20 -2q-28 -1 -88 -13.5t-89 -12.5q-37 0 -65 14q-16 20 -16 32q0 7 4 13q8 12 44 20q32 7 37 28q2 29 -26 59q-35 40 -41 53q-6 5 -24 38q-14 25 -33 25q-6 0 -12 -2q-13 -28 -80 -97q-55 -57 -61 -109
q-1 -13 0 -77q1 -47 -9 -75q-5 -10 -18 -10q-13 -1 -17 5q-58 66 -70 76q-44 38 -94 38q-21 -2 -52 28q-11 10 -11 28q0 22 18 25q15 -3 29 -3q54 0 119 48q81 61 107 71q82 71 99 126q-4 25 -30 54q-38 42 -42 48q-27 23 -59 80q-36 64 -55 85q-36 39 -90 42q-13 3 -27 6
t-18 15q-2 6 -2 11q0 18 33 37q8 1 16 1q17 0 43 -6q30 -6 43 -7q81 -6 126 2q10 2 47 14q30 10 48 10q30 0 47 -27q-2 -44 -25 -52q-18 -6 -22 -8q-11 -6 -16 -16q2 -42 40 -93q53 -70 61 -88q19 -14 30 1q25 34 78 91t76 89q10 14 10 37q0 21 -10 58q9 15 27 15q7 0 26 -4
q16 -4 23 -2q58 -71 142 -75q2 -2 17 -7q11 -4 14 -13q-3 -32 -29 -44q-16 -7 -58 -9.5t-58 -9.5q-49 -7 -98 -64q-66 -74 -84 -86q-26 -21 -27 -47q28 -100 147 -190q30 -57 50 -78q35 -38 83 -34q35 -3 47 -7q25 -9 34 -31q5 -7 5 -18q0 -10 -5 -17z" />
    <glyph glyph-name="Y" unicode="Y" horiz-adv-x="1090" 
d="M1030 665q-6 -17 -29 -30l-38 -22q-42 -32 -69 -88q-13 -28 -39 -105q-23 -68 -44 -102q-40 -48 -80 -157.5t-77 -156.5l-26 -60q-13 -36 -13 -63q0 -21 8 -41q1 -4 6 -23q4 -15 4 -24q0 -14 -8 -24q-68 -7 -90 -7q-55 0 -88 17q-15 1 -31 1q-33 0 -99.5 -7t-99.5 -7
q-27 0 -50 3q-87 20 -98 86q-3 15 -3 31q0 59 36 116q22 28 73 28q21 0 39 -6q24 -8 46 -34.5t22 -51.5t-22 -48q-6 -11 -14 -11q-4 0 -13.5 6.5t-14.5 7.5q-20 0 -28 -27q-7 -31 24 -42q93 -6 133 59q54 63 95 183q-15 39 -76 137q-27 81 -83 190q-47 92 -95 183
q-32 66 -117 78q-20 12 -22 38q12 25 36 25q12 0 39 -8t41 -8q8 0 15 2q54 -3 140 15q92 19 137 19q15 0 30 -1q42 -4 95 -63q16 -32 16 -62q0 -29 -15 -48q-23 -30 -64 -38q-29 -2 -57 30q-2 3 -2 6q0 4 7 8.5t8 6.5q12 32 -4 61q-12 23 -41 28q-49 0 -57 -36
q-7 -17 -7 -35q0 -27 18 -60l32 -54q34 -71 103 -210q9 -13 34 -4q39 62 88 171q62 137 82 176q-9 22 -48 96q-4 28 12 37q37 3 88 -11l84 -24q-14 1 86 1q50 0 82 -13q14 -14 3 -34zM846 580q10 15 10 30q0 18 -17 23q-17 0 -25 -8q-40 -40 -70 -114q-23 -66 -47 -131
q-51 -84 -115 -233q-76 -175 -109 -237q-16 -30 2 -46q5 -4 12 -4q11 0 26 12q15 28 129 272q9 18 97 223q56 133 107 213z" />
    <glyph glyph-name="Z" unicode="Z" horiz-adv-x="840" 
d="M804 715q1 -4 1 -9q0 -15 -23 -48q-161 -221 -368 -511q-5 -14 9 -38q19 -8 40 -8t51 8l51 12q42 17 72 66q24 44 48 89q31 51 76 70q4 -15 4 -32q0 -19 -7 -49q-10 -46 -11 -51q1 -20 10 -98q3 -10 24 -45q16 -26 14 -48q-51 -32 -130 -40q-69 -2 -138 -5
q-96 16 -166 16q-41 15 -93 15q-36 0 -99 -9q-70 -9 -97 -10q-33 -2 -33 14q0 5 6 12q17 23 53 65.5t125 172.5q78 114 134 171q6 11 65 84q47 59 47 84q0 23 -26 29q-114 0 -148 -69q-26 -38 -53 -77q-33 -43 -71 -63q-19 15 -21 66q1 10 7 46q4 28 4 45q0 31 -13 55
l-16 36q-11 23 -11 39q0 14 8 27q17 15 61 15q32 0 94.5 -19t94.5 -19q27 0 51 9q74 35 176 35q100 0 198 -33zM620 597q-48 6 -73 -25q-16 -38 -66.5 -100.5t-67.5 -103.5q-20 -32 -74 -92t-77 -98q-10 -27 -10 -33q0 -13 14 -18q41 -4 57 19q18 34 69 96q49 59 67 95
q76 119 159 216q16 28 2 44z" />
    <glyph glyph-name="bracketleft" unicode="[" horiz-adv-x="410" 
d="M361 -105q-120 -9 -239 -2q-6 -1 -11 -1q-28 0 -28 57q0 -10 2 68q0 196 2 504q1 26 -4 81t-5 77q0 71 36 71h247q1 -32 1 -35q-2 -19 -17 -24q-13 1 -38.5 -5.5t-35.5 -13.5q-18 -18 -21 -69q-1 -15 0 -76q6 -287 -3 -485q4 -25 7 -49q7 -26 28 -32q38 -2 73 -12
q7 -4 9 -29q3 -25 -3 -25z" />
    <glyph glyph-name="backslash" unicode="\" horiz-adv-x="350" 
d="M342 -237q0 -5 -17.5 -11t-30.5 -6q-8 0 -9 3q-143 481 -294 966q1 19 22 28q16 7 30 5q7 -5 153 -480q147 -478 146 -505z" />
    <glyph glyph-name="bracketright" unicode="]" horiz-adv-x="410" 
d="M327 17q2 -78 2 -68q0 -57 -28 -57q-5 0 -11 1q-119 -7 -239 2q-6 0 -3 25q2 25 9 29q35 10 73 12q21 6 28 32q3 24 7 49q-9 198 -3 485q1 61 0 76q-3 51 -21 69q-10 7 -35.5 13.5t-38.5 5.5q-15 5 -17 24q0 3 1 35h247q36 0 36 -71q0 -22 -5 -77t-4 -81q-1 -188 2 -504z
" />
    <glyph glyph-name="asciicircum" unicode="^" horiz-adv-x="550" 
d="M496 442h-97l-132 184l-127 -184h-97l189 266h75z" />
    <glyph glyph-name="underscore" unicode="_" horiz-adv-x="500" 
d="M500 -131h-500v56h500v-56z" />
    <glyph glyph-name="grave" unicode="`" 
d="M294 485h-43q-8 0 -16 8q-77 75 -94 99q-9 13 3 13h75q5 0 12 -9q49 -64 63 -97q6 -14 0 -14z" />
    <glyph glyph-name="a" unicode="a" horiz-adv-x="570" 
d="M518 115q5 -29 5 -37q0 -25 -19 -32q-33 -20 -102 -56q-48 7 -56 37v25q0 14 -13 19q-85 -48 -90 -51q-52 -25 -96 -25q-13 0 -25 2q-78 12 -86 52q-4 19 -4 37q0 87 73 128q20 14 72 31q47 17 68 34q30 18 72 29q16 15 9 53q-14 29 -46 33q-39 5 -76 -18l-36 -62
q-21 -33 -56 -38q-20 -3 -38 30q-4 10 -4 22q0 29 24 60q49 53 151 53q33 0 94 -7q30 -13 59 -26q33 -18 42 -47q7 -25 9 -68q3 -50 6 -67q-4 -77 3 -118q7 -10 15 -10q6 0 21 9.5t24 7.5zM331 249q-28 0 -61 -19q-22 -17 -51 -28.5t-53 -31.5q-13 -21 -13 -45q0 -37 30 -53
q31 -4 67 17q29 18 59 36q27 12 27 57q0 13 -2.5 36t-2.5 31z" />
    <glyph glyph-name="b" unicode="b" horiz-adv-x="600" 
d="M548 149q-14 -65 -79 -103q-15 -10 -120 -53q-35 -6 -66 -6q-113 0 -157 76q-23 32 -23 78q0 16 3 47.5t3 47.5q0 19 -5 57.5t-5 57.5q0 24 3 79q3 49 2 76q2 0 0 32q-3 33 -7 46q-5 6 -12 6t-21.5 -9t-20.5 -9q-11 0 -15 25q-1 8 -1 15q0 34 26 53q15 11 57 27t58 30
q36 0 49 -42q0 -28 -3 -84q-3 -59 -3 -87q0 -56 9 -97q10 -4 21 -4q15 0 42 11t40 13q30 4 53 4q75 0 117 -39q64 -58 64 -169q0 -39 -9 -79zM440 227q-14 61 -99 121q-13 3 -26 3q-23 0 -54 -13q-43 -24 -45 -109q4 -51 9 -102q11 -55 55 -73q16 -7 35 -7q35 0 59 20
q70 58 70 129q0 16 -4 31z" />
    <glyph glyph-name="c" unicode="c" horiz-adv-x="490" 
d="M440 136q5 -40 -14 -76q-55 -73 -174 -73q-36 0 -73 8q-53 11 -96 47t-57 85q-5 33 -5 62q0 87 43 143q61 97 195 104q51 -5 103 -10q60 -10 67 -62q3 -7 3 -13q0 -14 -14 -26.5t-27 -22.5q-11 -3 -20 -3q-27 0 -65 37t-66 37q-8 0 -17 -2q-35 -14 -46 -22
q-26 -17 -29 -42q-8 -21 -8 -44q0 -55 45 -120q11 -16 33 -31q19 -11 38 -23q14 -3 28 -3q47 0 143 50h13z" />
    <glyph glyph-name="d" unicode="d" horiz-adv-x="580" 
d="M542 106q2 -44 -2 -67q-28 -19 -74 -35q-38 -11 -77 -23q-16 -5 -26 17q-3 4 -3 12q0 4 1 12t1 12q0 12 -8 12q-5 0 -13 -4q-66 -59 -125 -59q-8 0 -17 1q-104 0 -163 125q-10 51 -10 99q0 147 92 194q67 34 95 34q15 0 30 -5q20 -1 52 -24t50 -23q5 0 11 1q0 1 3 5.5
t2 6.5q-13 126 -3 190q-8 18 -36 9q-27 -15 -30 -15q-7 0 -13 6.5t-4 21.5l4 24q65 47 150 83q20 -3 27 -6q16 -6 21 -18q-5 -56 -5 -121q0 -101 11 -207q-8 -49 -7 -129q2 -103 0 -130q6 -11 17 -11q7 0 24 6.5t25 5.5zM349 131q7 49 7 82q0 71 -32 105q-56 58 -109 49
q-45 0 -76 -44q-14 -33 -14 -69q0 -80 63 -151q32 -24 73 -24q19 0 36 6q37 12 52 46z" />
    <glyph glyph-name="e" unicode="e" horiz-adv-x="490" 
d="M428 140q5 -10 5 -22q0 -19 -30 -69q-44 -48 -113 -61q-17 -1 -33 -1q-102 0 -177 51q-60 71 -60 158q0 23 5 47q18 88 130 165q63 29 129 29q63 0 125 -27q16 -25 16 -45q0 -10 -3 -18q-10 -25 -48 -53q-41 -31 -54 -51q-47 -52 -117 -98q-9 -27 6 -34q59 -30 92 -30
q15 0 30 5q30 21 97 54zM295 319q-4 33 -25 44q-11 13 -32 13q-16 0 -40 -8q-59 -26 -59 -109q0 -24 5 -57q7 -22 14 -22q3 0 6 2q12 14 74 64q45 36 57 73z" />
    <glyph glyph-name="f" unicode="f" horiz-adv-x="440" 
d="M405 653q-9 -31 -28 -36q-8 -2 -15 -2q-20 0 -52 20.5t-48 20.5t-33 -14q-17 -40 -17 -101q0 -25 3 -64q3 -48 4 -61q2 -4 10 -9q79 7 119 0q11 -22 -5 -42q-9 -2 -19 -2t-29.5 2.5t-28.5 2.5q-26 0 -42 -14q-1 -18 -1 -39q0 -19 1.5 -56.5t1.5 -55.5q0 -37 -5 -65
q2 -64 48 -78q42 2 59 -33q0 -25 -17 -31q-27 -3 -75 5q-53 8 -73 8q-24 0 -42 -6q-30 -10 -51 -10q-19 0 -33 8q-5 3 -12 23q0 23 36 32.5t38 34.5q13 42 13 96q0 31 -5 86q-5 60 -6 85q-9 11 -48 12q-34 1 -34 15q0 10 10 27q5 1 10 1q7 0 22.5 -2.5t22.5 -2.5q15 0 24 8
q0 9 -1 37q-1 24 -1 38q0 92 38 136q25 38 67.5 66t87.5 33q10 -1 29.5 2t27.5 3q23 0 39 -16q23 -16 10 -62z" />
    <glyph glyph-name="g" unicode="g" horiz-adv-x="540" 
d="M474 408q-15 -83 -13 -216q3 -181 1 -217q-35 -120 -139 -177q-53 -29 -166 -37q-36 4 -72 9q-42 8 -52 42q-3 8 -3 17q0 21 20 50q10 15 32 15q10 0 28 -4t24 -4q23 -2 48 -30t45 -28q7 0 15 2q65 19 91 65q15 38 15 87q0 25 -4 49q-21 -11 -63 -31q-32 -18 -69 -18
q-59 0 -133 46q-56 46 -56 152q0 25 3 58q7 79 118 160q16 12 47 15q26 2 52 3q25 2 71 -15.5t66 -17.5q25 0 44 17q9 6 17 12q12 7 19 7q9 0 14 -11zM343 116q9 44 9 83q0 113 -68 160q-35 16 -88 5q-21 -7 -37 -30t-21 -48.5t-5 -51.5q0 -69 35 -112q45 -55 101 -55
q10 0 21 2q38 7 53 47z" />
    <glyph glyph-name="h" unicode="h" horiz-adv-x="620" 
d="M577 57q-40 -47 -132 -76q-48 0 -48 38q6 28 6 62q0 27 -5.5 83t-5.5 85q0 32 5 59q-4 10 -19 26q-37 -2 -80 -31q-36 -24 -72 -49q-10 -18 -10 -42q0 -11 3 -35t3 -37q0 -10 -2 -19t-2 -17q0 -20 28 -39t29 -39q1 -31 -15 -29q-20 -1 -54 4q-37 4 -53 4q-27 0 -49 -8
q-5 0 -17.5 -2.5t-18.5 -2.5q-17 0 -23 14q-3 24 28.5 54.5t31.5 53.5q0 5 -1 11q3 21 3 46q0 34 -7 91q-9 70 -10 87q8 32 8 76q0 18 -1.5 54t-1.5 54q0 24 2 44q-6 19 -42 8q-14 -8 -22 -8q-5 12 -5 27q0 56 47 65q14 4 52 29q32 21 55 21q10 0 19 -3q21 -24 21 -62
q0 -17 -6 -53t-6 -52t4 -28q-1 -5 -1 -12q0 -12 6.5 -44t5.5 -48q1 -10 -4.5 -33t-5.5 -33q0 -21 18 -30q51 33 101 66q63 37 114 37q14 0 29 -3q26 -10 29 -30q0 -48 6.5 -145.5t5.5 -147.5q10 -17 40 -3q8 7 19 5q9 -15 0 -43z" />
    <glyph glyph-name="i" unicode="i" horiz-adv-x="330" 
d="M203 593q-9 -32 -47 -48l-62 -26q-4 -2 -7 -2q-6 0 -10.5 9.5t-6.5 11.5q-10 64 18 95q40 31 44 34q28 17 53 12q22 -27 18 -86zM258 -5l-102 4q-59 2 -103 -6q-17 5 -22 27q-1 21 24 35q28 18 33 28q4 28 3 92q-1 59 5 91q-3 7 -7 14t-10 8q-10 3 -26 -5q-19 -8 -24 -8
q-8 0 -14 10q-4 53 28 74q24 15 71 32q51 19 71 30q26 -1 24 -49q-11 -57 -11 -129q0 -49 7 -147q4 -19 38 -37t34 -32q0 -13 -19 -32z" />
    <glyph glyph-name="j" unicode="j" horiz-adv-x="340" 
d="M249 661q-2 -32 -3 -64q-6 -38 -38 -47q-7 -2 -36 -16q-24 -11 -36 -11q-11 0 -19 7q-1 -5 -1 49q-1 31 12 46q38 29 48 35q27 17 53 17q6 0 13 -1q3 -5 7 -15zM248 366q-8 -43 -8 -99q0 -38 5 -114.5t5 -113.5q0 -67 -11 -115q-70 -163 -180 -165q-5 -1 -10 -1
q-9 0 -46 18q-6 9 -6 20q0 20 27 54q11 15 26 15q11 0 32 -11.5t30 -11.5q15 0 26 21q-14 143 -5 323q-5 6 -5 22q0 7 1.5 23t1.5 23q0 28 -17 28q-8 0 -20 -5q-19 -6 -36 7q-9 40 16 67q26 15 164 68q9 -7 8 -25q-1 -22 2 -28z" />
    <glyph glyph-name="k" unicode="k" horiz-adv-x="650" 
d="M619 9q-19 -16 -49 -16q-9 0 -26.5 1.5t-26.5 1.5q-11 0 -19 -2q-7 2 -56 1q-33 -1 -49 22q-3 30 -18 87q-10 12 -35 56q-20 37 -40 52q-20 -4 -38 -29q-24 -32 -30 -36q-1 -8 -6.5 -24t-5.5 -25q0 -10 6 -20q22 -13 45.5 -27.5t18.5 -39.5q-21 -16 -51 -16q-13 0 -40 4
t-41 4q-11 0 -20 -1t-29.5 -5t-30.5 -4q-24 0 -33 19q-1 6 -1 11q0 21 26.5 41.5t30.5 39.5q1 88 -1 262q-7 25 -7 53q0 20 5 59t5 60q0 19 -3 36q-11 10 -35.5 3t-33.5 10q-1 7 -1 12q0 25 21 41q13 10 45.5 23t43.5 22q26 21 55 10q28 -22 28 -66q0 -14 -6 -56
q-4 -36 -2 -56q0 -29 3 -82q3 -56 3 -81q0 -52 -9 -93q2 -9 4 -19t11 -12q45 39 87 137q45 106 80 145q51 40 101 36q59 -5 84 -69q2 -9 2 -18q0 -42 -26 -64q-40 -14 -39 -14q-9 0 -16 6q0 14 -25 24q-28 4 -52 -20q-17 -24 -35 -47q-6 -8 -6 -15t11.5 -18t11.5 -20
q20 -28 65 -102q39 -66 67 -101q33 -27 76 -43q11 -7 6 -38z" />
    <glyph glyph-name="l" unicode="l" horiz-adv-x="330" 
d="M275 34q-3 -23 -3 -25q-4 -14 -14 -19q-20 2 -42 2q-18 0 -51 -1.5t-50 -1.5q-41 0 -75 8q-21 17 -7 40q73 55 65 131q1 43 -3 112q-5 78 -5 109q0 51 7 96q-1 4 -4 49q-1 30 -20 41q-28 -11 -37 -11t-15 4q-12 20 -3 52q21 25 67 44q41 16 82 31q24 0 36 -24
q0 -2 -1 -224q-1 -132 4 -223q-8 -37 -8 -68q0 -50 21 -82q5 -6 32 -15q21 -7 24 -25z" />
    <glyph glyph-name="m" unicode="m" horiz-adv-x="940" 
d="M896 100q13 -26 -2 -50q-25 -16 -67 -35q-57 -27 -68 -33q-40 0 -48 25.5t-8 57.5q0 17 3 51t3 51q0 22 -4 41q-6 12 -6 30q0 9 1.5 25.5t1.5 24.5q0 35 -28 44q-30 -2 -68 -22l-65 -34q-18 -21 -18 -60q0 -8 2 -38q2 -22 0 -35q4 -33 7 -43q8 -24 29 -32q12 -8 25 -16
q15 -11 16 -25q3 -26 -24 -26q-35 -4 -94 -2q-73 2 -94 1q-21 7 -17 34q2 16 22 47q18 28 16 50q-2 8 -10 89q0 8 2.5 28.5t2.5 31.5q0 33 -19 51q-31 -4 -73 -21q-36 -15 -71 -30q-14 -14 -13 -21q0 -121 8 -171q1 -1 36 -22q22 -13 25 -33q3 -23 -17 -36q-20 -1 -52 2
q-36 3 -49 3q-28 0 -50 -7q-5 -1 -10 -1q-31 0 -38 24q-3 18 13 39q21 28 24 37q2 26 -3 69q-6 49 -6 68q0 22 4 41q-2 8 -4.5 17.5t-12.5 9.5q-6 -1 -18 -6t-18 -5q-7 0 -13 5q-13 20 1 61q32 32 137 67q25 2 35 -21q4 -6 4 -17q0 -4 -1 -11v-11q0 -20 14 -23l108 56
q64 30 118 32q25 -6 32 -9q18 -9 23 -25q2 -3 4 -35q1 -22 23 -20l98 56q61 31 109 31q22 0 44 -6q33 -23 33 -79q0 -17 -3.5 -52.5t-3.5 -51.5q0 -48 8 -140q6 -4 13 -4t20.5 5.5t20.5 5.5q5 0 10 -2z" />
    <glyph glyph-name="n" unicode="n" horiz-adv-x="620" 
d="M581 89q1 -8 -2 -20q-3 -15 -3 -18q-67 -35 -142 -64q-19 0 -42 15q-6 28 -6 67q0 12 1 37.5t1 38.5q0 44 -8 76q-1 13 2.5 38.5t3.5 36.5q0 34 -24 49q-24 3 -53 -15q-24 -16 -48 -33q-57 -17 -57 -95q0 -18 4 -62q4 -38 2 -55q14 -13 28 -27q16 -18 16 -35q0 -8 -3 -16
q-31 -7 -95 -2.5t-97 -3.5q-19 8 -20 24q-1 21 20 38q29 23 34 33q-1 26 1 113q2 71 -4 113q-4 3 -10 3t-18.5 -4.5t-17.5 -4.5q-10 0 -15 11q-1 7 -1 13q0 27 22 43q11 9 45 22t46 24q38 10 49 1q12 -7 12 -40v-11.5v-10.5q0 -33 14 -33q11 0 31 15q26 19 80 42
q58 25 81 39q10 4 21 4q19 0 55 -16q27 -26 27 -73q0 -16 -4 -50.5t-4 -52.5q0 -15 2 -28q-3 -19 3 -55q7 -39 6 -55q8 -11 22 -11q4 0 13.5 1.5t13.5 1.5q12 0 18 -8z" />
    <glyph glyph-name="o" unicode="o" horiz-adv-x="530" 
d="M477 244q-8 -178 -107 -226q-73 -35 -122 -35q-31 0 -59 12q-116 52 -138 125q-9 25 -18 51q-11 31 -11 51q0 27 16 48q49 107 107.5 136t111.5 29q39 0 69 -17q108 -27 151 -174zM346 150l-6 122q-7 70 -54 102q-11 4 -26 4q-31 0 -61 -14q-29 -22 -36 -70
q-4 -42 -7 -84q3 -38 7 -77q6 -44 28 -68q30 -26 65 -26q12 0 22 4q64 27 68 107z" />
    <glyph glyph-name="p" unicode="p" horiz-adv-x="590" 
d="M542 266q4 -144 -44 -204q-63 -78 -183 -78q-27 0 -54 5q-19 3 -32 -23q-15 -30 -15 -67q0 -46 23 -72q19 -5 40.5 -10.5t21.5 -27.5q1 -24 -14 -28q-188 3 -212 2q-10 4 -10 13q0 6 4 15.5t4 11.5q26 18 44 64q0 54 -5 182q-4 116 -3 179q-4 2 -7 2q-9 0 -23.5 -14
t-24.5 -16q-25 2 -26 24q-1 35 32 63q54 46 55 47q1 21 -2 57q-4 41 -4 56q0 28 7 49q9 4 49 31q29 20 52 23l7 -7q-2 -40 1 -121q8 -6 17 -6q10 0 29.5 9.5t27.5 10.5q50 -6 99 -11q57 -11 84 -45q37 -32 62 -114zM445 173q-5 24 -22 69q-32 73 -116 85q-62 0 -79 -17
q3 -29 -3 -75q-5 -54 -5 -70q0 -61 38 -97q21 -20 88 -22q78 22 93 97v16q0 7 6 14z" />
    <glyph glyph-name="q" unicode="q" horiz-adv-x="580" 
d="M548 -225q-3 -2 -8.5 -6t-8.5 -6q-35 3 -105 0q-76 -2 -107 -1q-15 7 -15 27q0 9 5 15q3 11 27 19t30 21q6 -8 9 4q-8 33 -6 91q2 66 -1 92q-4 1 -9 1q-12 0 -30 -15.5t-30 -18.5q-13 -6 -35 -9q-18 -3 -37 -6q-74 15 -109 32q-57 26 -79 77q-13 39 -13 81q0 97 64 201
q5 8 16 19q30 14 61 28q37 16 67 16q17 0 34 -5q66 -20 106 -46q20 1 50.5 22.5t50.5 21.5q6 0 12 -1q2 -34 -9 -110q4 -43 3 -116q-3 -85 -1 -119q7 -48 7 -118v-117q21 -12 42 -25t21 -33q0 -7 -2 -16zM356 110q8 37 8 84q0 51 -9 101q-28 71 -110 85q-50 -10 -80 -33
q-42 -32 -42 -93q0 -26 8 -53q40 -129 127 -135q10 -4 20 -4q25 0 78 48z" />
    <glyph glyph-name="r" unicode="r" horiz-adv-x="490" 
d="M444 323q-13 -32 -33 -34q-9 -3 -19 -3q-19 0 -49.5 15.5t-46.5 15.5q-11 0 -21 -4q-20 -14 -40 -29q-25 -19 -26 -43q1 -15 -2.5 -44.5t-3.5 -42.5q0 -45 31 -65q1 0 50 -9q29 -6 45 -22q1 -6 1 -12q0 -29 -23 -37q-13 -5 -29 -5q-12 0 -37 4t-38 4q-12 0 -22 -1t-39 -4
t-46 -3q-36 0 -59 12q-10 9 -10 25q0 13 7 20q46 17 53.5 43t7.5 54q0 13 -2.5 38.5t-2.5 38.5q0 26 7 48q-2 26 -18 33q-5 -1 -19.5 -5.5t-22.5 -4.5q-10 0 -16 8q0 15 1 29.5t9 25.5q47 23 141 66q20 2 27 -19q3 -8 4 -39q1 -24 15 -34q16 8 59 44q35 29 64 37q5 0 25 3
q16 2 25 2q28 0 44 -17t16 -40q0 -1 -7 -49z" />
    <glyph glyph-name="s" unicode="s" horiz-adv-x="520" 
d="M462 126q-21 -72 -66 -91q-97 -42 -199 -42q-69 0 -124 21q-16 15 -31.5 31t-19.5 34l2 38t15 30q11 18 34 18q17 0 40 -10q20 -8 62 -53q34 -37 69 -37q12 0 25 3q19 6 39 13t24 25q2 5 2 10q0 18 -31 40q-67 28 -135 56q-77 40 -78 111q9 83 136 115q43 11 82 11
q64 0 106 -29q19 -20 19 -46q0 -11 -3 -20q-1 -18 -38 -34q-32 -4 -73.5 27t-63.5 31q-21 0 -44 -18q-13 -10 -14 -27q29 -34 109 -55q85 -22 113 -49q48 -47 43 -103z" />
    <glyph glyph-name="t" unicode="t" horiz-adv-x="410" 
d="M369 403q4 -33 -18 -37q-11 -4 -23 -4q-14 0 -41 8t-40 8q-11 0 -20 -3q-3 -6 -12 -19q4 -29 1 -131q-2 -80 16 -129q26 -30 51 -29q17 -2 41.5 10.5t34.5 12.5q4 -25 -14 -48l-36 -36q-30 -12 -68 -12q-52 0 -93 21q-56 38 -56 124q0 19 4 68q3 44 2 67q0 8 1.5 26.5
t1.5 27.5q0 33 -19 45q-8 1 -22 -2q-17 -4 -22 -4q-12 0 -20 9q1 20 2 22q2 11 12 14q65 0 43 -1q24 1 30 17q1 6 1 13q0 20 -12 54t-12 40q0 5 4 7q72 33 126 82q2 1 4.5 -0.5t4.5 -1.5q7 -20 7 -43q0 -20 -8 -60t-8 -61q0 -16 3 -31q19 -14 46 -14q28 0 61 14q27 -3 29 -4
q16 -5 18 -20z" />
    <glyph glyph-name="u" unicode="u" horiz-adv-x="620" 
d="M589 38q-1 -10 -11 -14t-20 -7t-75 -7q-47 -3 -74 -16q-23 -2 -23 19q-1 8 2 20t3 17q0 7 -4 13q-47 -25 -95 -50q-57 -27 -100 -27q-31 0 -59 12q-21 12 -27 40q-5 24 -9 48q11 114 4 214q-7 8 -15 8q-7 0 -21 -8t-20 -8q-9 0 -16 10q-1 7 -1 14q0 32 25 54
q16 14 56.5 32t54.5 29q29 4 48 -23q4 -5 9 -22q0 -9 -3 -139q-2 -81 5 -137q17 -33 43 -33q65 6 116 39q20 23 20 59q0 17 -5.5 52t-5.5 53q0 13 2 24q-5 7 -13 7q-6 0 -19.5 -8t-19.5 -9q-10 -1 -14 19q-2 9 -2 17q0 31 37 50q56 29 60 33q28 9 52 9q19 0 33 -6
q11 -17 11 -39q0 -10 -3 -32t-3 -34q0 -13 3.5 -38.5t3.5 -38.5q0 -15 -3 -61q-2 -40 -1 -64q6 -30 36 -36q39 3 39 -25q0 -5 -1 -10z" />
    <glyph glyph-name="v" unicode="v" horiz-adv-x="630" 
d="M596 376q-12 -14 -45 -38.5t-48 -41.5q-11 -25 -65 -95q-43 -56 -50 -99q2 -4 18 -23q11 -13 11 -23q0 -5 -2 -9q-37 -29 -54 -41q-32 -22 -58 -35q-32 7 -45 44q-10 30 -20 61q-27 34 -61 112q-33 75 -62 110q-8 10 -51 20q-35 8 -35 28q0 7 3 16q17 11 52 29
q13 3 48 21q30 16 49 16q13 0 25 -6q9 -12 15 -36q7 -28 12 -38q29 -62 95 -182q4 -3 14 2q62 79 80 153q-3 11 -22 40q-16 24 -17 43q16 8 35 8q11 0 45 -5q29 -5 47 -2q10 1 29.5 7t29.5 6q12 0 22 -6q12 -15 5 -36z" />
    <glyph glyph-name="w" unicode="w" horiz-adv-x="840" 
d="M801 384q-2 -10 0 -25q2 -20 2 -23q0 -15 -9 -26q-40 4 -52 -21q-2 -13 -2 -27q0 -22 8 -64.5t8 -63.5q0 -33 -14 -60q-38 -73 -118 -85q-94 -2 -127 5q-26 16 -79 47q-19 1 -44 -20q-30 -25 -42 -29q-49 -10 -90 -10q-103 0 -145 61q-42 43 -42 111q0 32 10 61
q5 19 31.5 50.5t31.5 51.5q-2 23 -27 21q-32 -11 -54 2q-9 10 -9 25q0 33 25 42q100 -9 162 7q8 -3 16 -7t10 -12q1 -34 -26 -92t-25 -93q5 -108 59 -136q13 -5 28 -5q37 0 69 25q26 47 26 114q0 41 -11 105q-2 3 -27 34q-17 21 -17 37q0 8 3 15q26 14 81 5.5t83 3.5
q14 8 26 8q13 0 26 -8q3 -9 3 -19q0 -20 -15 -48q-13 -22 -26 -45q-8 -48 -8 -89q0 -65 20 -109q30 -35 69 -35q10 0 19 3q47 4 67 40q15 28 15 59q0 29 -19 87.5t-19 89.5q0 24 8 46q18 26 62 26q-12 0 50 -4q26 -6 29 -26z" />
    <glyph glyph-name="x" unicode="x" horiz-adv-x="640" 
d="M606 39q2 -14 -9 -25t-23 -13q-29 8 -66 8q-30 0 -124 -13q-17 -2 -24 16q-4 15 -9 31l-20 48q-13 28 -31 43q-14 -7 -52 -50q-10 -12 -12 -71q-1 -48 -30 -48q-10 0 -22 4q-24 22 -68 28q-39 5 -77 10q-15 8 -5 44q11 10 40 13t39 10q51 15 128 86q13 20 13 39
q-22 16 -61 77q-35 55 -70 74q-7 6 -43 11q-27 4 -29 25q-5 21 26 34q21 0 68 -7.5t71 -7.5q39 0 66 15q9 -3 18 -6.5t11 -10.5q-6 -16 -6 -32q0 -28 34 -90q22 -1 43 26q16 22 33 44q4 24 7 47q4 27 19 41q6 1 11 1q16 0 33 -17q21 -20 32 -24q5 -4 43 -12q26 -7 31 -28
q-8 -26 -41 -32q-46 -9 -54 -14q-67 -43 -93 -79q-3 -4 0 -22q11 -12 49 -67q29 -42 58 -58q8 -5 57 -14q35 -7 39 -34z" />
    <glyph glyph-name="y" unicode="y" horiz-adv-x="580" 
d="M537 405q1 -5 1 -10q0 -22 -34 -49.5t-34 -51.5q-1 -42 5 -121q7 -85 7 -123q0 -111 -40 -182q-44 -49 -107.5 -77.5t-128.5 -27.5q-120 2 -157 57q-2 6 -2 12q0 23 26 47q18 8 41 8q34 0 70 -15q2 -2 19 -23q12 -15 24 -17q65 2 107 42q36 47 36 114q0 24 -5 48
q-4 7 -10 7q-5 0 -19 -7q-45 -48 -122 -48q-35 0 -78 10q-53 3 -95 83q-9 30 -9 61q0 98 81 168q3 9 2 22q-8 8 -26 8h-12q-9 -1 -13 -1q-25 0 -32 20q-6 10 -6 23q0 26 18 34q52 -6 151 -2q16 -14 16 -41q0 -11 -3.5 -33.5t-3.5 -31.5q-12 -33 -24 -67q-14 -40 -14 -69
q0 -30 14 -55q22 -41 64 -59q7 -1 14 -1q34 0 67 28q30 35 37 98q2 12 3 108q-4 18 -29 59q-24 38 -24 50q0 6 5 10q14 6 31 6q13 0 47 -7q31 -6 49 -4q9 1 33 8q20 5 31 5q18 0 29 -13z" />
    <glyph glyph-name="z" unicode="z" horiz-adv-x="540" 
d="M477 4q-22 -8 -48 -8q-13 0 -61 6q-37 4 -62 0q-37 -6 -124 -2q-79 4 -123 -6q-20 1 -21 2q-10 2 -15 11q10 38 56 84q52 53 65 80q21 32 66 79q50 50 70 78q2 10 -4 17.5t-14 5.5q-11 2 -22 2q-49 0 -92 -46q-34 -44 -67 -87q-5 -5 -9 -5q-9 0 -13 17q-7 32 2 114
q-9 47 -4 68q12 10 28 10q12 0 37 -7t39 -7q6 0 12 1q14 1 53 6q36 5 57 5q29 0 52 -8q20 -2 54 6.5t49 8.5q14 0 26 -4q10 -18 -4 -49q-125 -177 -234 -287q-4 -13 0 -19q18 -6 37 -6q36 0 66.5 20t65.5 64q43 55 59 70q12 1 13.5 -12t2.5 -24q-7 -25 -6 -60v-58
q14 -39 14 -48q0 -6 -1 -12z" />
    <glyph glyph-name="braceleft" unicode="{" 
d="M400 -105q-74 -6 -179 -2q-39 1 -68.5 35.5t-28.5 88.5q2 63 -1 244q-10 13 -50 39q-34 21 -34 32q0 15 36 36q40 24 51 52v101q0 229 84 229h190q1 -32 1 -35q-2 -19 -17 -24q-13 1 -38.5 -5.5t-35.5 -13.5q-24 -24 -21 -145q1 -22 -1 -59q-1 -44 -1 -62
q-10 -21 -50 -44q-36 -21 -36 -30q0 -11 37 -32q43 -25 53 -39q-1 -91 -5 -219q4 -25 7 -49q7 -26 28 -32q38 -2 73 -12q7 -4 9 -29q3 -25 -3 -25z" />
    <glyph glyph-name="bar" unicode="|" horiz-adv-x="200" 
d="M138 -89h-75v838h75v-838z" />
    <glyph glyph-name="braceright" unicode="}" 
d="M412 332q0 -11 -34 -32q-40 -26 -50 -39q-3 -181 -1 -244q1 -54 -28.5 -88.5t-68.5 -35.5q-105 -4 -179 2q-6 0 -3 25q2 25 9 29q35 10 73 12q21 6 28 32q3 24 7 49q-1 82 -5 219q10 14 53 39q37 21 37 32q0 9 -36 30q-40 23 -50 44q0 18 -1 62q-2 37 -1 59
q3 121 -21 145q-10 7 -35.5 13.5t-38.5 5.5q-15 5 -17 24q0 3 1 35h190q84 0 84 -229v-101q11 -28 51 -52q36 -21 36 -36z" />
    <glyph glyph-name="asciitilde" unicode="~" 
d="M382 298q-3 -34 -28.5 -61t-60.5 -37q-9 -4 -20 -4q-18 0 -53.5 18.5t-51.5 18.5q-8 0 -15 -3q-9 -12 -27.5 -21.5t-31.5 -9.5q-10 0 -22 9t-8 15q8 27 29 55q26 34 55 45q14 6 29 6q22 0 62.5 -19.5t62.5 -21.5q8 2 21 15.5t24 13.5q4 0 9 -2q10 2 18.5 -2.5t7.5 -14.5z
" />
    <glyph glyph-name="nonbreakingspace" unicode="&#xa0;" horiz-adv-x="350" 
 />
    <glyph glyph-name="exclamdown" unicode="&#xa1;" horiz-adv-x="470" 
d="M274 589q-16 -12 -41 -12q-32 0 -58 16q-21 19 -21 51q0 21 12 59q5 11 21 29q13 6 38 6q39 0 55 -8q27 -19 27 -71q0 -15 -2 -28t-31 -42zM437 89q-3 -26 -25 -40t-46 -25t-80 -11q-46 0 -116 7q-25 -6 -49 -13q-41 -10 -64 -10q-36 0 -36 25q0 29 28 50q42 32 45 36
q10 9 13 40q5 42 7 49l18 78q11 47 11 80q0 20 -4 38q-5 11 -5 21q0 21 23 46q33 36 35 39q27 29 48 25q21 1 26 -40q12 -15 20 -46q11 -37 17 -49q2 -22 -1 -60q-3 -46 -3 -60q0 -43 13 -74q-3 -31 11 -55q13 -10 62 -19q41 -8 52 -32z" />
    <glyph glyph-name="cent" unicode="&#xa2;" horiz-adv-x="500" 
d="M456 256q5 -40 -14 -76q-46 -62 -139 -72v-101q0 -11 -29 -11t-29 11v100q-21 2 -50 8q-52 10 -95.5 46.5t-57.5 85.5q-5 33 -5 62q0 87 43 143q52 83 165 101v82q0 13 28 13q30 0 30 -14v-82q83 -7 89 -9q47 -13 53 -59q3 -7 3 -13q0 -14 -14 -26.5t-27 -22.5
q-11 -3 -20 -3q-27 0 -65 37t-66 37q-8 0 -17 -2q-35 -14 -46 -22q-26 -17 -29 -42q-8 -21 -8 -44q0 -55 45 -120q11 -16 33 -31q19 -11 38 -23q14 -3 28 -3q47 0 143 50h13z" />
    <glyph glyph-name="sterling" unicode="&#xa3;" horiz-adv-x="690" 
d="M639 222q3 -19 -16 -89q-21 -75 -38 -92q-28 -56 -112 -56q-1 0 -89 7q-17 1 -54 17t-43 24q-8 3 -16 3q-16 0 -41.5 -21t-44.5 -21q-24 -10 -49 -10q-44 0 -77 29q-14 22 -14 48q0 33 21 71q9 16 34 27q20 7 41 14q44 -2 56 4q17 9 14 36q-1 1 -10 22q-5 13 -18 13
t-34 3t-31 3q-14 0 -28 -4q-33 14 -55 56q-6 19 41 19q14 0 65 -5q26 1 26 20q0 4 -1 9q-20 64 -13 125q10 30 40.5 77t44.5 55q25 16 89.5 29.5t99.5 9.5q6 -4 23.5 -6t23.5 -5q35 -18 70 -35q40 -25 52 -63q16 -31 16 -63q0 -36 -21 -63q-33 -29 -51 -29q-17 1 -34 3
q-22 2 -29 18q-4 7 0 15l5 15q44 16 51 77q-3 15 -7 31t-13 26q-35 24 -75 24q-30 0 -64 -13q-12 1 -36.5 -30.5t-32.5 -49.5q-2 -15 -2 -31q0 -49 28 -133q9 -11 26 -11q5 0 22 2q13 2 21 0h30q19 -1 28 -12q19 -23 6 -51q-19 -12 -66 -14q-26 -1 -52 -1q-13 1 -14 -13
q-1 -18 -3 -20q-2 -6 -10 -20.5t-8 -23.5t7 -19q3 -1 22 -13q16 -10 19 -8q45 -16 136 -12q44 16 92 72q7 31 35 47q9 1 17 -14zM186 84q-2 15 -16.5 18t-28.5 6q-31 -23 -26 -50q13 -17 55 -8q17 25 16 34z" />
    <glyph glyph-name="yen" unicode="&#xa5;" horiz-adv-x="810" 
d="M750 617q-4 -13 -20 -22q-27 -15 -28 -15q-41 -32 -67 -102q-35 -98 -44 -113q-6 -11 -14 -30h17q45 9 74 -7q6 -3 6 -31q0 -37 -10 -37h-73q-38 -1 -49 -1q-12 -24 -26 -47q56 2 78 -3q45 9 74 -7q6 -3 6 -31q0 -37 -10 -37q-109 0 -159 -1q0 -75 18 -120
q0 -3 3.5 -16.5t3.5 -20.5q0 -12 -6 -19q-88 -10 -128 11q-32 2 -64 -5q-35 -8 -52 -8q-14 0 -29 2q-22 3 -22 20q0 10 9 16.5t24 3.5q26 -1 35 7q5 3 22 29q11 17 11 41q0 5 -8 60h-99q-54 -1 -71 -1q-11 0 -11 45q0 29 6.5 32.5t29.5 2.5q28 -1 31 -1q24 -3 58 -1
q31 1 45 -1q-12 23 -30 50h-72q-41 -1 -57 -1q-11 0 -11 45q0 29 6.5 32.5t29.5 2.5q28 -1 31 -1q15 -1 39 -1q-18 43 -52 108q-48 92 -56 108q-23 47 -84 56q-15 8 -17 27q9 19 27 19q8 0 28 -6t30 -6q5 0 10 1q39 -2 112 14q70 15 112 11q27 -2 68 -46q12 -23 12 -46
q0 -20 -11 -33q-16 -23 -47 -28q-22 -1 -41 22q-1 2 -1 4q0 3 5 6t6 5q7 25 -4 44q-9 16 -29 20q-35 0 -42 -26q-5 -12 -5 -24q0 -19 14 -44q11 -20 23 -41q25 -51 74 -152q7 -9 26 -2q27 45 63 124q45 100 59 128q-3 8 -34 70q-3 19 9 27q27 1 63 -9q31 -8 61 -17
q-10 1 63 1q37 0 59 -9q10 -12 2 -26zM616 555q8 14 8 24q0 11 -12 15q-15 0 -18 -6q-29 -45 -76 -146q-19 -49 -65 -140q-13 -20 1 -33q10 -7 28 5q45 86 68.5 143t65.5 138z" />
    <glyph glyph-name="brokenbar" unicode="&#xa6;" horiz-adv-x="500" 
d="M475 79h-450v450h450v-450zM436 119v371h-371v-371h371z" />
    <glyph glyph-name="dieresis" unicode="&#xa8;" horiz-adv-x="550" 
d="M416 565q3 -9 3 -18q0 -33 -29 -54q-10 -7 -29 -7q-20 0 -28 9q-19 22 -19 47q0 14 7 28q13 18 30 25q7 1 14 1q42 0 51 -31zM210 565q3 -9 3 -18q0 -33 -29 -54q-9 -7 -25 -7q-20 0 -30 10q-20 26 -20 49q0 13 6 25q13 18 30 25q7 1 14 1q42 0 51 -31z" />
    <glyph glyph-name="copyright" unicode="&#xa9;" horiz-adv-x="762" 
d="M704 378q2 -138 -94 -236t-232 -99q-138 -2 -236.5 95t-100.5 234t94 236t233 100t235.5 -96.5t100.5 -233.5zM656 378q-1 116 -86 198.5t-202 81.5q-115 -1 -198 -85.5t-82 -200.5t85.5 -198t202.5 -82q116 0 198.5 84t81.5 202zM538 544q-10 -19 -28 -58q-7 -19 -5 -49
q3 -25 5 -51q-2 -2 -18 3l-48 82q-31 50 -73 60q-58 -4 -82 -47q-21 -26 -21 -71q0 -13 2 -37q3 -27 3 -37q13 -40 35 -57q4 1 6 13q0 40 -8 118q-9 13 -23 40q21 6 60 28q10 2 26.5 13t25.5 12q2 -8 -3 -23t-4 -23q2 -18 0 -59q-2 -40 2 -62q2 -10 -1 -39q-1 -24 4 -38
q8 -8 23 -7q26 1 27 1q23 8 78 54q4 2 8 -2q6 -63 -62 -98q-51 -26 -107 -26q-71 0 -115 43q-57 56 -57 149q0 21 3 43q8 55 48 98q44 47 98 47q23 0 72 -11t73 -11q10 0 24.5 10.5t23.5 10.5q10 -6 8 -19z" />
    <glyph glyph-name="guillemotleft" unicode="&#xab;" horiz-adv-x="400" 
d="M329 23q-8 -4 -18 -4q-7 0 -19.5 1t-16.5 1t-26 60q-29 82 -38 103q-5 12 0 25q2 6 8 35q4 20 13 30q-1 16 11.5 41.5t11.5 40.5q-1 24 19.5 27t40.5 5q17 2 17 -8q0 -1 -13 -31q-15 -23 -26 -62q-14 -51 -18 -60q-4 -13 -4 -26q0 -22 13 -52q20 -46 22 -52q2 -10 15 -34
t13 -32q0 -6 -5 -8zM193 23q-8 -4 -18 -4q-7 0 -19.5 1t-17 1t-25.5 60q-33 91 -38 103t0 25q2 6 8 35q4 20 13 30q-1 16 11.5 41.5t11.5 40.5q-1 24 19.5 27t40.5 5q18 2 18 -9q0 -5 -12 -30q-15 -24 -27 -62q-17 -54 -19 -60q-4 -13 -4 -26q0 -22 13 -52q20 -46 22 -52
q2 -10 16 -36q11 -22 11 -30q0 -6 -4 -8z" />
    <glyph glyph-name="minus" unicode="&#xad;" horiz-adv-x="400" 
d="M334 294q7 -4 7 -34q0 -41 -12 -41h-156q-103 -1 -123 -1q-12 0 -12 49q0 33 7.5 37t32.5 3q30 -2 35 -1q18 -2 69 1q44 2 69 -5q48 10 83 -8z" />
    <glyph glyph-name="minus" unicode="&#x2212;" horiz-adv-x="400" 
d="M334 294q7 -4 7 -34q0 -41 -12 -41h-156q-103 -1 -123 -1q-12 0 -12 49q0 33 7.5 37t32.5 3q30 -2 35 -1q18 -2 69 1q44 2 69 -5q48 10 83 -8z" />
    <glyph glyph-name="registered" unicode="&#xae;" horiz-adv-x="762" 
d="M704 378q2 -138 -94 -236t-232 -99q-138 -2 -236.5 95t-100.5 234t94 236t233 100t235.5 -96.5t100.5 -233.5zM656 378q-1 116 -86 198.5t-202 81.5q-115 -1 -198 -85.5t-82 -200.5t85.5 -198t202.5 -82q116 0 198.5 84t81.5 202zM587 239q3 -8 -10 -17q-18 2 -58 4
q-7 0 -23.5 -4t-23.5 -4q-15 0 -24 12q1 7 1 14q0 20 -11 50q-12 34 -14 49q-3 7 -15 15q-31 2 -43 -17q-5 -8 -2 -21q3 -17 2 -23q-1 -9 1 -39q12 -5 25 -12t14 -20q0 -1 -9 -7q-23 -2 -62 3q-45 5 -62 5q-26 0 -47 -7q-2 0 -16 -2q-11 -1 -17 1q-9 1 -13 8q3 13 27 19.5
t26 22.5q0 33 5 99q1 40 -38 59q-3 1 -3 16q2 1 7 3q12 -1 23 -1q60 0 104 34q34 11 45 10l-7 -28q-5 -18 -5 -30q0 -30 25 -39q10 -3 28 -2q26 5 42.5 24t16.5 45q0 27 -20 45q-13 9 -19 12q-10 5 -21 6q-15 4 -31 4q-28 0 -63 -14l-60 -26q-7 1 -22.5 -1t-22.5 -2
q-25 0 -35 18q-10 35 14 48q20 5 39 5q2 -11 4 -14q4 -8 11.5 -10t14.5 -2q17 0 48.5 13.5t50.5 13.5q64 0 77 -1q42 -4 72 -20q17 -15 39 -51q2 -62 -18 -88q-10 -8 -21.5 -16.5t-12.5 -19.5q10 -27 26 -80q7 -12 10 -16q7 -8 15 -11q3 -2 20 -3q13 -1 16 -10zM334 262
q3 55 -2 167q-1 1 -1.5 4t-1.5 4q-12 4 -22 -6q-8 -16 -5 -46q3 -35 -1 -48q0 -60 18 -77q14 0 15 2z" />
    <glyph glyph-name="macron" unicode="&#xaf;" horiz-adv-x="420" 
d="M368 484h-334v54h334v-54z" />
    <glyph glyph-name="macron" unicode="&#x2c9;" horiz-adv-x="420" 
d="M368 484h-334v54h334v-54z" />
    <glyph glyph-name="degree" unicode="&#xb0;" horiz-adv-x="300" 
d="M229 591q0 -40 -29.5 -68.5t-71.5 -28.5q-44 0 -75 30.5t-31 73.5q0 46 28 74.5t72 28.5t75.5 -32.5t31.5 -77.5zM174 594q0 52 -48 52q-47 0 -47 -49q0 -22 13.5 -36t35.5 -14q20 0 33 13.5t13 33.5z" />
    <glyph glyph-name="acute" unicode="&#xb4;" 
d="M356 592q-17 -24 -94 -99q-8 -8 -16 -8h-43q-6 0 0 14q14 33 63 97q7 9 12 9h75q12 0 3 -13z" />
    <glyph glyph-name="paragraph" unicode="&#xb6;" horiz-adv-x="410" 
d="M366 604h-52v-608h-48v608h-46v-608h-49v337q-147 6 -147 158q0 81 52 124q42 34 104 34h186v-45z" />
    <glyph glyph-name="periodcentered" unicode="&#xb7;" horiz-adv-x="700" 
d="M377 412q10 -17 10 -35q0 -27 -21.5 -49.5t-48.5 -22.5q-24 0 -45 21q-17 18 -23 40q1 24 3 33q5 18 18 26q16 16 43 16q41 0 64 -29z" />
    <glyph glyph-name="periodcentered" unicode="&#x2219;" horiz-adv-x="700" 
d="M377 412q10 -17 10 -35q0 -27 -21.5 -49.5t-48.5 -22.5q-24 0 -45 21q-17 18 -23 40q1 24 3 33q5 18 18 26q16 16 43 16q41 0 64 -29z" />
    <glyph glyph-name="cedilla" unicode="&#xb8;" 
d="M303 -133q-12 -31 -65 -51q-42 -15 -78 -15q-7 0 -7 9q0 23 12 23q28 0 50 21q19 19 19 40q0 24 -28 24q-8 0 -8 14q0 18 9 40.5t17 23.5q32 0 34 -1q1 -1 -8 -15q-2 -5 -2 -9q0 -8 10 -12.5t19 -7.5q35 -19 35 -46q0 -14 -9 -38z" />
    <glyph glyph-name="guillemotright" unicode="&#xbb;" horiz-adv-x="400" 
d="M331 184q-5 -12 -38 -103q-21 -60 -25.5 -60t-17 -1t-19.5 -1q-10 0 -18 4q-4 2 -4 8q0 8 11 30q14 26 16 36q2 6 22 52q13 30 13 52q0 13 -4 26q-2 6 -19 60q-12 38 -25.5 62.5t-13.5 29.5q0 11 18 9q20 -2 40.5 -5t19.5 -27q-1 -15 11.5 -40.5t11.5 -41.5q9 -10 13 -30
q6 -29 8 -35q5 -13 0 -25zM195 184q-9 -21 -38 -103q-22 -60 -26 -60t-16.5 -1t-19.5 -1q-10 0 -16.5 3t-6.5 9q0 8 13 32t15 34q2 6 22 52q13 30 13 52q0 13 -4 26q-4 9 -18 60q-11 39 -26 62q-13 30 -13 31q0 10 17 8q20 -2 40.5 -5t19.5 -27q-1 -15 11.5 -40.5
t11.5 -41.5q9 -10 13 -30q6 -29 8 -35q5 -13 0 -25z" />
    <glyph glyph-name="questiondown" unicode="&#xbf;" horiz-adv-x="770" 
d="M547 602q-13 -10 -40 -30q-15 -3 -28 -3q-51 0 -79 39q-9 17 -9 37q0 27 19 62q14 20 38 24q12 2 47 0q24 -2 44.5 -27t20.5 -57q0 -23 -13 -45zM564 22q-19 -13 -58 -12q-43 1 -59 -5q-22 -9 -48 -9q-11 0 -32.5 2t-32.5 2q-13 0 -25 -2q-40 -7 -115 23q-81 32 -105 73
q-54 55 -54 140q0 23 4 47q16 101 135 188q20 11 114 97q5 5 16 28q8 16 17 16q7 0 17 -10q4 -13 20 -23.5t20 -19.5q6 -4 58 -18q34 -10 43 -36q-2 -54 -22 -68q-27 -5 -38 -42q1 -23 45 -122q44 -102 47 -120q8 -11 20 -11q10 0 18 8l72 94q62 79 83 79q7 0 12 -13
q8 -25 3 -82q-1 -12 3 -42q5 -34 5 -48q0 -59 -58 -83q-53 -15 -105 -31zM448 188q3 11 -23.5 67t-43.5 77q-15 11 -26 0q-16 -46 6 -95q17 -41 33 -81q23 -50 43 -56q34 -4 34 18q0 12 -11 38t-12 32zM350 103q-4 23 -25 88q-24 70 -32 73q-5 10 -15 10q-9 0 -26 -10
q-14 -23 -29 -45q-16 -29 -16 -51q0 -18 9 -34q20 -26 49.5 -40.5t51.5 -12.5q32 7 33 22z" />
    <glyph glyph-name="Agrave" unicode="&#xc0;" horiz-adv-x="1030" 
d="M987 34q3 -16 -6.5 -28.5t-22.5 -8.5q-30 6 -68 6q-30 0 -92 -5t-92 -5q-60 0 -102 14q-17 6 -16 23q1 32 35 36q5 -1 10 -1q22 0 45 27q5 13 5 28q0 31 -21 53q-32 15 -73 15q-23 0 -68.5 -6t-68.5 -6q-26 0 -48 6q-14 0 -39 2t-36 2q-23 0 -41 -6q-29 -29 -31 -51
q0 -35 36 -56l64 -28q23 -11 23 -28q0 -7 -7 -11q-26 -12 -57 -12q-18 0 -55.5 6.5t-58.5 5.5q-16 4 -32 4q-15 0 -42 -5t-41 -5q-15 0 -30 4q-18 4 -5 36q18 8 55 26q67 37 88 150q23 53 57 178q31 117 60 176q0 10 7 27.5t7 26.5t-5 17q-25 -2 -58 -23l-56 -38
q-7 -4 -26 -26q-15 -17 -28 -17q-22 0 -22 20q0 9 8 27q32 70 76 155q4 8 15 8q12 0 39 -12q32 -14 40 -16q63 5 183 6q153 1 191 2q82 22 90 22q15 0 21 -7q27 -32 61 -87l54 -90q8 -30 -19 -35q-19 0 -40 20q-27 25 -37 30q-16 5 -55 38q-33 27 -56 27q-8 0 -15 -2
q12 -51 44 -133q38 -97 49 -133q21 -70 41 -141q26 -83 54 -137q2 -1 61 -25q37 -15 51 -40zM559 494q-8 20 -41 124l-18 26q-12 13 -28 12q-34 -6 -49 -32q-11 -18 -12 -35.5t-16 -48.5t-15 -47q0 -15 10 -29q21 -5 44 -5q9 0 51 3q32 2 55 0q21 6 21 24q0 4 -2 8zM621 337
q-16 38 -35 43q-160 5 -222 -3q-42 -21 -36 -78q-1 -15 12 -22t26 -13q19 3 43 3q18 0 57 -2.5t59 -2.5q43 0 77 8q23 8 23 40q0 13 -4 27zM522 791h-43q-8 0 -16 8q-77 75 -94 99q-9 13 3 13h75q5 0 12 -9q49 -64 63 -97q6 -14 0 -14z" />
    <glyph glyph-name="Aacute" unicode="&#xc1;" horiz-adv-x="1030" 
d="M987 34q3 -16 -6.5 -28.5t-22.5 -8.5q-30 6 -68 6q-30 0 -92 -5t-92 -5q-60 0 -102 14q-17 6 -16 23q1 32 35 36q5 -1 10 -1q22 0 45 27q5 13 5 28q0 31 -21 53q-32 15 -73 15q-23 0 -68.5 -6t-68.5 -6q-26 0 -48 6q-14 0 -39 2t-36 2q-23 0 -41 -6q-29 -29 -31 -51
q0 -35 36 -56l64 -28q23 -11 23 -28q0 -7 -7 -11q-26 -12 -57 -12q-18 0 -55.5 6.5t-58.5 5.5q-16 4 -32 4q-15 0 -42 -5t-41 -5q-15 0 -30 4q-18 4 -5 36q18 8 55 26q67 37 88 150q23 53 57 178q31 117 60 176q0 10 7 27.5t7 26.5t-5 17q-25 -2 -58 -23l-56 -38
q-7 -4 -26 -26q-15 -17 -28 -17q-22 0 -22 20q0 9 8 27q32 70 76 155q4 8 15 8q12 0 39 -12q32 -14 40 -16q63 5 183 6q153 1 191 2q82 22 90 22q15 0 21 -7q27 -32 61 -87l54 -90q8 -30 -19 -35q-19 0 -40 20q-27 25 -37 30q-16 5 -55 38q-33 27 -56 27q-8 0 -15 -2
q12 -51 44 -133q38 -97 49 -133q21 -70 41 -141q26 -83 54 -137q2 -1 61 -25q37 -15 51 -40zM559 494q-8 20 -41 124l-18 26q-12 13 -28 12q-34 -6 -49 -32q-11 -18 -12 -35.5t-16 -48.5t-15 -47q0 -15 10 -29q21 -5 44 -5q9 0 51 3q32 2 55 0q21 6 21 24q0 4 -2 8zM621 337
q-16 38 -35 43q-160 5 -222 -3q-42 -21 -36 -78q-1 -15 12 -22t26 -13q19 3 43 3q18 0 57 -2.5t59 -2.5q43 0 77 8q23 8 23 40q0 13 -4 27zM638 898q-17 -24 -94 -99q-8 -8 -16 -8h-43q-6 0 0 14q14 33 63 97q7 9 12 9h75q12 0 3 -13z" />
    <glyph glyph-name="Acircumflex" unicode="&#xc2;" horiz-adv-x="1030" 
d="M987 34q3 -16 -6.5 -28.5t-22.5 -8.5q-30 6 -68 6q-30 0 -92 -5t-92 -5q-60 0 -102 14q-17 6 -16 23q1 32 35 36q5 -1 10 -1q22 0 45 27q5 13 5 28q0 31 -21 53q-32 15 -73 15q-23 0 -68.5 -6t-68.5 -6q-26 0 -48 6q-14 0 -39 2t-36 2q-23 0 -41 -6q-29 -29 -31 -51
q0 -35 36 -56l64 -28q23 -11 23 -28q0 -7 -7 -11q-26 -12 -57 -12q-18 0 -55.5 6.5t-58.5 5.5q-16 4 -32 4q-15 0 -42 -5t-41 -5q-15 0 -30 4q-18 4 -5 36q18 8 55 26q67 37 88 150q23 53 57 178q31 117 60 176q0 10 7 27.5t7 26.5t-5 17q-25 -2 -58 -23l-56 -38
q-7 -4 -26 -26q-15 -17 -28 -17q-22 0 -22 20q0 9 8 27q32 70 76 155q4 8 15 8q12 0 39 -12q32 -14 40 -16q63 5 183 6q153 1 191 2q82 22 90 22q15 0 21 -7q27 -32 61 -87l54 -90q8 -30 -19 -35q-19 0 -40 20q-27 25 -37 30q-16 5 -55 38q-33 27 -56 27q-8 0 -15 -2
q12 -51 44 -133q38 -97 49 -133q21 -70 41 -141q26 -83 54 -137q2 -1 61 -25q37 -15 51 -40zM559 494q-8 20 -41 124l-18 26q-12 13 -28 12q-34 -6 -49 -32q-11 -18 -12 -35.5t-16 -48.5t-15 -47q0 -15 10 -29q21 -5 44 -5q9 0 51 3q32 2 55 0q21 6 21 24q0 4 -2 8zM621 337
q-16 38 -35 43q-160 5 -222 -3q-42 -21 -36 -78q-1 -15 12 -22t26 -13q19 3 43 3q18 0 57 -2.5t59 -2.5q43 0 77 8q23 8 23 40q0 13 -4 27zM617 806q2 -2 2 -5q0 -11 -44 -11q-35 0 -39 6q-10 18 -35 50q-3 2 -14 2q-12 0 -13 -3q-12 -27 -38 -49q-10 -6 -46 -6q-38 0 -38 9
q0 2 3 5q7 7 45 50q28 31 50 46q10 3 37 5q34 1 45 -8q33 -29 85 -91z" />
    <glyph glyph-name="Atilde" unicode="&#xc3;" horiz-adv-x="1030" 
d="M987 34q3 -16 -6.5 -28.5t-22.5 -8.5q-30 6 -68 6q-30 0 -92 -5t-92 -5q-60 0 -102 14q-17 6 -16 23q1 32 35 36q5 -1 10 -1q22 0 45 27q5 13 5 28q0 31 -21 53q-32 15 -73 15q-23 0 -68.5 -6t-68.5 -6q-26 0 -48 6q-14 0 -39 2t-36 2q-23 0 -41 -6q-29 -29 -31 -51
q0 -35 36 -56l64 -28q23 -11 23 -28q0 -7 -7 -11q-26 -12 -57 -12q-18 0 -55.5 6.5t-58.5 5.5q-16 4 -32 4q-15 0 -42 -5t-41 -5q-15 0 -30 4q-18 4 -5 36q18 8 55 26q67 37 88 150q23 53 57 178q31 117 60 176q0 10 7 27.5t7 26.5t-5 17q-25 -2 -58 -23l-56 -38
q-7 -4 -26 -26q-15 -17 -28 -17q-22 0 -22 20q0 9 8 27q32 70 76 155q4 8 15 8q12 0 39 -12q32 -14 40 -16q63 5 183 6q153 1 191 2q82 22 90 22q15 0 21 -7q27 -32 61 -87l54 -90q8 -30 -19 -35q-19 0 -40 20q-27 25 -37 30q-16 5 -55 38q-33 27 -56 27q-8 0 -15 -2
q12 -51 44 -133q38 -97 49 -133q21 -70 41 -141q26 -83 54 -137q2 -1 61 -25q37 -15 51 -40zM559 494q-8 20 -41 124l-18 26q-12 13 -28 12q-34 -6 -49 -32q-11 -18 -12 -35.5t-16 -48.5t-15 -47q0 -15 10 -29q21 -5 44 -5q9 0 51 3q32 2 55 0q21 6 21 24q0 4 -2 8zM621 337
q-16 38 -35 43q-160 5 -222 -3q-42 -21 -36 -78q-1 -15 12 -22t26 -13q19 3 43 3q18 0 57 -2.5t59 -2.5q43 0 77 8q23 8 23 40q0 13 -4 27zM629 890q-3 -33 -25.5 -59.5t-54.5 -35.5q-9 -4 -20 -4q-18 0 -54 18t-52 18q-8 0 -15 -3q-13 -20 -42 -20q-9 0 -19.5 4.5
t-8.5 10.5q22 60 70 90q13 5 27 5q23 0 63 -19.5t62 -21.5q8 2 19 16.5t20 14.5q4 0 8 -2q8 2 15.5 -1t6.5 -11z" />
    <glyph glyph-name="Adieresis" unicode="&#xc4;" horiz-adv-x="1030" 
d="M987 34q3 -16 -6.5 -28.5t-22.5 -8.5q-30 6 -68 6q-30 0 -92 -5t-92 -5q-60 0 -102 14q-17 6 -16 23q1 32 35 36q5 -1 10 -1q22 0 45 27q5 13 5 28q0 31 -21 53q-32 15 -73 15q-23 0 -68.5 -6t-68.5 -6q-26 0 -48 6q-14 0 -39 2t-36 2q-23 0 -41 -6q-29 -29 -31 -51
q0 -35 36 -56l64 -28q23 -11 23 -28q0 -7 -7 -11q-26 -12 -57 -12q-18 0 -55.5 6.5t-58.5 5.5q-16 4 -32 4q-15 0 -42 -5t-41 -5q-15 0 -30 4q-18 4 -5 36q18 8 55 26q67 37 88 150q23 53 57 178q31 117 60 176q0 10 7 27.5t7 26.5t-5 17q-25 -2 -58 -23l-56 -38
q-7 -4 -26 -26q-15 -17 -28 -17q-22 0 -22 20q0 9 8 27q32 70 76 155q4 8 15 8q12 0 39 -12q32 -14 40 -16q63 5 183 6q153 1 191 2q82 22 90 22q15 0 21 -7q27 -32 61 -87l54 -90q8 -30 -19 -35q-19 0 -40 20q-27 25 -37 30q-16 5 -55 38q-33 27 -56 27q-8 0 -15 -2
q12 -51 44 -133q38 -97 49 -133q21 -70 41 -141q26 -83 54 -137q2 -1 61 -25q37 -15 51 -40zM559 494q-8 20 -41 124l-18 26q-12 13 -28 12q-34 -6 -49 -32q-11 -18 -12 -35.5t-16 -48.5t-15 -47q0 -15 10 -29q21 -5 44 -5q9 0 51 3q32 2 55 0q21 6 21 24q0 4 -2 8zM621 337
q-16 38 -35 43q-160 5 -222 -3q-42 -21 -36 -78q-1 -15 12 -22t26 -13q19 3 43 3q18 0 57 -2.5t59 -2.5q43 0 77 8q23 8 23 40q0 13 -4 27zM644 871q3 -9 3 -18q0 -33 -29 -54q-10 -7 -29 -7q-20 0 -28 9q-19 22 -19 47q0 14 7 28q13 18 30 25q7 1 14 1q42 0 51 -31z
M438 871q3 -9 3 -18q0 -33 -29 -54q-9 -7 -25 -7q-20 0 -30 10q-20 26 -20 49q0 13 6 25q13 18 30 25q7 1 14 1q42 0 51 -31z" />
    <glyph glyph-name="Aring" unicode="&#xc5;" horiz-adv-x="1030" 
d="M987 34q3 -16 -6.5 -28.5t-22.5 -8.5q-30 6 -68 6q-30 0 -92 -5t-92 -5q-60 0 -102 14q-17 6 -16 23q1 32 35 36q5 -1 10 -1q22 0 45 27q5 13 5 28q0 31 -21 53q-32 15 -73 15q-23 0 -68.5 -6t-68.5 -6q-26 0 -48 6q-14 0 -39 2t-36 2q-23 0 -41 -6q-29 -29 -31 -51
q0 -35 36 -56l64 -28q23 -11 23 -28q0 -7 -7 -11q-26 -12 -57 -12q-18 0 -55.5 6.5t-58.5 5.5q-16 4 -32 4q-15 0 -42 -5t-41 -5q-15 0 -30 4q-18 4 -5 36q18 8 55 26q67 37 88 150q23 53 57 178q31 117 60 176q0 10 7 27.5t7 26.5t-5 17q-25 -2 -58 -23l-56 -38
q-7 -4 -26 -26q-15 -17 -28 -17q-22 0 -22 20q0 9 8 27q32 70 76 155q4 8 15 8q12 0 39 -12q32 -14 40 -16q63 5 183 6q153 1 191 2q82 22 90 22q15 0 21 -7q27 -32 61 -87l54 -90q8 -30 -19 -35q-19 0 -40 20q-27 25 -37 30q-16 5 -55 38q-33 27 -56 27q-8 0 -15 -2
q12 -51 44 -133q38 -97 49 -133q21 -70 41 -141q26 -83 54 -137q2 -1 61 -25q37 -15 51 -40zM559 494q-8 20 -41 124l-18 26q-12 13 -28 12q-34 -6 -49 -32q-11 -18 -12 -35.5t-16 -48.5t-15 -47q0 -15 10 -29q21 -5 44 -5q9 0 51 3q32 2 55 0q21 6 21 24q0 4 -2 8zM621 337
q-16 38 -35 43q-160 5 -222 -3q-42 -21 -36 -78q-1 -15 12 -22t26 -13q19 3 43 3q18 0 57 -2.5t59 -2.5q43 0 77 8q23 8 23 40q0 13 -4 27zM563 876q10 -25 10 -42q0 -19 -11 -32q-32 -36 -62 -36q-40 0 -68 38q-9 18 -9 39q0 23 11 39q19 18 66 32q44 -7 63 -38zM532 821
q1 7 1 13q0 37 -39 37q-36 -13 -30 -38q9 -23 27 -27q28 2 41 15z" />
    <glyph glyph-name="AE" unicode="&#xc6;" horiz-adv-x="1470" 
d="M1436 -20q5 -12 5 -25q0 -38 -38 -79q-25 -13 -55 -13q-29 0 -55 13q-26 25 -39 76q-18 71 -24 83q-5 1 -11 1q-18 0 -49 -17q-35 -19 -52 -22q-56 -23 -122 -23q-71 0 -143 27q-14 -1 -73 -5q-45 -3 -73 -3q-60 0 -103 14q-17 6 -16 23q1 32 35 36q5 -1 10 -1
q22 0 45 27q5 13 5 28q0 31 -21 53q-32 15 -73 15q-23 0 -68.5 -6t-68.5 -6q-26 0 -48 6q-14 0 -39 2t-36 2q-23 0 -41 -6q-29 -29 -31 -51q0 -35 36 -56l64 -28q23 -11 23 -28q0 -7 -7 -11q-26 -12 -57 -12q-18 0 -55.5 6.5t-58.5 5.5q-16 4 -32 4q-15 0 -42 -5t-41 -5
q-15 0 -30 4q-18 4 -5 36q18 8 55 26q67 37 88 150q23 53 57 178q31 117 60 176q0 10 7 27.5t7 26.5t-5 17q-25 -2 -58 -23l-56 -38q-7 -4 -26 -26q-15 -17 -28 -17q-22 0 -22 20q0 9 8 27q32 70 76 155q4 8 15 8q12 0 39 -12q32 -14 40 -16q64 5 156 6q128 1 164 2
q36 -3 58 -84q10 -36 16 -55q30 48 69 84q29 19 108 47q74 8 116 8q44 0 82 -7q42 -24 113 -24q27 0 58 4q14 2 40 18t42 16q10 0 21 -5q1 -3 2 -9.5t2 -9.5q-22 -51 -44 -103q-24 -60 -30 -109q1 -41 -1 -108q-2 -80 -2 -105q0 -140 35 -232q6 -17 23 -31.5t32 -27.5
q9 -5 35 -6q23 0 32 -8zM559 494q-8 20 -41 124l-18 26q-12 13 -28 12q-34 -6 -49 -32q-11 -18 -12 -35.5t-16 -48.5t-15 -47q0 -15 10 -29q21 -5 44 -5q9 0 51 3q32 2 55 0q21 6 21 24q0 4 -2 8zM887 129q2 39 2 85t-2.5 137t-2.5 135q0 60 3 108q1 4 -2 5q-2 1 -6 0t-7 -3
q-51 -109 -55 -285q10 -48 20 -95q13 -56 35 -87q2 -4 8 -4t7 4zM1211 220q14 62 14 126q0 152 -69 248q-53 74 -122 74q-13 0 -25.5 -3.5t-33.5 -18.5q-24 -44 -24 -112q0 -19 2 -51q3 -43 3 -53q2 -38 31 -34q42 1 87 38l70 62q15 -4 17 -22q1 -14 2 -29q-4 -38 -4 -104
q1 -77 -1 -104q-3 -7 -15 -19q-5 -2 -9 -2q-12 0 -18 19q-8 24 -11 28l-38 28q-23 16 -42 22q-42 13 -69 -2q3 -25 0 -124q-3 -77 12 -123q12 -16 42 -16q13 0 47 6q104 19 154 166zM621 337q-16 38 -35 43q-160 5 -222 -3q-42 -21 -36 -78q-1 -15 12 -22t26 -13q19 3 43 3
q18 0 57 -2.5t59 -2.5q43 0 77 8q23 8 23 40q0 13 -4 27z" />
    <glyph glyph-name="Ccedilla" unicode="&#xc7;" horiz-adv-x="780" 
d="M742 698q-20 -38 -55 -116q-11 -31 -11 -74q0 -25 4 -64q6 -56 7 -64q-4 -4 -9 -4q2 0 -29 10q-23 29 -65 109q-40 75 -70 109q-46 53 -108 68q-117 -5 -166 -95q-42 -53 -42 -144q0 -27 4 -74q4 -54 5 -74q29 -81 71 -116q8 2 9.5 10.5t2.5 16.5q0 79 -16 239
q-6 14 -23.5 39t-22.5 41q16 10 62 25q39 13 59 32q20 4 53.5 25.5t51.5 24.5q2 -7 2 -14q0 -11 -9 -37t-7 -42q4 -33 2 -86q-3 -81 -3 -89q0 -17 3.5 -49t3.5 -48q0 -13 -2.5 -39.5t-2.5 -40.5q0 -27 8 -48q16 -16 40 -16q7 0 28 3t33 2q40 14 85 48q4 3 73 60q2 -1 10 2
q6 1 7 -5q11 -126 -126 -198q-101 -53 -214 -53q-144 0 -233 87q-116 113 -116 303q0 41 6 85q20 155 165 254q56 38 131 38q49 0 145 -21q100 -22 147 -24q18 1 48 21t49 21q20 -13 15 -38zM429 -156q-12 -31 -65 -51q-42 -15 -78 -15q-7 0 -7 9q0 23 12 23q28 0 50 21
q19 19 19 40q0 24 -28 24q-8 0 -8 14q0 18 9 40.5t17 23.5q32 0 34 -1q1 -1 -8 -15q-2 -5 -2 -9q0 -8 10 -12.5t19 -7.5q35 -19 35 -46q0 -14 -9 -38z" />
    <glyph glyph-name="Egrave" unicode="&#xc8;" horiz-adv-x="890" 
d="M848 -20q5 -12 5 -25q0 -38 -38 -79q-25 -13 -55 -13q-29 0 -55 13q-26 25 -39 76q-18 71 -24 83q-5 1 -11 1q-18 0 -49 -17q-35 -19 -52 -22q-56 -23 -121 -23q-111 0 -214 61q-70 55 -112 136.5t-42 166.5q0 88 39.5 181.5t103.5 152.5q29 19 108 47q74 8 116 8
q44 0 82 -7q42 -24 113 -24q27 0 58 4q14 2 40 18t42 16q10 0 21 -5q1 -3 2 -9.5t2 -9.5q-22 -51 -44 -103q-24 -60 -30 -109q1 -41 -1 -108q-2 -80 -2 -105q0 -140 35 -232q6 -17 23 -31.5t32 -27.5q9 -5 35 -6q23 0 32 -8zM299 129q2 39 2 85t-2.5 137t-2.5 135
q0 60 3 108q1 4 -2 5q-2 1 -6 0t-7 -3q-51 -109 -55 -285q10 -48 20 -95q13 -56 35 -87q2 -4 8 -4t7 4zM623 220q14 62 14 126q0 152 -69 248q-53 74 -122 74q-13 0 -25.5 -3.5t-33.5 -18.5q-24 -44 -24 -112q0 -19 2 -51q3 -43 3 -53q2 -38 31 -34q42 1 87 38l70 62
q15 -4 17 -22q1 -14 2 -29q-4 -38 -4 -104q1 -77 -1 -104q-3 -7 -15 -19q-5 -2 -9 -2q-12 0 -18 19q-8 24 -11 28l-38 28q-23 16 -42 22q-42 13 -69 -2q3 -25 0 -124q-3 -77 12 -123q12 -16 42 -16q13 0 47 6q104 19 154 166zM420 793h-43q-8 0 -16 8q-77 75 -94 99
q-9 13 3 13h75q5 0 12 -9q49 -64 63 -97q6 -14 0 -14z" />
    <glyph glyph-name="Eacute" unicode="&#xc9;" horiz-adv-x="890" 
d="M848 -20q5 -12 5 -25q0 -38 -38 -79q-25 -13 -55 -13q-29 0 -55 13q-26 25 -39 76q-18 71 -24 83q-5 1 -11 1q-18 0 -49 -17q-35 -19 -52 -22q-56 -23 -121 -23q-111 0 -214 61q-70 55 -112 136.5t-42 166.5q0 88 39.5 181.5t103.5 152.5q29 19 108 47q74 8 116 8
q44 0 82 -7q42 -24 113 -24q27 0 58 4q14 2 40 18t42 16q10 0 21 -5q1 -3 2 -9.5t2 -9.5q-22 -51 -44 -103q-24 -60 -30 -109q1 -41 -1 -108q-2 -80 -2 -105q0 -140 35 -232q6 -17 23 -31.5t32 -27.5q9 -5 35 -6q23 0 32 -8zM299 129q2 39 2 85t-2.5 137t-2.5 135
q0 60 3 108q1 4 -2 5q-2 1 -6 0t-7 -3q-51 -109 -55 -285q10 -48 20 -95q13 -56 35 -87q2 -4 8 -4t7 4zM623 220q14 62 14 126q0 152 -69 248q-53 74 -122 74q-13 0 -25.5 -3.5t-33.5 -18.5q-24 -44 -24 -112q0 -19 2 -51q3 -43 3 -53q2 -38 31 -34q42 1 87 38l70 62
q15 -4 17 -22q1 -14 2 -29q-4 -38 -4 -104q1 -77 -1 -104q-3 -7 -15 -19q-5 -2 -9 -2q-12 0 -18 19q-8 24 -11 28l-38 28q-23 16 -42 22q-42 13 -69 -2q3 -25 0 -124q-3 -77 12 -123q12 -16 42 -16q13 0 47 6q104 19 154 166zM545 900q-17 -24 -94 -99q-8 -8 -16 -8h-43
q-6 0 0 14q14 33 63 97q7 9 12 9h75q12 0 3 -13z" />
    <glyph glyph-name="Ecircumflex" unicode="&#xca;" horiz-adv-x="890" 
d="M848 -20q5 -12 5 -25q0 -38 -38 -79q-25 -13 -55 -13q-29 0 -55 13q-26 25 -39 76q-18 71 -24 83q-5 1 -11 1q-18 0 -49 -17q-35 -19 -52 -22q-56 -23 -121 -23q-111 0 -214 61q-70 55 -112 136.5t-42 166.5q0 88 39.5 181.5t103.5 152.5q29 19 108 47q74 8 116 8
q44 0 82 -7q42 -24 113 -24q27 0 58 4q14 2 40 18t42 16q10 0 21 -5q1 -3 2 -9.5t2 -9.5q-22 -51 -44 -103q-24 -60 -30 -109q1 -41 -1 -108q-2 -80 -2 -105q0 -140 35 -232q6 -17 23 -31.5t32 -27.5q9 -5 35 -6q23 0 32 -8zM299 129q2 39 2 85t-2.5 137t-2.5 135
q0 60 3 108q1 4 -2 5q-2 1 -6 0t-7 -3q-51 -109 -55 -285q10 -48 20 -95q13 -56 35 -87q2 -4 8 -4t7 4zM623 220q14 62 14 126q0 152 -69 248q-53 74 -122 74q-13 0 -25.5 -3.5t-33.5 -18.5q-24 -44 -24 -112q0 -19 2 -51q3 -43 3 -53q2 -38 31 -34q42 1 87 38l70 62
q15 -4 17 -22q1 -14 2 -29q-4 -38 -4 -104q1 -77 -1 -104q-3 -7 -15 -19q-5 -2 -9 -2q-12 0 -18 19q-8 24 -11 28l-38 28q-23 16 -42 22q-42 13 -69 -2q3 -25 0 -124q-3 -77 12 -123q12 -16 42 -16q13 0 47 6q104 19 154 166zM506 808q2 -2 2 -5q0 -11 -44 -11q-35 0 -39 6
q-10 18 -35 50q-3 2 -14 2q-12 0 -13 -3q-12 -27 -38 -49q-10 -6 -46 -6q-38 0 -38 9q0 2 3 5q7 7 45 50q28 31 50 46q10 3 37 5q34 1 45 -8q33 -29 85 -91z" />
    <glyph glyph-name="Edieresis" unicode="&#xcb;" horiz-adv-x="890" 
d="M848 -20q5 -12 5 -25q0 -38 -38 -79q-25 -13 -55 -13q-29 0 -55 13q-26 25 -39 76q-18 71 -24 83q-5 1 -11 1q-18 0 -49 -17q-35 -19 -52 -22q-56 -23 -121 -23q-111 0 -214 61q-70 55 -112 136.5t-42 166.5q0 88 39.5 181.5t103.5 152.5q29 19 108 47q74 8 116 8
q44 0 82 -7q42 -24 113 -24q27 0 58 4q14 2 40 18t42 16q10 0 21 -5q1 -3 2 -9.5t2 -9.5q-22 -51 -44 -103q-24 -60 -30 -109q1 -41 -1 -108q-2 -80 -2 -105q0 -140 35 -232q6 -17 23 -31.5t32 -27.5q9 -5 35 -6q23 0 32 -8zM299 129q2 39 2 85t-2.5 137t-2.5 135
q0 60 3 108q1 4 -2 5q-2 1 -6 0t-7 -3q-51 -109 -55 -285q10 -48 20 -95q13 -56 35 -87q2 -4 8 -4t7 4zM623 220q14 62 14 126q0 152 -69 248q-53 74 -122 74q-13 0 -25.5 -3.5t-33.5 -18.5q-24 -44 -24 -112q0 -19 2 -51q3 -43 3 -53q2 -38 31 -34q42 1 87 38l70 62
q15 -4 17 -22q1 -14 2 -29q-4 -38 -4 -104q1 -77 -1 -104q-3 -7 -15 -19q-5 -2 -9 -2q-12 0 -18 19q-8 24 -11 28l-38 28q-23 16 -42 22q-42 13 -69 -2q3 -25 0 -124q-3 -77 12 -123q12 -16 42 -16q13 0 47 6q104 19 154 166zM542 873q3 -9 3 -18q0 -33 -29 -54
q-10 -7 -29 -7q-20 0 -28 9q-19 22 -19 47q0 14 7 28q13 18 30 25q7 1 14 1q42 0 51 -31zM336 873q3 -9 3 -18q0 -33 -29 -54q-9 -7 -25 -7q-20 0 -30 10q-20 26 -20 49q0 13 6 25q13 18 30 25q7 1 14 1q42 0 51 -31z" />
    <glyph glyph-name="Igrave" unicode="&#xcc;" 
d="M412 4q-23 -5 -52 -5q-24 0 -71 5t-70 5q-32 0 -59 -7.5t-58 -7.5q-44 0 -69 16q-3 3 0 21q3 17 9 20q43 11 61 21q30 17 39 48q6 11 6 25q0 6 -5 37q-4 23 1 38q4 24 4 56q0 31 -6 98q-5 64 -4 94q0 12 3.5 43.5t3.5 48.5q0 66 -45 87q-23 3 -47 6.5t-33 23.5
q-2 9 7 28.5t18 21.5q168 0 242 16l62 -6q37 -5 57 -22q2 -44 -28 -53q-22 1 -50 -19q-29 -29 -27 -109q6 -313 3 -383q11 -71 47 -81q15 -1 55 -12q7 -4 9 -29q3 -24 -3 -25zM224 793h-43q-8 0 -16 8q-77 75 -94 99q-9 13 3 13h75q5 0 12 -9q49 -64 63 -97q6 -14 0 -14z
" />
    <glyph glyph-name="Iacute" unicode="&#xcd;" 
d="M412 4q-23 -5 -52 -5q-24 0 -71 5t-70 5q-32 0 -59 -7.5t-58 -7.5q-44 0 -69 16q-3 3 0 21q3 17 9 20q43 11 61 21q30 17 39 48q6 11 6 25q0 6 -5 37q-4 23 1 38q4 24 4 56q0 31 -6 98q-5 64 -4 94q0 12 3.5 43.5t3.5 48.5q0 66 -45 87q-23 3 -47 6.5t-33 23.5
q-2 9 7 28.5t18 21.5q168 0 242 16l62 -6q37 -5 57 -22q2 -44 -28 -53q-22 1 -50 -19q-29 -29 -27 -109q6 -313 3 -383q11 -71 47 -81q15 -1 55 -12q7 -4 9 -29q3 -24 -3 -25zM328 900q-17 -24 -94 -99q-8 -8 -16 -8h-43q-6 0 0 14q14 33 63 97q7 9 12 9h75q12 0 3 -13z" />
    <glyph glyph-name="Icircumflex" unicode="&#xce;" 
d="M412 4q-23 -5 -52 -5q-24 0 -71 5t-70 5q-32 0 -59 -7.5t-58 -7.5q-44 0 -69 16q-3 3 0 21q3 17 9 20q43 11 61 21q30 17 39 48q6 11 6 25q0 6 -5 37q-4 23 1 38q4 24 4 56q0 31 -6 98q-5 64 -4 94q0 12 3.5 43.5t3.5 48.5q0 66 -45 87q-23 3 -47 6.5t-33 23.5
q-2 9 7 28.5t18 21.5q168 0 242 16l62 -6q37 -5 57 -22q2 -44 -28 -53q-22 1 -50 -19q-29 -29 -27 -109q6 -313 3 -383q11 -71 47 -81q15 -1 55 -12q7 -4 9 -29q3 -24 -3 -25zM338 808q2 -2 2 -5q0 -11 -44 -11q-35 0 -39 6q-10 18 -35 50q-3 2 -14 2q-12 0 -13 -3
q-12 -27 -38 -49q-10 -6 -46 -6q-38 0 -38 9q0 2 3 5q7 7 45 50q28 31 50 46q10 3 37 5q34 1 45 -8q33 -29 85 -91z" />
    <glyph glyph-name="Idieresis" unicode="&#xcf;" 
d="M412 4q-23 -5 -52 -5q-24 0 -71 5t-70 5q-32 0 -59 -7.5t-58 -7.5q-44 0 -69 16q-3 3 0 21q3 17 9 20q43 11 61 21q30 17 39 48q6 11 6 25q0 6 -5 37q-4 23 1 38q4 24 4 56q0 31 -6 98q-5 64 -4 94q0 12 3.5 43.5t3.5 48.5q0 66 -45 87q-23 3 -47 6.5t-33 23.5
q-2 9 7 28.5t18 21.5q168 0 242 16l62 -6q37 -5 57 -22q2 -44 -28 -53q-22 1 -50 -19q-29 -29 -27 -109q6 -313 3 -383q11 -71 47 -81q15 -1 55 -12q7 -4 9 -29q3 -24 -3 -25zM360 873q3 -9 3 -18q0 -33 -29 -54q-10 -7 -29 -7q-20 0 -28 9q-19 22 -19 47q0 14 7 28
q13 18 30 25q7 1 14 1q42 0 51 -31zM154 873q3 -9 3 -18q0 -33 -29 -54q-9 -7 -25 -7q-20 0 -30 10q-20 26 -20 49q0 13 6 25q13 18 30 25q7 1 14 1q42 0 51 -31z" />
    <glyph glyph-name="Ntilde" unicode="&#xd1;" horiz-adv-x="930" 
d="M883 115q5 -16 5 -31q0 -49 -41 -92q-28 -20 -71 -20t-101 20q-66 41 -66 161q0 16 2 55q-26 29 -78 29q-30 0 -63 -10q-27 -14 -30 -35q-2 -86 47 -108q15 -9 30 -17q16 -11 22 -25q4 -15 -19 -27q-173 -10 -207 -10q-55 0 -102 5q-13 0 -46 -6t-49 -6q-40 0 -57 29
q-1 6 -1 11q0 23 25 39q61 16 73 62q1 20 6 87q5 54 5 87q0 19 -5 55t-5 54q0 12 3 37t3 37q0 39 -24 59l-56 42q-32 26 -41 54q1 7 10 15q18 -8 40 -8q12 0 96 19q82 23 165 45q98 27 170 27q102 0 190 -45q99 -52 128 -141q17 -52 17 -109q0 -106 -53 -186
q-49 -40 -67 -62q-34 -41 -37 -84q1 -19 22 -31q24 -10 40 8q6 8 6 18q0 8 -8 27q24 32 55 31q52 -8 67 -60zM664 563q-13 41 -41 71q-56 40 -117 40q-12 0 -24 -2q-10 -7 -21.5 -16t-11.5 -20q-7 -56 -7 -65q0 -36 17 -59q41 -9 86 -9q39 0 85 7q16 3 25.5 19t8.5 34z
M668 391q-9 11 -19 22q-13 13 -26 16q-11 -2 -27 -2q-11 0 -36 1.5t-37 1.5q-54 0 -76 -32q-6 -16 -2 -45q7 -23 36 -29t75 -4q60 3 79 2q5 3 16 9q19 14 17 60zM377 116q7 193 -6 327q-1 16 -1 34q0 20 2 58.5t2 57.5q0 35 -6 60q-7 4 -13 4q-8 0 -15 -14q-9 -17 -14 -21
q-18 -107 -18 -129q0 -16 2 -47.5t2 -47.5q0 -29 -2.5 -86.5t-2.5 -86.5q0 -62 9 -112q13 -24 40 -22q8 2 13 11q7 13 8 14zM623 892q-3 -33 -25.5 -59.5t-54.5 -35.5q-9 -4 -20 -4q-18 0 -54 18t-52 18q-8 0 -15 -3q-13 -20 -42 -20q-9 0 -19.5 4.5t-8.5 10.5q22 60 70 90
q13 5 27 5q23 0 63 -19.5t62 -21.5q8 2 19 16.5t20 14.5q4 0 8 -2q8 2 15.5 -1t6.5 -11z" />
    <glyph glyph-name="Ograve" unicode="&#xd2;" horiz-adv-x="870" 
d="M817 395q-5 -23 -3.5 -70.5t-3.5 -70.5q-52 -132 -143 -214q-27 -20 -79 -37q-68 -23 -82 -30q-32 -6 -64 -6q-80 0 -224 59q-149 111 -169 249q-9 64 -9 107q0 90 41 158q12 38 35 73q33 50 94 86q58 35 122 43q15 -1 32 -1q19 0 52.5 1.5t49.5 1.5q62 0 109 -21
q98 -45 164.5 -135.5t77.5 -192.5zM599 542q5 61 -79 118q-44 24 -97 24q-39 0 -76 -14q-89 -50 -89 -128q0 -8 1 -15q8 -13 29 -23q101 -13 164 -15q17 7 54 9.5t53 7.5q27 9 40 36zM627 390q-24 39 -69 39q-18 0 -57 -8t-59 -8q-12 -2 -26 -2q-17 0 -51.5 4t-50.5 4
q-24 0 -41 -6q-24 -17 -24 -40q0 -5 1 -10q2 -21 28 -42q16 -5 42 -3q43 3 37 3q36 -5 107 -2.5t106 -2.5q-2 5 11 5q9 0 11 4q37 22 35 65zM601 230q-30 16 -66 16q-31 0 -77 -13q-10 -1 -20 -1q-20 0 -58.5 5t-57.5 5q-17 0 -32 -3q-29 -9 -34 -63q9 -24 17 -48
q12 -26 31 -39q49 -52 130 -52q23 0 46 5q88 21 111 95q2 5 15 31q10 20 10 33q0 17 -15 29zM448 793h-43q-8 0 -16 8q-77 75 -94 99q-9 13 3 13h75q5 0 12 -9q49 -64 63 -97q6 -14 0 -14z" />
    <glyph glyph-name="Oacute" unicode="&#xd3;" horiz-adv-x="870" 
d="M817 395q-5 -23 -3.5 -70.5t-3.5 -70.5q-52 -132 -143 -214q-27 -20 -79 -37q-68 -23 -82 -30q-32 -6 -64 -6q-80 0 -224 59q-149 111 -169 249q-9 64 -9 107q0 90 41 158q12 38 35 73q33 50 94 86q58 35 122 43q15 -1 32 -1q19 0 52.5 1.5t49.5 1.5q62 0 109 -21
q98 -45 164.5 -135.5t77.5 -192.5zM599 542q5 61 -79 118q-44 24 -97 24q-39 0 -76 -14q-89 -50 -89 -128q0 -8 1 -15q8 -13 29 -23q101 -13 164 -15q17 7 54 9.5t53 7.5q27 9 40 36zM627 390q-24 39 -69 39q-18 0 -57 -8t-59 -8q-12 -2 -26 -2q-17 0 -51.5 4t-50.5 4
q-24 0 -41 -6q-24 -17 -24 -40q0 -5 1 -10q2 -21 28 -42q16 -5 42 -3q43 3 37 3q36 -5 107 -2.5t106 -2.5q-2 5 11 5q9 0 11 4q37 22 35 65zM601 230q-30 16 -66 16q-31 0 -77 -13q-10 -1 -20 -1q-20 0 -58.5 5t-57.5 5q-17 0 -32 -3q-29 -9 -34 -63q9 -24 17 -48
q12 -26 31 -39q49 -52 130 -52q23 0 46 5q88 21 111 95q2 5 15 31q10 20 10 33q0 17 -15 29zM545 900q-17 -24 -94 -99q-8 -8 -16 -8h-43q-6 0 0 14q14 33 63 97q7 9 12 9h75q12 0 3 -13z" />
    <glyph glyph-name="Ocircumflex" unicode="&#xd4;" horiz-adv-x="870" 
d="M817 395q-5 -23 -3.5 -70.5t-3.5 -70.5q-52 -132 -143 -214q-27 -20 -79 -37q-68 -23 -82 -30q-32 -6 -64 -6q-80 0 -224 59q-149 111 -169 249q-9 64 -9 107q0 90 41 158q12 38 35 73q33 50 94 86q58 35 122 43q15 -1 32 -1q19 0 52.5 1.5t49.5 1.5q62 0 109 -21
q98 -45 164.5 -135.5t77.5 -192.5zM599 542q5 61 -79 118q-44 24 -97 24q-39 0 -76 -14q-89 -50 -89 -128q0 -8 1 -15q8 -13 29 -23q101 -13 164 -15q17 7 54 9.5t53 7.5q27 9 40 36zM627 390q-24 39 -69 39q-18 0 -57 -8t-59 -8q-12 -2 -26 -2q-17 0 -51.5 4t-50.5 4
q-24 0 -41 -6q-24 -17 -24 -40q0 -5 1 -10q2 -21 28 -42q16 -5 42 -3q43 3 37 3q36 -5 107 -2.5t106 -2.5q-2 5 11 5q9 0 11 4q37 22 35 65zM601 230q-30 16 -66 16q-31 0 -77 -13q-10 -1 -20 -1q-20 0 -58.5 5t-57.5 5q-17 0 -32 -3q-29 -9 -34 -63q9 -24 17 -48
q12 -26 31 -39q49 -52 130 -52q23 0 46 5q88 21 111 95q2 5 15 31q10 20 10 33q0 17 -15 29zM541 808q2 -2 2 -5q0 -11 -44 -11q-35 0 -39 6q-10 18 -35 50q-3 2 -14 2q-12 0 -13 -3q-12 -27 -38 -49q-10 -6 -46 -6q-38 0 -38 9q0 2 3 5q7 7 45 50q28 31 50 46q10 3 37 5
q34 1 45 -8q33 -29 85 -91z" />
    <glyph glyph-name="Otilde" unicode="&#xd5;" horiz-adv-x="870" 
d="M817 395q-5 -23 -3.5 -70.5t-3.5 -70.5q-52 -132 -143 -214q-27 -20 -79 -37q-68 -23 -82 -30q-32 -6 -64 -6q-80 0 -224 59q-149 111 -169 249q-9 64 -9 107q0 90 41 158q12 38 35 73q33 50 94 86q58 35 122 43q15 -1 32 -1q19 0 52.5 1.5t49.5 1.5q62 0 109 -21
q98 -45 164.5 -135.5t77.5 -192.5zM599 542q5 61 -79 118q-44 24 -97 24q-39 0 -76 -14q-89 -50 -89 -128q0 -8 1 -15q8 -13 29 -23q101 -13 164 -15q17 7 54 9.5t53 7.5q27 9 40 36zM627 390q-24 39 -69 39q-18 0 -57 -8t-59 -8q-12 -2 -26 -2q-17 0 -51.5 4t-50.5 4
q-24 0 -41 -6q-24 -17 -24 -40q0 -5 1 -10q2 -21 28 -42q16 -5 42 -3q43 3 37 3q36 -5 107 -2.5t106 -2.5q-2 5 11 5q9 0 11 4q37 22 35 65zM601 230q-30 16 -66 16q-31 0 -77 -13q-10 -1 -20 -1q-20 0 -58.5 5t-57.5 5q-17 0 -32 -3q-29 -9 -34 -63q9 -24 17 -48
q12 -26 31 -39q49 -52 130 -52q23 0 46 5q88 21 111 95q2 5 15 31q10 20 10 33q0 17 -15 29zM553 892q-3 -33 -25.5 -59.5t-54.5 -35.5q-9 -4 -20 -4q-18 0 -54 18t-52 18q-8 0 -15 -3q-13 -20 -42 -20q-9 0 -19.5 4.5t-8.5 10.5q22 60 70 90q13 5 27 5q23 0 63 -19.5
t62 -21.5q8 2 19 16.5t20 14.5q4 0 8 -2q8 2 15.5 -1t6.5 -11z" />
    <glyph glyph-name="Odieresis" unicode="&#xd6;" horiz-adv-x="870" 
d="M817 395q-5 -23 -3.5 -70.5t-3.5 -70.5q-52 -132 -143 -214q-27 -20 -79 -37q-68 -23 -82 -30q-32 -6 -64 -6q-80 0 -224 59q-149 111 -169 249q-9 64 -9 107q0 90 41 158q12 38 35 73q33 50 94 86q58 35 122 43q15 -1 32 -1q19 0 52.5 1.5t49.5 1.5q62 0 109 -21
q98 -45 164.5 -135.5t77.5 -192.5zM599 542q5 61 -79 118q-44 24 -97 24q-39 0 -76 -14q-89 -50 -89 -128q0 -8 1 -15q8 -13 29 -23q101 -13 164 -15q17 7 54 9.5t53 7.5q27 9 40 36zM627 390q-24 39 -69 39q-18 0 -57 -8t-59 -8q-12 -2 -26 -2q-17 0 -51.5 4t-50.5 4
q-24 0 -41 -6q-24 -17 -24 -40q0 -5 1 -10q2 -21 28 -42q16 -5 42 -3q43 3 37 3q36 -5 107 -2.5t106 -2.5q-2 5 11 5q9 0 11 4q37 22 35 65zM601 230q-30 16 -66 16q-31 0 -77 -13q-10 -1 -20 -1q-20 0 -58.5 5t-57.5 5q-17 0 -32 -3q-29 -9 -34 -63q9 -24 17 -48
q12 -26 31 -39q49 -52 130 -52q23 0 46 5q88 21 111 95q2 5 15 31q10 20 10 33q0 17 -15 29zM570 873q3 -9 3 -18q0 -33 -29 -54q-10 -7 -29 -7q-20 0 -28 9q-19 22 -19 47q0 14 7 28q13 18 30 25q7 1 14 1q42 0 51 -31zM364 873q3 -9 3 -18q0 -33 -29 -54q-9 -7 -25 -7
q-20 0 -30 10q-20 26 -20 49q0 13 6 25q13 18 30 25q7 1 14 1q42 0 51 -31z" />
    <glyph glyph-name="Oslash" unicode="&#xd8;" horiz-adv-x="870" 
d="M817 395q-5 -23 -3.5 -70.5t-3.5 -70.5q-52 -132 -143 -214q-27 -20 -79 -37q-68 -23 -82 -30q-32 -6 -64 -6q-80 0 -224 59q-16 12 -32 26q-43 -48 -90 -98q-5 -5 -27 12.5t-18 23.5q3 9 88 107q-76 83 -90 178q-9 64 -9 106q0 91 41 159q12 38 35 73q33 50 94 86
q58 35 122 43q29 -2 71 0q52 3 65 3q61 0 107 -22q54 -26 83 -49q76 81 80 83q35 -13 35 -41q0 -6 -2 -11q-1 0 -68 -72q100 -105 114 -238zM586 595q-21 35 -66 65q-44 24 -97 24q-39 0 -76 -14q-89 -50 -89 -128q0 -8 1 -15q8 -13 29 -23q101 -13 164 -15q11 5 44 9
q31 34 90 97zM627 390q-24 39 -69 39q-16 0 -41 -5q-60 -67 -96 -107q-11 0 76 2q44 1 73 -3q-2 5 11 5q9 0 11 4q37 22 35 65zM418 411q-17 0 -52 4t-51 4q-24 0 -42 -6q-24 -17 -24 -40q0 -5 1 -10q2 -21 28 -42q19 -6 57 -2zM601 230q-30 16 -66 16q-31 0 -77 -13
q-21 -2 -52 1q-27 3 -53 6q-20 -23 -86 -96q16 -41 37 -55q49 -52 130 -52q23 0 46 5q88 21 111 95q2 5 15 31q10 20 10 33q0 17 -15 29z" />
    <glyph glyph-name="Ugrave" unicode="&#xd9;" horiz-adv-x="920" 
d="M867 25q-14 -10 -37 -10q52 0 -41 2q-33 1 -81 -13l-81 -23q-30 5 -23 40q9 44 -3 56q-12 -5 -25 -17q-19 -16 -23 -19q-100 -56 -208 -56q-82 0 -151 34q-147 111 -147 218q0 24 7 49q6 70 38 130q36 64 92 94q41 35 39 95q-1 27 -33 35q-21 -5 -25 -7q-13 -6 -17 -19.5
t-6 -27.5q-5 -17 -17 -22q-73 17 -83 77q0 68 85 107q10 0 28 1t26 1q37 0 60 -19q55 -31 55 -110q0 -23 -13 -107q-43 -90 -43 -189q0 -115 64 -180q11 -11 20 -11q5 0 8 2.5t8 16.5q2 86 -1 228q-4 170 -4 225q0 58 2 108q17 22 41 21q22 -8 23 -25q6 -14 6 -35
q0 -15 -4.5 -46t-4.5 -44q0 -45 35 -59q12 0 49 -5q34 -5 53 -5q62 0 81 44q2 10 2 21q0 40 -25 66q-30 11 -60 23q-32 16 -30 49q31 10 95.5 3.5t93.5 2.5l73 12q11 0 20 -2q2 -2 6 -8q-13 -51 -25 -103q-14 -60 -14 -106q0 -22 3 -44q17 -53 17 -124q0 -31 -4 -92.5
t-4 -92.5q0 -29 2 -53q11 -21 45 -31q55 -16 56 -16q8 -19 8 -25q0 -9 -8 -15zM580 459q-11 -1 -24 -1q-19 0 -62 5q-39 5 -62 4q-35 -15 -35 -57q0 -32 29 -47q22 -12 68 -5q15 2 38 -3q27 -6 36 -6q15 0 26 7q21 30 21 51q0 35 -35 52zM604 183q10 46 10 60q0 27 -15 41
q-9 -1 -18 -1q-19 0 -56 6t-54 6q-39 0 -61 -23q-1 -10 -6 -67q-3 -37 -3 -66q0 -26 29 -40q14 3 56 2q36 0 56 7q51 26 62 75zM434 793h-43q-8 0 -16 8q-77 75 -94 99q-9 13 3 13h75q5 0 12 -9q49 -64 63 -97q6 -14 0 -14z" />
    <glyph glyph-name="Uacute" unicode="&#xda;" horiz-adv-x="920" 
d="M867 25q-14 -10 -37 -10q52 0 -41 2q-33 1 -81 -13l-81 -23q-30 5 -23 40q9 44 -3 56q-12 -5 -25 -17q-19 -16 -23 -19q-100 -56 -208 -56q-82 0 -151 34q-147 111 -147 218q0 24 7 49q6 70 38 130q36 64 92 94q41 35 39 95q-1 27 -33 35q-21 -5 -25 -7q-13 -6 -17 -19.5
t-6 -27.5q-5 -17 -17 -22q-73 17 -83 77q0 68 85 107q10 0 28 1t26 1q37 0 60 -19q55 -31 55 -110q0 -23 -13 -107q-43 -90 -43 -189q0 -115 64 -180q11 -11 20 -11q5 0 8 2.5t8 16.5q2 86 -1 228q-4 170 -4 225q0 58 2 108q17 22 41 21q22 -8 23 -25q6 -14 6 -35
q0 -15 -4.5 -46t-4.5 -44q0 -45 35 -59q12 0 49 -5q34 -5 53 -5q62 0 81 44q2 10 2 21q0 40 -25 66q-30 11 -60 23q-32 16 -30 49q31 10 95.5 3.5t93.5 2.5l73 12q11 0 20 -2q2 -2 6 -8q-13 -51 -25 -103q-14 -60 -14 -106q0 -22 3 -44q17 -53 17 -124q0 -31 -4 -92.5
t-4 -92.5q0 -29 2 -53q11 -21 45 -31q55 -16 56 -16q8 -19 8 -25q0 -9 -8 -15zM580 459q-11 -1 -24 -1q-19 0 -62 5q-39 5 -62 4q-35 -15 -35 -57q0 -32 29 -47q22 -12 68 -5q15 2 38 -3q27 -6 36 -6q15 0 26 7q21 30 21 51q0 35 -35 52zM604 183q10 46 10 60q0 27 -15 41
q-9 -1 -18 -1q-19 0 -56 6t-54 6q-39 0 -61 -23q-1 -10 -6 -67q-3 -37 -3 -66q0 -26 29 -40q14 3 56 2q36 0 56 7q51 26 62 75zM573 900q-17 -24 -94 -99q-8 -8 -16 -8h-43q-6 0 0 14q14 33 63 97q7 9 12 9h75q12 0 3 -13z" />
    <glyph glyph-name="Ucircumflex" unicode="&#xdb;" horiz-adv-x="920" 
d="M867 25q-14 -10 -37 -10q52 0 -41 2q-33 1 -81 -13l-81 -23q-30 5 -23 40q9 44 -3 56q-12 -5 -25 -17q-19 -16 -23 -19q-100 -56 -208 -56q-82 0 -151 34q-147 111 -147 218q0 24 7 49q6 70 38 130q36 64 92 94q41 35 39 95q-1 27 -33 35q-21 -5 -25 -7q-13 -6 -17 -19.5
t-6 -27.5q-5 -17 -17 -22q-73 17 -83 77q0 68 85 107q10 0 28 1t26 1q37 0 60 -19q55 -31 55 -110q0 -23 -13 -107q-43 -90 -43 -189q0 -115 64 -180q11 -11 20 -11q5 0 8 2.5t8 16.5q2 86 -1 228q-4 170 -4 225q0 58 2 108q17 22 41 21q22 -8 23 -25q6 -14 6 -35
q0 -15 -4.5 -46t-4.5 -44q0 -45 35 -59q12 0 49 -5q34 -5 53 -5q62 0 81 44q2 10 2 21q0 40 -25 66q-30 11 -60 23q-32 16 -30 49q31 10 95.5 3.5t93.5 2.5l73 12q11 0 20 -2q2 -2 6 -8q-13 -51 -25 -103q-14 -60 -14 -106q0 -22 3 -44q17 -53 17 -124q0 -31 -4 -92.5
t-4 -92.5q0 -29 2 -53q11 -21 45 -31q55 -16 56 -16q8 -19 8 -25q0 -9 -8 -15zM580 459q-11 -1 -24 -1q-19 0 -62 5q-39 5 -62 4q-35 -15 -35 -57q0 -32 29 -47q22 -12 68 -5q15 2 38 -3q27 -6 36 -6q15 0 26 7q21 30 21 51q0 35 -35 52zM604 183q10 46 10 60q0 27 -15 41
q-9 -1 -18 -1q-19 0 -56 6t-54 6q-39 0 -61 -23q-1 -10 -6 -67q-3 -37 -3 -66q0 -26 29 -40q14 3 56 2q36 0 56 7q51 26 62 75zM548 808q2 -2 2 -5q0 -11 -44 -11q-35 0 -39 6q-10 18 -35 50q-3 2 -14 2q-12 0 -13 -3q-12 -27 -38 -49q-10 -6 -46 -6q-38 0 -38 9q0 2 3 5
q7 7 45 50q28 31 50 46q10 3 37 5q34 1 45 -8q33 -29 85 -91z" />
    <glyph glyph-name="Udieresis" unicode="&#xdc;" horiz-adv-x="920" 
d="M867 25q-14 -10 -37 -10q52 0 -41 2q-33 1 -81 -13l-81 -23q-30 5 -23 40q9 44 -3 56q-12 -5 -25 -17q-19 -16 -23 -19q-100 -56 -208 -56q-82 0 -151 34q-147 111 -147 218q0 24 7 49q6 70 38 130q36 64 92 94q41 35 39 95q-1 27 -33 35q-21 -5 -25 -7q-13 -6 -17 -19.5
t-6 -27.5q-5 -17 -17 -22q-73 17 -83 77q0 68 85 107q10 0 28 1t26 1q37 0 60 -19q55 -31 55 -110q0 -23 -13 -107q-43 -90 -43 -189q0 -115 64 -180q11 -11 20 -11q5 0 8 2.5t8 16.5q2 86 -1 228q-4 170 -4 225q0 58 2 108q17 22 41 21q22 -8 23 -25q6 -14 6 -35
q0 -15 -4.5 -46t-4.5 -44q0 -45 35 -59q12 0 49 -5q34 -5 53 -5q62 0 81 44q2 10 2 21q0 40 -25 66q-30 11 -60 23q-32 16 -30 49q31 10 95.5 3.5t93.5 2.5l73 12q11 0 20 -2q2 -2 6 -8q-13 -51 -25 -103q-14 -60 -14 -106q0 -22 3 -44q17 -53 17 -124q0 -31 -4 -92.5
t-4 -92.5q0 -29 2 -53q11 -21 45 -31q55 -16 56 -16q8 -19 8 -25q0 -9 -8 -15zM580 459q-11 -1 -24 -1q-19 0 -62 5q-39 5 -62 4q-35 -15 -35 -57q0 -32 29 -47q22 -12 68 -5q15 2 38 -3q27 -6 36 -6q15 0 26 7q21 30 21 51q0 35 -35 52zM604 183q10 46 10 60q0 27 -15 41
q-9 -1 -18 -1q-19 0 -56 6t-54 6q-39 0 -61 -23q-1 -10 -6 -67q-3 -37 -3 -66q0 -26 29 -40q14 3 56 2q36 0 56 7q51 26 62 75zM577 873q3 -9 3 -18q0 -33 -29 -54q-10 -7 -29 -7q-20 0 -28 9q-19 22 -19 47q0 14 7 28q13 18 30 25q7 1 14 1q42 0 51 -31zM371 873
q3 -9 3 -18q0 -33 -29 -54q-9 -7 -25 -7q-20 0 -30 10q-20 26 -20 49q0 13 6 25q13 18 30 25q7 1 14 1q42 0 51 -31z" />
    <glyph glyph-name="Yacute" unicode="&#xdd;" horiz-adv-x="1090" 
d="M1030 665q-6 -17 -29 -30l-38 -22q-42 -32 -69 -88q-13 -28 -39 -105q-23 -68 -44 -102q-40 -48 -80 -157.5t-77 -156.5l-26 -60q-13 -36 -13 -63q0 -21 8 -41q1 -4 6 -23q4 -15 4 -24q0 -14 -8 -24q-68 -7 -90 -7q-55 0 -88 17q-15 1 -31 1q-33 0 -99.5 -7t-99.5 -7
q-27 0 -50 3q-87 20 -98 86q-3 15 -3 31q0 59 36 116q22 28 73 28q21 0 39 -6q24 -8 46 -34.5t22 -51.5t-22 -48q-6 -11 -14 -11q-4 0 -13.5 6.5t-14.5 7.5q-20 0 -28 -27q-7 -31 24 -42q93 -6 133 59q54 63 95 183q-15 39 -76 137q-27 81 -83 190q-47 92 -95 183
q-32 66 -117 78q-20 12 -22 38q12 25 36 25q12 0 39 -8t41 -8q8 0 15 2q54 -3 140 15q92 19 137 19q15 0 30 -1q42 -4 95 -63q16 -32 16 -62q0 -29 -15 -48q-23 -30 -64 -38q-29 -2 -57 30q-2 3 -2 6q0 4 7 8.5t8 6.5q12 32 -4 61q-12 23 -41 28q-49 0 -57 -36
q-7 -17 -7 -35q0 -27 18 -60l32 -54q34 -71 103 -210q9 -13 34 -4q39 62 88 171q62 137 82 176q-9 22 -48 96q-4 28 12 37q37 3 88 -11l84 -24q-14 1 86 1q50 0 82 -13q14 -14 3 -34zM846 580q10 15 10 30q0 18 -17 23q-17 0 -25 -8q-40 -40 -70 -114q-23 -66 -47 -131
q-51 -84 -115 -233q-76 -175 -109 -237q-16 -30 2 -46q5 -4 12 -4q11 0 26 12q15 28 129 272q9 18 97 223q56 133 107 213zM706 900q-17 -24 -94 -99q-8 -8 -16 -8h-43q-6 0 0 14q14 33 63 97q7 9 12 9h75q12 0 3 -13z" />
    <glyph glyph-name="germandbls" unicode="&#xdf;" horiz-adv-x="570" 
d="M526 154q-8 -53 -49.5 -104t-90.5 -65q-15 -8 -58 -20q-47 -12 -64 -11q-26 -3 -26 36q0 18 10 18q3 0 6 -2q7 -3 16 -3q36 0 66 30q23 14 46 61q20 39 30 77q-16 104 -23 126q-23 73 -75 101q-1 1 -17 -6t-19 -4q-18 31 -18 37t4 9q32 20 84 56q32 40 32 108
q0 51 -29 84q-14 13 -56 13q-31 0 -51 -7q-13 -4 -30 -32q-13 -22 -25 -43q-7 -9 -9 -94q-1 -57 0 -172q1 -126 1 -151q0 -32 11.5 -92.5t11.5 -77.5q0 -24 -14 -27q-148 2 -153 2q-22 4 -22 18t20 22q26 18 44 64q0 68 -3 170.5t-3 151.5q0 54 2 107q9 197 102 212
q45 8 170 -1q30 -2 54 -25q19 -20 39 -39q31 -62 29 -101q-14 -45 -24 -62q-19 -34 -57 -57q0 -24 28 -33q37 -12 43 -19q74 -44 74 -173q0 -38 -7 -82z" />
    <glyph glyph-name="agrave" unicode="&#xe0;" horiz-adv-x="570" 
d="M518 115q5 -29 5 -37q0 -25 -19 -32q-33 -20 -102 -56q-48 7 -56 37v25q0 14 -13 19q-85 -48 -90 -51q-52 -25 -96 -25q-13 0 -25 2q-78 12 -86 52q-4 19 -4 37q0 87 73 128q20 14 72 31q47 17 68 34q30 18 72 29q16 15 9 53q-14 29 -46 33q-39 5 -76 -18l-36 -62
q-21 -33 -56 -38q-20 -3 -38 30q-4 10 -4 22q0 29 24 60q49 53 151 53q33 0 94 -7q30 -13 59 -26q33 -18 42 -47q7 -25 9 -68q3 -50 6 -67q-4 -77 3 -118q7 -10 15 -10q6 0 21 9.5t24 7.5zM331 249q-28 0 -61 -19q-22 -17 -51 -28.5t-53 -31.5q-13 -21 -13 -45q0 -37 30 -53
q31 -4 67 17q29 18 59 36q27 12 27 57q0 13 -2.5 36t-2.5 31zM294 485h-43q-8 0 -16 8q-77 75 -94 99q-9 13 3 13h75q5 0 12 -9q49 -64 63 -97q6 -14 0 -14z" />
    <glyph glyph-name="aacute" unicode="&#xe1;" horiz-adv-x="570" 
d="M518 115q5 -29 5 -37q0 -25 -19 -32q-33 -20 -102 -56q-48 7 -56 37v25q0 14 -13 19q-85 -48 -90 -51q-52 -25 -96 -25q-13 0 -25 2q-78 12 -86 52q-4 19 -4 37q0 87 73 128q20 14 72 31q47 17 68 34q30 18 72 29q16 15 9 53q-14 29 -46 33q-39 5 -76 -18l-36 -62
q-21 -33 -56 -38q-20 -3 -38 30q-4 10 -4 22q0 29 24 60q49 53 151 53q33 0 94 -7q30 -13 59 -26q33 -18 42 -47q7 -25 9 -68q3 -50 6 -67q-4 -77 3 -118q7 -10 15 -10q6 0 21 9.5t24 7.5zM331 249q-28 0 -61 -19q-22 -17 -51 -28.5t-53 -31.5q-13 -21 -13 -45q0 -37 30 -53
q31 -4 67 17q29 18 59 36q27 12 27 57q0 13 -2.5 36t-2.5 31zM356 592q-17 -24 -94 -99q-8 -8 -16 -8h-43q-6 0 0 14q14 33 63 97q7 9 12 9h75q12 0 3 -13z" />
    <glyph glyph-name="acircumflex" unicode="&#xe2;" horiz-adv-x="570" 
d="M518 115q5 -29 5 -37q0 -25 -19 -32q-33 -20 -102 -56q-48 7 -56 37v25q0 14 -13 19q-85 -48 -90 -51q-52 -25 -96 -25q-13 0 -25 2q-78 12 -86 52q-4 19 -4 37q0 87 73 128q20 14 72 31q47 17 68 34q30 18 72 29q16 15 9 53q-14 29 -46 33q-39 5 -76 -18l-36 -62
q-21 -33 -56 -38q-20 -3 -38 30q-4 10 -4 22q0 29 24 60q49 53 151 53q33 0 94 -7q30 -13 59 -26q33 -18 42 -47q7 -25 9 -68q3 -50 6 -67q-4 -77 3 -118q7 -10 15 -10q6 0 21 9.5t24 7.5zM331 249q-28 0 -61 -19q-22 -17 -51 -28.5t-53 -31.5q-13 -21 -13 -45q0 -37 30 -53
q31 -4 67 17q29 18 59 36q27 12 27 57q0 13 -2.5 36t-2.5 31zM387 500q2 -2 2 -5q0 -11 -44 -11q-35 0 -39 6q-10 18 -35 50q-3 2 -14 2q-12 0 -13 -3q-12 -27 -38 -49q-10 -6 -46 -6q-38 0 -38 9q0 2 3 5q7 7 45 50q28 31 50 46q10 3 37 5q34 1 45 -8q33 -29 85 -91z" />
    <glyph glyph-name="atilde" unicode="&#xe3;" horiz-adv-x="570" 
d="M518 115q5 -29 5 -37q0 -25 -19 -32q-33 -20 -102 -56q-48 7 -56 37v25q0 14 -13 19q-85 -48 -90 -51q-52 -25 -96 -25q-13 0 -25 2q-78 12 -86 52q-4 19 -4 37q0 87 73 128q20 14 72 31q47 17 68 34q30 18 72 29q16 15 9 53q-14 29 -46 33q-39 5 -76 -18l-36 -62
q-21 -33 -56 -38q-20 -3 -38 30q-4 10 -4 22q0 29 24 60q49 53 151 53q33 0 94 -7q30 -13 59 -26q33 -18 42 -47q7 -25 9 -68q3 -50 6 -67q-4 -77 3 -118q7 -10 15 -10q6 0 21 9.5t24 7.5zM331 249q-28 0 -61 -19q-22 -17 -51 -28.5t-53 -31.5q-13 -21 -13 -45q0 -37 30 -53
q31 -4 67 17q29 18 59 36q27 12 27 57q0 13 -2.5 36t-2.5 31zM399 584q-3 -33 -25.5 -59.5t-54.5 -35.5q-9 -4 -20 -4q-18 0 -54 18t-52 18q-8 0 -15 -3q-13 -20 -42 -20q-9 0 -19.5 4.5t-8.5 10.5q22 60 70 90q13 5 27 5q23 0 63 -19.5t62 -21.5q8 2 19 16.5t20 14.5
q4 0 8 -2q8 2 15.5 -1t6.5 -11z" />
    <glyph glyph-name="adieresis" unicode="&#xe4;" horiz-adv-x="570" 
d="M518 115q5 -29 5 -37q0 -25 -19 -32q-33 -20 -102 -56q-48 7 -56 37v25q0 14 -13 19q-85 -48 -90 -51q-52 -25 -96 -25q-13 0 -25 2q-78 12 -86 52q-4 19 -4 37q0 87 73 128q20 14 72 31q47 17 68 34q30 18 72 29q16 15 9 53q-14 29 -46 33q-39 5 -76 -18l-36 -62
q-21 -33 -56 -38q-20 -3 -38 30q-4 10 -4 22q0 29 24 60q49 53 151 53q33 0 94 -7q30 -13 59 -26q33 -18 42 -47q7 -25 9 -68q3 -50 6 -67q-4 -77 3 -118q7 -10 15 -10q6 0 21 9.5t24 7.5zM331 249q-28 0 -61 -19q-22 -17 -51 -28.5t-53 -31.5q-13 -21 -13 -45q0 -37 30 -53
q31 -4 67 17q29 18 59 36q27 12 27 57q0 13 -2.5 36t-2.5 31zM416 565q3 -9 3 -18q0 -33 -29 -54q-10 -7 -29 -7q-20 0 -28 9q-19 22 -19 47q0 14 7 28q13 18 30 25q7 1 14 1q42 0 51 -31zM210 565q3 -9 3 -18q0 -33 -29 -54q-9 -7 -25 -7q-20 0 -30 10q-20 26 -20 49
q0 13 6 25q13 18 30 25q7 1 14 1q42 0 51 -31z" />
    <glyph glyph-name="aring" unicode="&#xe5;" horiz-adv-x="570" 
d="M518 115q5 -29 5 -37q0 -25 -19 -32q-33 -20 -102 -56q-48 7 -56 37v25q0 14 -13 19q-85 -48 -90 -51q-52 -25 -96 -25q-13 0 -25 2q-78 12 -86 52q-4 19 -4 37q0 87 73 128q20 14 72 31q47 17 68 34q30 18 72 29q16 15 9 53q-14 29 -46 33q-39 5 -76 -18l-36 -62
q-21 -33 -56 -38q-20 -3 -38 30q-4 10 -4 22q0 29 24 60q49 53 151 53q33 0 94 -7q30 -13 59 -26q33 -18 42 -47q7 -25 9 -68q3 -50 6 -67q-4 -77 3 -118q7 -10 15 -10q6 0 21 9.5t24 7.5zM331 249q-28 0 -61 -19q-22 -17 -51 -28.5t-53 -31.5q-13 -21 -13 -45q0 -37 30 -53
q31 -4 67 17q29 18 59 36q27 12 27 57q0 13 -2.5 36t-2.5 31zM321 579q10 -25 10 -42q0 -19 -11 -32q-32 -36 -62 -36q-40 0 -68 38q-9 18 -9 39q0 23 11 39q19 18 66 32q44 -7 63 -38zM290 524q1 7 1 13q0 37 -39 37q-36 -13 -30 -38q9 -23 27 -27q28 2 41 15z" />
    <glyph glyph-name="ae" unicode="&#xe6;" horiz-adv-x="790" 
d="M735 140q5 -10 5 -22q0 -19 -30 -69q-44 -48 -113 -61q-16 -1 -31 -1q-71 0 -130 24q-21 -12 -42 -21q-48 7 -56 37v25q0 14 -13 19q-85 -48 -90 -51q-52 -25 -96 -25q-13 0 -25 2q-78 12 -86 52q-4 19 -4 37q0 87 73 128q20 14 72 31q47 17 68 34q30 18 72 29
q16 15 9 53q-14 29 -46 33q-39 5 -76 -18l-36 -62q-21 -33 -56 -38q-20 -3 -38 30q-4 10 -4 22q0 29 24 60q49 53 151 53q33 0 94 -7q25 -11 50 -21q29 -14 42 -34q26 20 39 29q63 29 129 29q63 0 125 -27q16 -25 16 -45q0 -10 -3 -18q-10 -25 -48 -53q-41 -31 -54 -51
q-47 -52 -117 -98q-15 -23 6 -34q58 -30 91 -30q16 0 31 5q30 21 97 54zM602 319q-4 33 -25 44q-11 13 -32 13q-16 0 -40 -8q-59 -26 -59 -109q0 -24 5 -57q7 -22 14 -22q3 0 6 2q12 14 74 64q45 36 57 73zM328 178q0 15 -2 38q-3 28 -3 33q-28 0 -61 -19q-22 -17 -51 -28.5
t-53 -31.5q-13 -21 -13 -45q0 -37 30 -53q28 -4 69 17q13 7 62 39q22 14 22 50z" />
    <glyph glyph-name="ccedilla" unicode="&#xe7;" horiz-adv-x="490" 
d="M440 136q5 -40 -14 -76q-55 -73 -174 -73q-36 0 -73 8q-53 11 -96 47t-57 85q-5 33 -5 62q0 87 43 143q61 97 195 104q51 -5 103 -10q60 -10 67 -62q3 -7 3 -13q0 -14 -14 -26.5t-27 -22.5q-11 -3 -20 -3q-27 0 -65 37t-66 37q-8 0 -17 -2q-35 -14 -46 -22
q-26 -17 -29 -42q-8 -21 -8 -44q0 -55 45 -120q11 -16 33 -31q19 -11 38 -23q14 -3 28 -3q47 0 143 50h13zM303 -143q-12 -31 -65 -51q-42 -15 -78 -15q-7 0 -7 9q0 23 12 23q28 0 50 21q19 19 19 40q0 24 -28 24q-8 0 -8 14q0 18 9 40.5t17 23.5q32 0 34 -1q1 -1 -8 -15
q-2 -5 -2 -9q0 -8 10 -12.5t19 -7.5q35 -19 35 -46q0 -14 -9 -38z" />
    <glyph glyph-name="egrave" unicode="&#xe8;" horiz-adv-x="490" 
d="M428 140q5 -10 5 -22q0 -19 -30 -69q-44 -48 -113 -61q-17 -1 -33 -1q-102 0 -177 51q-60 71 -60 158q0 23 5 47q18 88 130 165q63 29 129 29q63 0 125 -27q16 -25 16 -45q0 -10 -3 -18q-10 -25 -48 -53q-41 -31 -54 -51q-47 -52 -117 -98q-9 -27 6 -34q59 -30 92 -30
q15 0 30 5q30 21 97 54zM295 319q-4 33 -25 44q-11 13 -32 13q-16 0 -40 -8q-59 -26 -59 -109q0 -24 5 -57q7 -22 14 -22q3 0 6 2q12 14 74 64q45 36 57 73zM294 485h-43q-8 0 -16 8q-77 75 -94 99q-9 13 3 13h75q5 0 12 -9q49 -64 63 -97q6 -14 0 -14z" />
    <glyph glyph-name="eacute" unicode="&#xe9;" horiz-adv-x="490" 
d="M428 140q5 -10 5 -22q0 -19 -30 -69q-44 -48 -113 -61q-17 -1 -33 -1q-102 0 -177 51q-60 71 -60 158q0 23 5 47q18 88 130 165q63 29 129 29q63 0 125 -27q16 -25 16 -45q0 -10 -3 -18q-10 -25 -48 -53q-41 -31 -54 -51q-47 -52 -117 -98q-9 -27 6 -34q59 -30 92 -30
q15 0 30 5q30 21 97 54zM295 319q-4 33 -25 44q-11 13 -32 13q-16 0 -40 -8q-59 -26 -59 -109q0 -24 5 -57q7 -22 14 -22q3 0 6 2q12 14 74 64q45 36 57 73zM356 592q-17 -24 -94 -99q-8 -8 -16 -8h-43q-6 0 0 14q14 33 63 97q7 9 12 9h75q12 0 3 -13z" />
    <glyph glyph-name="ecircumflex" unicode="&#xea;" horiz-adv-x="490" 
d="M428 140q5 -10 5 -22q0 -19 -30 -69q-44 -48 -113 -61q-17 -1 -33 -1q-102 0 -177 51q-60 71 -60 158q0 23 5 47q18 88 130 165q63 29 129 29q63 0 125 -27q16 -25 16 -45q0 -10 -3 -18q-10 -25 -48 -53q-41 -31 -54 -51q-47 -52 -117 -98q-9 -27 6 -34q59 -30 92 -30
q15 0 30 5q30 21 97 54zM295 319q-4 33 -25 44q-11 13 -32 13q-16 0 -40 -8q-59 -26 -59 -109q0 -24 5 -57q7 -22 14 -22q3 0 6 2q12 14 74 64q45 36 57 73zM373 500q2 -2 2 -5q0 -11 -44 -11q-35 0 -39 6q-10 18 -35 50q-3 2 -14 2q-12 0 -13 -3q-12 -27 -38 -49
q-10 -6 -46 -6q-38 0 -38 9q0 2 3 5q7 7 45 50q28 31 50 46q10 3 37 5q34 1 45 -8q33 -29 85 -91z" />
    <glyph glyph-name="edieresis" unicode="&#xeb;" horiz-adv-x="490" 
d="M428 140q5 -10 5 -22q0 -19 -30 -69q-44 -48 -113 -61q-17 -1 -33 -1q-102 0 -177 51q-60 71 -60 158q0 23 5 47q18 88 130 165q63 29 129 29q63 0 125 -27q16 -25 16 -45q0 -10 -3 -18q-10 -25 -48 -53q-41 -31 -54 -51q-47 -52 -117 -98q-9 -27 6 -34q59 -30 92 -30
q15 0 30 5q30 21 97 54zM295 319q-4 33 -25 44q-11 13 -32 13q-16 0 -40 -8q-59 -26 -59 -109q0 -24 5 -57q7 -22 14 -22q3 0 6 2q12 14 74 64q45 36 57 73zM402 565q3 -9 3 -18q0 -33 -29 -54q-10 -7 -29 -7q-20 0 -28 9q-19 22 -19 47q0 14 7 28q13 18 30 25q7 1 14 1
q42 0 51 -31zM196 565q3 -9 3 -18q0 -33 -29 -54q-9 -7 -25 -7q-20 0 -30 10q-20 26 -20 49q0 13 6 25q13 18 30 25q7 1 14 1q42 0 51 -31z" />
    <glyph glyph-name="igrave" unicode="&#xec;" horiz-adv-x="330" 
d="M258 -5l-102 4q-59 2 -103 -6q-17 5 -22 27q-1 21 24 35q28 18 33 28q4 28 3 92q-1 59 5 91q-3 7 -7 14t-10 8q-10 3 -26 -5q-19 -8 -24 -8q-8 0 -14 10q-4 53 28 74q24 15 71 32q51 19 71 30q26 -1 24 -49q-11 -57 -11 -129q0 -49 7 -147q4 -19 38 -37t34 -32
q0 -13 -19 -32zM161 485h-43q-8 0 -16 8q-77 75 -94 99q-9 13 3 13h75q5 0 12 -9q49 -64 63 -97q6 -14 0 -14z" />
    <glyph glyph-name="iacute" unicode="&#xed;" horiz-adv-x="330" 
d="M258 -5l-102 4q-59 2 -103 -6q-17 5 -22 27q-1 21 24 35q28 18 33 28q4 28 3 92q-1 59 5 91q-3 7 -7 14t-10 8q-10 3 -26 -5q-19 -8 -24 -8q-8 0 -14 10q-4 53 28 74q24 15 71 32q51 19 71 30q26 -1 24 -49q-11 -57 -11 -129q0 -49 7 -147q4 -19 38 -37t34 -32
q0 -13 -19 -32zM251 592q-17 -24 -94 -99q-8 -8 -16 -8h-43q-6 0 0 14q14 33 63 97q7 9 12 9h75q12 0 3 -13z" />
    <glyph glyph-name="icircumflex" unicode="&#xee;" horiz-adv-x="330" 
d="M258 -5l-102 4q-59 2 -103 -6q-17 5 -22 27q-1 21 24 35q28 18 33 28q4 28 3 92q-1 59 5 91q-3 7 -7 14t-10 8q-10 3 -26 -5q-19 -8 -24 -8q-8 0 -14 10q-4 53 28 74q24 15 71 32q51 19 71 30q26 -1 24 -49q-11 -57 -11 -129q0 -49 7 -147q4 -19 38 -37t34 -32
q0 -13 -19 -32zM268 500q2 -2 2 -5q0 -11 -44 -11q-35 0 -39 6q-10 18 -35 50q-3 2 -14 2q-12 0 -13 -3q-12 -27 -38 -49q-10 -6 -46 -6q-38 0 -38 9q0 2 3 5q7 7 45 50q28 31 50 46q10 3 37 5q34 1 45 -8q33 -29 85 -91z" />
    <glyph glyph-name="idieresis" unicode="&#xef;" horiz-adv-x="330" 
d="M258 -5l-102 4q-59 2 -103 -6q-17 5 -22 27q-1 21 24 35q28 18 33 28q4 28 3 92q-1 59 5 91q-3 7 -7 14t-10 8q-10 3 -26 -5q-19 -8 -24 -8q-8 0 -14 10q-4 53 28 74q24 15 71 32q51 19 71 30q26 -1 24 -49q-11 -57 -11 -129q0 -49 7 -147q4 -19 38 -37t34 -32
q0 -13 -19 -32zM304 565q3 -9 3 -18q0 -33 -29 -54q-10 -7 -29 -7q-20 0 -28 9q-19 22 -19 47q0 14 7 28q13 18 30 25q7 1 14 1q42 0 51 -31zM98 565q3 -9 3 -18q0 -33 -29 -54q-9 -7 -25 -7q-20 0 -30 10q-20 26 -20 49q0 13 6 25q13 18 30 25q7 1 14 1q42 0 51 -31z" />
    <glyph glyph-name="ntilde" unicode="&#xf1;" horiz-adv-x="620" 
d="M581 89q1 -8 -2 -20q-3 -15 -3 -18q-67 -35 -142 -64q-19 0 -42 15q-6 28 -6 67q0 12 1 37.5t1 38.5q0 44 -8 76q-1 13 2.5 38.5t3.5 36.5q0 34 -24 49q-24 3 -53 -15q-24 -16 -48 -33q-57 -17 -57 -95q0 -18 4 -62q4 -38 2 -55q14 -13 28 -27q16 -18 16 -35q0 -8 -3 -16
q-31 -7 -95 -2.5t-97 -3.5q-19 8 -20 24q-1 21 20 38q29 23 34 33q-1 26 1 113q2 71 -4 113q-4 3 -10 3t-18.5 -4.5t-17.5 -4.5q-10 0 -15 11q-1 7 -1 13q0 27 22 43q11 9 45 22t46 24q38 10 49 1q12 -7 12 -40v-11.5v-10.5q0 -33 14 -33q11 0 31 15q26 19 80 42
q58 25 81 39q10 4 21 4q19 0 55 -16q27 -26 27 -73q0 -16 -4 -50.5t-4 -52.5q0 -15 2 -28q-3 -19 3 -55q7 -39 6 -55q8 -11 22 -11q4 0 13.5 1.5t13.5 1.5q12 0 18 -8zM434 584q-3 -33 -25.5 -59.5t-54.5 -35.5q-9 -4 -20 -4q-18 0 -54 18t-52 18q-8 0 -15 -3
q-13 -20 -42 -20q-9 0 -19.5 4.5t-8.5 10.5q22 60 70 90q13 5 27 5q23 0 63 -19.5t62 -21.5q8 2 19 16.5t20 14.5q4 0 8 -2q8 2 15.5 -1t6.5 -11z" />
    <glyph glyph-name="ograve" unicode="&#xf2;" horiz-adv-x="530" 
d="M477 244q-8 -178 -107 -226q-73 -35 -122 -35q-31 0 -59 12q-116 52 -138 125q-9 25 -18 51q-11 31 -11 51q0 27 16 48q49 107 107.5 136t111.5 29q39 0 69 -17q108 -27 151 -174zM346 150l-6 122q-7 70 -54 102q-11 4 -26 4q-31 0 -61 -14q-29 -22 -36 -70
q-4 -42 -7 -84q3 -38 7 -77q6 -44 28 -68q30 -26 65 -26q12 0 22 4q64 27 68 107zM294 485h-43q-8 0 -16 8q-77 75 -94 99q-9 13 3 13h75q5 0 12 -9q49 -64 63 -97q6 -14 0 -14z" />
    <glyph glyph-name="oacute" unicode="&#xf3;" horiz-adv-x="530" 
d="M477 244q-8 -178 -107 -226q-73 -35 -122 -35q-31 0 -59 12q-116 52 -138 125q-9 25 -18 51q-11 31 -11 51q0 27 16 48q49 107 107.5 136t111.5 29q39 0 69 -17q108 -27 151 -174zM346 150l-6 122q-7 70 -54 102q-11 4 -26 4q-31 0 -61 -14q-29 -22 -36 -70
q-4 -42 -7 -84q3 -38 7 -77q6 -44 28 -68q30 -26 65 -26q12 0 22 4q64 27 68 107zM356 592q-17 -24 -94 -99q-8 -8 -16 -8h-43q-6 0 0 14q14 33 63 97q7 9 12 9h75q12 0 3 -13z" />
    <glyph glyph-name="ocircumflex" unicode="&#xf4;" horiz-adv-x="530" 
d="M477 244q-8 -178 -107 -226q-73 -35 -122 -35q-31 0 -59 12q-116 52 -138 125q-9 25 -18 51q-11 31 -11 51q0 27 16 48q49 107 107.5 136t111.5 29q39 0 69 -17q108 -27 151 -174zM346 150l-6 122q-7 70 -54 102q-11 4 -26 4q-31 0 -61 -14q-29 -22 -36 -70
q-4 -42 -7 -84q3 -38 7 -77q6 -44 28 -68q30 -26 65 -26q12 0 22 4q64 27 68 107zM385 503q2 -2 2 -5q0 -11 -44 -11q-35 0 -39 6q-10 18 -35 50q-3 2 -14 2q-12 0 -13 -3q-12 -27 -38 -49q-10 -6 -46 -6q-38 0 -38 9q0 2 3 5q7 7 45 50q28 31 50 46q10 3 37 5q34 1 45 -8
q33 -29 85 -91z" />
    <glyph glyph-name="otilde" unicode="&#xf5;" horiz-adv-x="530" 
d="M477 244q-8 -178 -107 -226q-73 -35 -122 -35q-31 0 -59 12q-116 52 -138 125q-9 25 -18 51q-11 31 -11 51q0 27 16 48q49 107 107.5 136t111.5 29q39 0 69 -17q108 -27 151 -174zM346 150l-6 122q-7 70 -54 102q-11 4 -26 4q-31 0 -61 -14q-29 -22 -36 -70
q-4 -42 -7 -84q3 -38 7 -77q6 -44 28 -68q30 -26 65 -26q12 0 22 4q64 27 68 107zM399 584q-3 -33 -25.5 -59.5t-54.5 -35.5q-9 -4 -20 -4q-18 0 -54 18t-52 18q-8 0 -15 -3q-13 -20 -42 -20q-9 0 -19.5 4.5t-8.5 10.5q22 60 70 90q13 5 27 5q23 0 63 -19.5t62 -21.5
q8 2 19 16.5t20 14.5q4 0 8 -2q8 2 15.5 -1t6.5 -11z" />
    <glyph glyph-name="odieresis" unicode="&#xf6;" horiz-adv-x="530" 
d="M477 244q-8 -178 -107 -226q-73 -35 -122 -35q-31 0 -59 12q-116 52 -138 125q-9 25 -18 51q-11 31 -11 51q0 27 16 48q49 107 107.5 136t111.5 29q39 0 69 -17q108 -27 151 -174zM346 150l-6 122q-7 70 -54 102q-11 4 -26 4q-31 0 -61 -14q-29 -22 -36 -70
q-4 -42 -7 -84q3 -38 7 -77q6 -44 28 -68q30 -26 65 -26q12 0 22 4q64 27 68 107zM402 565q3 -9 3 -18q0 -33 -29 -54q-10 -7 -29 -7q-20 0 -28 9q-19 22 -19 47q0 14 7 28q13 18 30 25q7 1 14 1q42 0 51 -31zM196 565q3 -9 3 -18q0 -33 -29 -54q-9 -7 -25 -7q-20 0 -30 10
q-20 26 -20 49q0 13 6 25q13 18 30 25q7 1 14 1q42 0 51 -31z" />
    <glyph glyph-name="oslash" unicode="&#xf8;" horiz-adv-x="530" 
d="M477 244q-8 -178 -107 -226q-72 -35 -122 -35q-56 0 -134 55q-39 -43 -42 -44q-3 -4 -19.5 9t-13.5 17q6 9 41 49q-23 28 -29 51q-9 26 -18 51q-11 31 -11 52q0 26 16 47q49 107 107.5 136t111.5 29q39 0 69 -17q29 -7 56 -26q42 43 45 45q26 -11 26 -26v-1q-1 -3 -2 -7
q-5 -3 -37 -39q43 -47 63 -120zM324 332q-14 26 -38 42q-11 4 -26 4q-31 0 -61 -14q-29 -22 -36 -70q-4 -42 -7 -84q1 -17 4 -54zM346 150q-4 22 -4 67.5t-3 65.5l-168 -183q6 -19 20 -35q30 -26 65 -26q12 0 22 4q64 27 68 107z" />
    <glyph glyph-name="ugrave" unicode="&#xf9;" horiz-adv-x="620" 
d="M589 38q-1 -10 -11 -14t-20 -7t-75 -7q-47 -3 -74 -16q-23 -2 -23 19q-1 8 2 20t3 17q0 7 -4 13q-47 -25 -95 -50q-57 -27 -100 -27q-31 0 -59 12q-21 12 -27 40q-5 24 -9 48q11 114 4 214q-7 8 -15 8q-7 0 -21 -8t-20 -8q-9 0 -16 10q-1 7 -1 14q0 32 25 54
q16 14 56.5 32t54.5 29q29 4 48 -23q4 -5 9 -22q0 -9 -3 -139q-2 -81 5 -137q17 -33 43 -33q65 6 116 39q20 23 20 59q0 17 -5.5 52t-5.5 53q0 13 2 24q-5 7 -13 7q-6 0 -19.5 -8t-19.5 -9q-10 -1 -14 19q-2 9 -2 17q0 31 37 50q56 29 60 33q28 9 52 9q19 0 33 -6
q11 -17 11 -39q0 -10 -3 -32t-3 -34q0 -13 3.5 -38.5t3.5 -38.5q0 -15 -3 -61q-2 -40 -1 -64q6 -30 36 -36q39 3 39 -25q0 -5 -1 -10zM294 485h-43q-8 0 -16 8q-77 75 -94 99q-9 13 3 13h75q5 0 12 -9q49 -64 63 -97q6 -14 0 -14z" />
    <glyph glyph-name="uacute" unicode="&#xfa;" horiz-adv-x="620" 
d="M589 38q-1 -10 -11 -14t-20 -7t-75 -7q-47 -3 -74 -16q-23 -2 -23 19q-1 8 2 20t3 17q0 7 -4 13q-47 -25 -95 -50q-57 -27 -100 -27q-31 0 -59 12q-21 12 -27 40q-5 24 -9 48q11 114 4 214q-7 8 -15 8q-7 0 -21 -8t-20 -8q-9 0 -16 10q-1 7 -1 14q0 32 25 54
q16 14 56.5 32t54.5 29q29 4 48 -23q4 -5 9 -22q0 -9 -3 -139q-2 -81 5 -137q17 -33 43 -33q65 6 116 39q20 23 20 59q0 17 -5.5 52t-5.5 53q0 13 2 24q-5 7 -13 7q-6 0 -19.5 -8t-19.5 -9q-10 -1 -14 19q-2 9 -2 17q0 31 37 50q56 29 60 33q28 9 52 9q19 0 33 -6
q11 -17 11 -39q0 -10 -3 -32t-3 -34q0 -13 3.5 -38.5t3.5 -38.5q0 -15 -3 -61q-2 -40 -1 -64q6 -30 36 -36q39 3 39 -25q0 -5 -1 -10zM398 592q-17 -24 -94 -99q-8 -8 -16 -8h-43q-6 0 0 14q14 33 63 97q7 9 12 9h75q12 0 3 -13z" />
    <glyph glyph-name="ucircumflex" unicode="&#xfb;" horiz-adv-x="620" 
d="M589 38q-1 -10 -11 -14t-20 -7t-75 -7q-47 -3 -74 -16q-23 -2 -23 19q-1 8 2 20t3 17q0 7 -4 13q-47 -25 -95 -50q-57 -27 -100 -27q-31 0 -59 12q-21 12 -27 40q-5 24 -9 48q11 114 4 214q-7 8 -15 8q-7 0 -21 -8t-20 -8q-9 0 -16 10q-1 7 -1 14q0 32 25 54
q16 14 56.5 32t54.5 29q29 4 48 -23q4 -5 9 -22q0 -9 -3 -139q-2 -81 5 -137q17 -33 43 -33q65 6 116 39q20 23 20 59q0 17 -5.5 52t-5.5 53q0 13 2 24q-5 7 -13 7q-6 0 -19.5 -8t-19.5 -9q-10 -1 -14 19q-2 9 -2 17q0 31 37 50q56 29 60 33q28 9 52 9q19 0 33 -6
q11 -17 11 -39q0 -10 -3 -32t-3 -34q0 -13 3.5 -38.5t3.5 -38.5q0 -15 -3 -61q-2 -40 -1 -64q6 -30 36 -36q39 3 39 -25q0 -5 -1 -10zM422 500q2 -2 2 -5q0 -11 -44 -11q-35 0 -39 6q-10 18 -35 50q-3 2 -14 2q-12 0 -13 -3q-12 -27 -38 -49q-10 -6 -46 -6q-38 0 -38 9
q0 2 3 5q7 7 45 50q28 31 50 46q10 3 37 5q34 1 45 -8q33 -29 85 -91z" />
    <glyph glyph-name="udieresis" unicode="&#xfc;" horiz-adv-x="620" 
d="M589 38q-1 -10 -11 -14t-20 -7t-75 -7q-47 -3 -74 -16q-23 -2 -23 19q-1 8 2 20t3 17q0 7 -4 13q-47 -25 -95 -50q-57 -27 -100 -27q-31 0 -59 12q-21 12 -27 40q-5 24 -9 48q11 114 4 214q-7 8 -15 8q-7 0 -21 -8t-20 -8q-9 0 -16 10q-1 7 -1 14q0 32 25 54
q16 14 56.5 32t54.5 29q29 4 48 -23q4 -5 9 -22q0 -9 -3 -139q-2 -81 5 -137q17 -33 43 -33q65 6 116 39q20 23 20 59q0 17 -5.5 52t-5.5 53q0 13 2 24q-5 7 -13 7q-6 0 -19.5 -8t-19.5 -9q-10 -1 -14 19q-2 9 -2 17q0 31 37 50q56 29 60 33q28 9 52 9q19 0 33 -6
q11 -17 11 -39q0 -10 -3 -32t-3 -34q0 -13 3.5 -38.5t3.5 -38.5q0 -15 -3 -61q-2 -40 -1 -64q6 -30 36 -36q39 3 39 -25q0 -5 -1 -10zM451 565q3 -9 3 -18q0 -33 -29 -54q-10 -7 -29 -7q-20 0 -28 9q-19 22 -19 47q0 14 7 28q13 18 30 25q7 1 14 1q42 0 51 -31zM245 565
q3 -9 3 -18q0 -33 -29 -54q-9 -7 -25 -7q-20 0 -30 10q-20 26 -20 49q0 13 6 25q13 18 30 25q7 1 14 1q42 0 51 -31z" />
    <glyph glyph-name="yacute" unicode="&#xfd;" horiz-adv-x="580" 
d="M537 405q1 -5 1 -10q0 -22 -34 -49.5t-34 -51.5q-1 -42 5 -121q7 -85 7 -123q0 -111 -40 -182q-44 -49 -107.5 -77.5t-128.5 -27.5q-120 2 -157 57q-2 6 -2 12q0 23 26 47q18 8 41 8q34 0 70 -15q2 -2 19 -23q12 -15 24 -17q65 2 107 42q36 47 36 114q0 24 -5 48
q-4 7 -10 7q-5 0 -19 -7q-45 -48 -122 -48q-35 0 -78 10q-53 3 -95 83q-9 30 -9 61q0 98 81 168q3 9 2 22q-8 8 -26 8h-12q-9 -1 -13 -1q-25 0 -32 20q-6 10 -6 23q0 26 18 34q52 -6 151 -2q16 -14 16 -41q0 -11 -3.5 -33.5t-3.5 -31.5q-12 -33 -24 -67q-14 -40 -14 -69
q0 -30 14 -55q22 -41 64 -59q7 -1 14 -1q34 0 67 28q30 35 37 98q2 12 3 108q-4 18 -29 59q-24 38 -24 50q0 6 5 10q14 6 31 6q13 0 47 -7q31 -6 49 -4q9 1 33 8q20 5 31 5q18 0 29 -13zM370 592q-17 -24 -94 -99q-8 -8 -16 -8h-43q-6 0 0 14q14 33 63 97q7 9 12 9h75
q12 0 3 -13z" />
    <glyph glyph-name="ydieresis" unicode="&#xff;" horiz-adv-x="580" 
d="M537 405q1 -5 1 -10q0 -22 -34 -49.5t-34 -51.5q-1 -42 5 -121q7 -85 7 -123q0 -111 -40 -182q-44 -49 -107.5 -77.5t-128.5 -27.5q-120 2 -157 57q-2 6 -2 12q0 23 26 47q18 8 41 8q34 0 70 -15q2 -2 19 -23q12 -15 24 -17q65 2 107 42q36 47 36 114q0 24 -5 48
q-4 7 -10 7q-5 0 -19 -7q-45 -48 -122 -48q-35 0 -78 10q-53 3 -95 83q-9 30 -9 61q0 98 81 168q3 9 2 22q-8 8 -26 8h-12q-9 -1 -13 -1q-25 0 -32 20q-6 10 -6 23q0 26 18 34q52 -6 151 -2q16 -14 16 -41q0 -11 -3.5 -33.5t-3.5 -31.5q-12 -33 -24 -67q-14 -40 -14 -69
q0 -30 14 -55q22 -41 64 -59q7 -1 14 -1q34 0 67 28q30 35 37 98q2 12 3 108q-4 18 -29 59q-24 38 -24 50q0 6 5 10q14 6 31 6q13 0 47 -7q31 -6 49 -4q9 1 33 8q20 5 31 5q18 0 29 -13zM416 565q3 -9 3 -18q0 -33 -29 -54q-10 -7 -29 -7q-20 0 -28 9q-19 22 -19 47
q0 14 7 28q13 18 30 25q7 1 14 1q42 0 51 -31zM210 565q3 -9 3 -18q0 -33 -29 -54q-9 -7 -25 -7q-20 0 -30 10q-20 26 -20 49q0 13 6 25q13 18 30 25q7 1 14 1q42 0 51 -31z" />
    <glyph glyph-name="dotlessi" unicode="&#x131;" horiz-adv-x="330" 
d="M258 -5l-102 4q-59 2 -103 -6q-17 5 -22 27q-1 21 24 35q28 18 33 28q4 28 3 92q-1 59 5 91q-3 7 -7 14t-10 8q-10 3 -26 -5q-19 -8 -24 -8q-8 0 -14 10q-4 53 28 74q24 15 71 32q51 19 71 30q26 -1 24 -49q-11 -57 -11 -129q0 -49 7 -147q4 -19 38 -37t34 -32
q0 -13 -19 -32z" />
    <glyph glyph-name="OE" unicode="&#x152;" horiz-adv-x="1490" 
d="M1443 -20q5 -12 5 -25q0 -38 -38 -79q-25 -13 -55 -13q-29 0 -55 13q-26 25 -39 76q-18 71 -24 83q-5 1 -11 1q-18 0 -49 -17q-35 -19 -52 -22q-56 -23 -121 -23q-111 0 -214 61q-39 31 -67 66q-27 -34 -56 -61q-27 -20 -79 -37q-68 -23 -82 -30q-32 -6 -64 -6
q-80 0 -224 59q-149 111 -169 249q-9 64 -9 107q0 90 41 158q12 38 35 73q33 50 94 86q58 35 122 43q29 -2 70 0q53 3 65 3q62 0 108 -22q90 -42 149 -114q26 37 55 63q29 19 108 47q74 8 116 8q44 0 82 -7q42 -24 113 -24q27 0 58 4q14 2 40 18t42 16q10 0 21 -5
q1 -3 2 -9.5t2 -9.5q-22 -51 -44 -103q-24 -60 -30 -109q1 -41 -1 -108q-2 -80 -2 -105q0 -140 35 -232q6 -17 23 -31.5t32 -27.5q9 -5 35 -6q23 0 32 -8zM599 542q5 61 -79 118q-44 24 -97 24q-39 0 -76 -14q-89 -50 -89 -128q0 -8 1 -15q8 -13 29 -23q101 -13 164 -15
q17 7 54 9.5t53 7.5q27 9 40 36zM627 390q-24 39 -69 39q-18 0 -57 -8t-59 -8q-12 -2 -26 -2q-17 0 -51.5 4t-50.5 4q-24 0 -41 -6q-24 -17 -24 -40q0 -5 1 -10q2 -21 28 -42q16 -5 42 -3q43 3 37 3q36 -5 107 -2.5t106 -2.5q-2 5 11 5q9 0 11 4q37 22 35 65zM894 129
q2 39 2 85t-2.5 137t-2.5 135q0 60 3 108q1 4 -2 5q-2 1 -6 0t-7 -3q-51 -109 -55 -285q10 -48 20 -95q13 -56 35 -87q2 -4 8 -4t7 4zM1218 220q14 62 14 126q0 152 -69 248q-53 74 -122 74q-13 0 -25.5 -3.5t-33.5 -18.5q-24 -44 -24 -112q0 -19 2 -51q3 -43 3 -53
q2 -38 31 -34q42 1 87 38l70 62q15 -4 17 -22q1 -14 2 -29q-4 -38 -4 -104q1 -77 -1 -104q-3 -7 -15 -19q-5 -2 -9 -2q-12 0 -18 19q-8 24 -11 28l-38 28q-23 16 -42 22q-42 13 -69 -2q3 -25 0 -124q-3 -77 12 -123q12 -16 42 -16q13 0 47 6q104 19 154 166zM601 230
q-30 16 -66 16q-31 0 -77 -13q-10 -1 -20 -1q-20 0 -58.5 5t-57.5 5q-17 0 -32 -3q-29 -9 -34 -63q9 -24 17 -48q12 -26 31 -39q49 -52 130 -52q23 0 46 5q88 21 111 95q2 5 15 31q10 20 10 33q0 17 -15 29z" />
    <glyph glyph-name="oe" unicode="&#x153;" horiz-adv-x="810" 
d="M754 138q5 -10 5 -22q0 -19 -30 -69q-44 -48 -113 -61q-17 -1 -33 -1q-102 0 -177 51q-3 2 -15 -5q-16 -11 -21 -13q-80 -35 -124 -35q-30 0 -57 12q-116 52 -138 125q-9 25 -18 51q-11 31 -11 51q0 27 16 48q49 107 107.5 136t111.5 29q39 0 69 -17q60 -15 92 -62
q27 25 63 50q63 29 129 29q63 0 125 -27q16 -25 16 -45q0 -10 -3 -18q-10 -25 -48 -53q-41 -31 -54 -51q-47 -52 -117 -98q-9 -27 6 -34q59 -30 92 -30q15 0 30 5q30 21 97 54zM621 319q-4 33 -25 44q-11 13 -32 13q-16 0 -40 -8q-59 -26 -59 -109q0 -24 5 -57q7 -22 14 -22
q3 0 6 2q12 14 74 64q45 36 57 73zM346 150l-6 122q-7 70 -54 102q-11 4 -26 4q-31 0 -61 -14q-29 -22 -36 -70q-4 -42 -7 -84q3 -38 7 -77q6 -44 28 -68q30 -26 65 -26q12 0 22 4q64 27 68 107z" />
    <glyph glyph-name="Scaron" unicode="&#x160;" horiz-adv-x="820" 
d="M743 153q-12 -57 -68 -97q-2 -2 -104 -60q-50 -12 -105 -12q-116 0 -250 54q-9 0 -27 2.5t-27 2.5q-24 0 -43 -12q-22 -14 -12 -49q16 -23 43 -23q9 0 17 3q5 3 19 16q10 11 18 11t17 -8q16 -9 31 -18q19 -11 22 -27q5 -12 5 -24q0 -22 -18 -44l-32 -36q-15 -10 -39 -10
q-13 0 -56 8q-66 20 -97 139q-5 81 32 164q28 41 81 97l88 93q16 22 5 39q-135 61 -164 145q-3 22 -3 43q0 95 56 130q15 20 66 43q62 28 138 28q98 0 228 -47q11 -3 22 -3q22 0 49 11q22 11 45 21q33 -25 33 -72q0 -8 -1 -16q-12 -39 -43 -91q-26 -42 -52 -85
q-4 -24 14 -41q10 -10 39 -24t39 -24q47 -46 47 -125q0 -40 -13 -102zM469 595q7 16 7 32q0 19 -11 32q-34 31 -99 31q-17 0 -38 -2q-35 -12 -58 -42.5t-24 -69.5q9 -43 78 -65q8 0 28.5 -3.5t30.5 -3.5q11 0 19 3q28 29 38 41q20 24 29 47zM598 576q-16 16 -41 4
q-29 -28 -79 -94q-47 -60 -83 -93q-9 -11 -46 -67q-28 -43 -54 -64q-46 -50 -50 -56q-26 -34 -31 -66q2 -7 31 -19q36 16 70 56l54 70q5 2 9.5 5t2.5 10q57 81 164 207q18 25 36 51q22 31 17 56zM602 224q-11 33 -41 54.5t-68 23.5q-24 -6 -41 -52q-13 -23 -46.5 -62.5
t-45.5 -60.5q-3 -7 -3 -14q0 -11 10 -23l16 -20q30 -12 65 -12q40 0 97 18q59 31 59 120q0 14 -2 28zM527 892q-12 -20 -43 -50q-21 -20 -42 -41q-11 -9 -45 -7q-27 1 -37 4q-22 15 -50 46q-38 43 -45 50q-3 3 -3 5q0 9 38 9q36 0 46 -6q26 -22 38 -49q1 -3 13 -3q11 0 14 2
q8 7 18 25t17 25q4 6 39 6q44 0 44 -11q0 -3 -2 -5z" />
    <glyph glyph-name="scaron" unicode="&#x161;" horiz-adv-x="520" 
d="M462 126q-21 -72 -66 -91q-97 -42 -199 -42q-69 0 -124 21q-16 15 -31.5 31t-19.5 34l2 38t15 30q11 18 34 18q17 0 40 -10q20 -8 62 -53q34 -37 69 -37q12 0 25 3q19 6 39 13t24 25q2 5 2 10q0 18 -31 40q-67 28 -135 56q-77 40 -78 111q9 83 136 115q43 11 82 11
q64 0 106 -29q19 -20 19 -46q0 -11 -3 -20q-1 -18 -38 -34q-32 -4 -73.5 27t-63.5 31q-21 0 -44 -18q-13 -10 -14 -27q29 -34 109 -55q85 -22 113 -49q48 -47 43 -103zM401 584q-12 -20 -43 -50q-21 -20 -42 -41q-11 -9 -45 -7q-27 1 -37 4q-22 15 -50 46q-38 43 -45 50
q-3 3 -3 5q0 9 38 9q36 0 46 -6q26 -22 38 -49q1 -3 13 -3q11 0 14 2q8 7 18 25t17 25q4 6 39 6q44 0 44 -11q0 -3 -2 -5z" />
    <glyph glyph-name="Ydieresis" unicode="&#x178;" horiz-adv-x="1090" 
d="M1030 665q-6 -17 -29 -30l-38 -22q-42 -32 -69 -88q-13 -28 -39 -105q-23 -68 -44 -102q-40 -48 -80 -157.5t-77 -156.5l-26 -60q-13 -36 -13 -63q0 -21 8 -41q1 -4 6 -23q4 -15 4 -24q0 -14 -8 -24q-68 -7 -90 -7q-55 0 -88 17q-15 1 -31 1q-33 0 -99.5 -7t-99.5 -7
q-27 0 -50 3q-87 20 -98 86q-3 15 -3 31q0 59 36 116q22 28 73 28q21 0 39 -6q24 -8 46 -34.5t22 -51.5t-22 -48q-6 -11 -14 -11q-4 0 -13.5 6.5t-14.5 7.5q-20 0 -28 -27q-7 -31 24 -42q93 -6 133 59q54 63 95 183q-15 39 -76 137q-27 81 -83 190q-47 92 -95 183
q-32 66 -117 78q-20 12 -22 38q12 25 36 25q12 0 39 -8t41 -8q8 0 15 2q54 -3 140 15q92 19 137 19q15 0 30 -1q42 -4 95 -63q16 -32 16 -62q0 -29 -15 -48q-23 -30 -64 -38q-29 -2 -57 30q-2 3 -2 6q0 4 7 8.5t8 6.5q12 32 -4 61q-12 23 -41 28q-49 0 -57 -36
q-7 -17 -7 -35q0 -27 18 -60l32 -54q34 -71 103 -210q9 -13 34 -4q39 62 88 171q62 137 82 176q-9 22 -48 96q-4 28 12 37q37 3 88 -11l84 -24q-14 1 86 1q50 0 82 -13q14 -14 3 -34zM846 580q10 15 10 30q0 18 -17 23q-17 0 -25 -8q-40 -40 -70 -114q-23 -66 -47 -131
q-51 -84 -115 -233q-76 -175 -109 -237q-16 -30 2 -46q5 -4 12 -4q11 0 26 12q15 28 129 272q9 18 97 223q56 133 107 213zM717 873q3 -9 3 -18q0 -33 -29 -54q-10 -7 -29 -7q-20 0 -28 9q-19 22 -19 47q0 14 7 28q13 18 30 25q7 1 14 1q42 0 51 -31zM511 873q3 -9 3 -18
q0 -33 -29 -54q-9 -7 -25 -7q-20 0 -30 10q-20 26 -20 49q0 13 6 25q13 18 30 25q7 1 14 1q42 0 51 -31z" />
    <glyph glyph-name="Zcaron" unicode="&#x17d;" horiz-adv-x="840" 
d="M804 715q1 -4 1 -9q0 -15 -23 -48q-161 -221 -368 -511q-5 -14 9 -38q19 -8 40 -8t51 8l51 12q42 17 72 66q24 44 48 89q31 51 76 70q4 -15 4 -32q0 -19 -7 -49q-10 -46 -11 -51q1 -20 10 -98q3 -10 24 -45q16 -26 14 -48q-51 -32 -130 -40q-69 -2 -138 -5
q-96 16 -166 16q-41 15 -93 15q-36 0 -99 -9q-70 -9 -97 -10q-33 -2 -33 14q0 5 6 12q17 23 53 65.5t125 172.5q78 114 134 171q6 11 65 84q47 59 47 84q0 23 -26 29q-114 0 -148 -69q-26 -38 -53 -77q-33 -43 -71 -63q-19 15 -21 66q1 10 7 46q4 28 4 45q0 31 -13 55
l-16 36q-11 23 -11 39q0 14 8 27q17 15 61 15q32 0 94.5 -19t94.5 -19q27 0 51 9q74 35 176 35q100 0 198 -33zM620 597q-48 6 -73 -25q-16 -38 -66.5 -100.5t-67.5 -103.5q-20 -32 -74 -92t-77 -98q-10 -27 -10 -33q0 -13 14 -18q41 -4 57 19q18 34 69 96q49 59 67 95
q76 119 159 216q16 28 2 44zM576 892q-12 -20 -43 -50q-21 -20 -42 -41q-11 -9 -45 -7q-27 1 -37 4q-22 15 -50 46q-38 43 -45 50q-3 3 -3 5q0 9 38 9q36 0 46 -6q26 -22 38 -49q1 -3 13 -3q11 0 14 2q8 7 18 25t17 25q4 6 39 6q44 0 44 -11q0 -3 -2 -5z" />
    <glyph glyph-name="zcaron" unicode="&#x17e;" horiz-adv-x="540" 
d="M477 4q-22 -8 -48 -8q-13 0 -61 6q-37 4 -62 0q-37 -6 -124 -2q-79 4 -123 -6q-20 1 -21 2q-10 2 -15 11q10 38 56 84q52 53 65 80q21 32 66 79q50 50 70 78q2 10 -4 17.5t-14 5.5q-11 2 -22 2q-49 0 -92 -46q-34 -44 -67 -87q-5 -5 -9 -5q-9 0 -13 17q-7 32 2 114
q-9 47 -4 68q12 10 28 10q12 0 37 -7t39 -7q6 0 12 1q14 1 53 6q36 5 57 5q29 0 52 -8q20 -2 54 6.5t49 8.5q14 0 26 -4q10 -18 -4 -49q-125 -177 -234 -287q-4 -13 0 -19q18 -6 37 -6q36 0 66.5 20t65.5 64q43 55 59 70q12 1 13.5 -12t2.5 -24q-7 -25 -6 -60v-58
q14 -39 14 -48q0 -6 -1 -12zM380 584q-12 -20 -43 -50q-21 -20 -42 -41q-11 -9 -45 -7q-27 1 -37 4q-22 15 -50 46q-38 43 -45 50q-3 3 -3 5q0 9 38 9q36 0 46 -6q26 -22 38 -49q1 -3 13 -3q11 0 14 2q8 7 18 25t17 25q4 6 39 6q44 0 44 -11q0 -3 -2 -5z" />
    <glyph glyph-name="circumflex" unicode="&#x2c6;" horiz-adv-x="550" 
d="M401 500q2 -2 2 -5q0 -11 -44 -11q-35 0 -39 6q-10 18 -35 50q-3 2 -14 2q-12 0 -13 -3q-12 -27 -38 -49q-10 -6 -46 -6q-38 0 -38 9q0 2 3 5q7 7 45 50q28 31 50 46q10 3 37 5q34 1 45 -8q33 -29 85 -91z" />
    <glyph glyph-name="caron" unicode="&#x2c7;" horiz-adv-x="550" 
d="M401 584q-12 -20 -43 -50q-21 -20 -42 -41q-11 -9 -45 -7q-27 1 -37 4q-22 15 -50 46q-38 43 -45 50q-3 3 -3 5q0 9 38 9q36 0 46 -6q26 -22 38 -49q1 -3 13 -3q11 0 14 2q8 7 18 25t17 25q4 6 39 6q44 0 44 -11q0 -3 -2 -5z" />
    <glyph glyph-name="ring" unicode="&#x2da;" 
d="M293 600q10 -25 10 -42q0 -19 -11 -32q-32 -36 -62 -36q-40 0 -68 38q-9 18 -9 39q0 23 11 39q19 18 66 32q44 -7 63 -38zM262 545q1 7 1 13q0 37 -39 37q-36 -13 -30 -38q9 -23 27 -27q28 2 41 15z" />
    <glyph glyph-name="tilde" unicode="&#x2dc;" 
d="M371 584q-3 -33 -25.5 -59.5t-54.5 -35.5q-9 -4 -20 -4q-18 0 -54 18t-52 18q-8 0 -15 -3q-13 -20 -42 -20q-9 0 -19.5 4.5t-8.5 10.5q22 60 70 90q13 5 27 5q23 0 63 -19.5t62 -21.5q8 2 19 16.5t20 14.5q4 0 8 -2q8 2 15.5 -1t6.5 -11z" />
    <glyph glyph-name="Omega" unicode="&#x3a9;" horiz-adv-x="870" 
d="M771 705q-5 -1 -337.5 -374.5t-337.5 -376.5q-5 -5 -27 12.5t-18 23.5q10 25 345 396q332 368 342 371q35 -13 35 -41q0 -6 -2 -11z" />
    <glyph glyph-name="Omega" unicode="&#x2126;" horiz-adv-x="870" 
d="M771 705q-5 -1 -337.5 -374.5t-337.5 -376.5q-5 -5 -27 12.5t-18 23.5q10 25 345 396q332 368 342 371q35 -13 35 -41q0 -6 -2 -11z" />
    <glyph glyph-name="endash" unicode="&#x2013;" horiz-adv-x="600" 
d="M564 269q7 -4 7 -34q0 -41 -12 -41h-276q-223 -1 -243 -1q-12 0 -12 49q0 33 7.5 37t112.5 3q111 -2 115 -1q22 -3 88 1q57 3 86 -5q21 4 69 1q46 -3 58 -9z" />
    <glyph glyph-name="emdash" unicode="&#x2014;" horiz-adv-x="850" 
d="M816 269q7 -4 7 -34q0 -41 -12 -41h-402q-349 -1 -369 -1q-12 0 -12 49q0 33 7.5 37t34.5 3q32 -2 37 -1q34 -4 154 2q107 5 146 -6q22 5 210 1q188 -3 199 -9z" />
    <glyph glyph-name="quoteleft" unicode="&#x2018;" horiz-adv-x="200" 
d="M147 517q-12 -20 -15 -24q-10 -13 -21 -20q-16 -4 -31 -4q-32 0 -52 18.5t-20 60.5q0 17 2 37.5t13 47.5q8 23 17 46q32 45 73 68q14 -1 14 -9q0 -5 -5 -14.5t-6 -13.5q-38 -57 -38 -75q0 -6 2 -11q8 -11 29 -20.5t28 -24.5q13 -20 13 -42q0 -11 -3 -20z" />
    <glyph glyph-name="quoteright" unicode="&#x2019;" horiz-adv-x="200" 
d="M149 679q6 -6 6 -15q0 -7 -5.5 -22t-5.5 -22q2 -5 2 -10q0 -12 -12.5 -32t-12.5 -32q-32 -60 -80 -74q-9 5 0 31q14 18 27 36q17 24 17 42q0 13 -8 25q-4 8 -17 9.5t-17 4.5q-33 25 -34 52q-1 5 -1 11q0 25 24 49q19 19 49 19q37 0 58 -27q0 -5 6.5 -16t6.5 -18
q0 -5 -3 -11z" />
    <glyph glyph-name="quotesinglbase" unicode="&#x201a;" horiz-adv-x="200" 
d="M148 32q-11 -88 -72 -140q-5 -10 -19 -18t-24 -8q-3 0 -6 3.5t-3 8.5q0 10 21.5 34t25.5 39q8 15 8 32q0 14 -7 15q-24 7 -43.5 29t-19.5 38q0 38 21 57q20 23 52 23q28 0 46 -18q26 -25 26 -65q0 -16 -6 -30z" />
    <glyph glyph-name="quotedblleft" unicode="&#x201c;" horiz-adv-x="370" 
d="M321 517q-12 -20 -15 -24q-10 -13 -21 -20q-16 -4 -31 -4q-32 0 -52 18.5t-20 60.5q0 17 2 37.5t13 47.5q8 23 17 46q32 45 73 68q14 -1 14 -9q0 -5 -5 -14.5t-6 -13.5q-38 -57 -38 -75q0 -6 2 -11q8 -11 29 -20.5t28 -24.5q13 -20 13 -42q0 -11 -3 -20zM147 517
q-12 -20 -15 -24q-10 -13 -21 -20q-16 -4 -31 -4q-32 0 -52 18.5t-20 60.5q0 17 2 37.5t13 47.5q8 23 17 46q32 45 73 68q14 -1 14 -9q0 -5 -5 -14.5t-6 -13.5q-38 -57 -38 -75q0 -6 2 -11q8 -11 29 -20.5t28 -24.5q13 -20 13 -42q0 -11 -3 -20z" />
    <glyph glyph-name="quotedblright" unicode="&#x201d;" horiz-adv-x="370" 
d="M310 583l-18 -46q-32 -45 -73 -68q-14 1 -14 9q0 5 5 14.5t6 13.5q38 57 38 75q0 6 -2 11q-8 11 -29 20.5t-28 24.5q-13 20 -13 42q0 11 3 20q12 20 15 24q10 13 21 20q16 4 31 4q32 0 51 -17q21 -20 21 -62q0 -17 -2 -37.5t-12 -47.5zM136 583l-18 -46q-32 -45 -73 -68
q-14 1 -14 9q0 5 5 14.5t6 13.5q38 57 38 75q0 6 -2 11q-8 11 -29 20.5t-28 24.5q-13 20 -13 42q0 11 3 20q12 20 15 24q10 13 21 20q16 4 31 4q32 0 51 -17q21 -20 21 -62q0 -17 -2 -37.5t-12 -47.5z" />
    <glyph glyph-name="quotedblbase" unicode="&#x201e;" horiz-adv-x="370" 
d="M322 32q-11 -88 -72 -140q-5 -10 -19 -18t-24 -8q-3 0 -6 3.5t-3 8.5q0 10 21.5 34t25.5 39q8 15 8 32q0 14 -7 15q-24 7 -43.5 29t-19.5 38q0 38 21 57q20 23 52 23q28 0 46 -18q26 -25 26 -65q0 -16 -6 -30zM148 32q-11 -88 -72 -140q-5 -10 -19 -18t-24 -8
q-3 0 -6 3.5t-3 8.5q0 10 21.5 34t25.5 39q8 15 8 32q0 14 -7 15q-24 7 -43.5 29t-19.5 38q0 38 21 57q20 23 52 23q28 0 46 -18q26 -25 26 -65q0 -16 -6 -30z" />
    <glyph glyph-name="dagger" unicode="&#x2020;" horiz-adv-x="410" 
d="M353 398q-23 -2 -66 11t-47 13q-6 0 -5 -4q5 -38 5 -81q0 -158 -62 -338q-14 0 -33.5 210t-24.5 212q-8 1 -33 -4q-28 -7 -37 -7q-16 0 -18 10q0 4 -2.5 22t-2.5 27q0 15 7 17q8 0 37 -4.5t40 -4.5q16 0 16.5 6.5t0.5 13.5q0 20 -11.5 54t-11.5 40q0 5 3 7q49 22 135 80
q7 -20 7 -43q0 -20 -8 -60t-8 -61q0 -16 3 -31q6 -10 32 -10q29 0 83 12q14 3 14 -50q0 -38 -13 -37z" />
    <glyph glyph-name="daggerdbl" unicode="&#x2021;" horiz-adv-x="840" 
d="M786 108q0 -32 -19 -52.5t-51 -20.5h-590q-28 0 -50 20.5t-22 48.5v554q0 29 21.5 48.5t50.5 19.5h590q32 0 51 -18.5t19 -49.5v-550zM505 -131q0 -21 -35 -24q-26 -2 -36 23l-30 75v-97h-40v106q0 27 31 27q8 0 17 -3q20 -4 25 -18l29 -77v95h39v-107zM786 -127
q0 -22 -35 -27h-91v30h76q7 0 7 7v10q0 4 -8 4h-35q-20 0 -34 12q-6 10 -6 16v33q8 18 41 18h85v-27h-74q-8 0 -9 -2.5t-2 -3.5v-9q1 -8 13 -8h33q34 0 37 -20q0 -1 1 -2.5t1 -2.5v-28zM647 -51h-42v-103h-42v103h-43v27h127v-27zM338 -124q0 -30 -43 -30h-50q-37 0 -42 22
v87q5 21 42 21h50q43 0 43 -27v-73zM181 -103h-82v-51h-44v104q0 16 11 22q7 4 33 4h82v-27h-70q-12 0 -12 -6v-17h82v-29zM753 113v545q0 35 -37 35h-590q-37 0 -37 -35v-548q0 -37 37 -37h590q37 0 37 40zM297 -117v55q0 11 -14 11h-27q-13 0 -13 -11v-54q0 -8 13 -8h27
q14 0 14 7zM701 127h-137v271l-171 -168l-167 168v-271h-86v509h47l220 -216l217 216h77v-509zM668 162v443h-32l-229 -229l-235 229v-443h20v318l201 -205l203 205v-318h72z" />
    <glyph glyph-name="bullet" unicode="&#x2022;" horiz-adv-x="500" 
d="M414 368q1 -71 -48.5 -121t-118.5 -51q-71 -1 -122 48.5t-52 120.5q-1 70 48.5 121t119.5 52q71 1 121.5 -49.5t51.5 -120.5z" />
    <glyph glyph-name="ellipsis" unicode="&#x2026;" horiz-adv-x="700" 
d="M617 103q10 -17 10 -35q0 -27 -21.5 -49.5t-48.5 -22.5q-24 0 -45 21q-17 18 -23 40q1 24 3 33q5 18 18 26q16 16 43 16q41 0 64 -29zM377 103q10 -17 10 -35q0 -27 -21.5 -49.5t-48.5 -22.5q-24 0 -45 21q-17 18 -23 40q1 24 3 33q5 18 18 26q16 16 43 16q41 0 64 -29z
M137 103q10 -17 10 -35q0 -27 -21.5 -49.5t-48.5 -22.5q-24 0 -45 21q-17 18 -23 40q1 24 3 33q5 18 18 26q16 16 43 16q41 0 64 -29z" />
    <glyph glyph-name="perthousand" unicode="&#x2030;" horiz-adv-x="870" 
d="M288 520q0 -36 -16 -77q-53 -77 -119 -79q-42 -1 -76 34q-28 29 -44 72q-8 22 -8 44q0 62 57 124q31 34 82 31q52 -11 88 -53.5t36 -95.5zM502 622q-196 -310 -401 -628q-1 -2 -4 -2q-10 0 -28.5 10t-16.5 17q6 24 203 330q195 302 211 317q8 1 23.5 -10.5t15.5 -23.5
q0 -6 -3 -10zM531 153q0 -36 -16 -78q-54 -76 -119 -78q-80 -2 -120 106q-8 21 -8 44q0 62 57 124q31 34 82 31q52 -11 88 -53.5t36 -95.5zM199 569q-6 49 -34 55q-21 5 -39 -10q-11 -13 -14 -36q-6 -39 -6 -40q1 -28 1 -56q2 -35 11 -55t38 -16q26 0 39 30q12 60 4 128z
M442 202q-6 49 -34 55q-21 5 -39 -10q-11 -13 -14 -36q-6 -39 -6 -40q1 -28 1 -56q2 -35 10.5 -54.5t39.5 -17.5q25 2 38 30q12 62 4 129zM825 153q0 -36 -16 -78q-54 -76 -119 -78q-80 -2 -120 106q-8 21 -8 44q0 62 57 124q31 34 82 31q52 -11 88 -53.5t36 -95.5zM736 202
q-6 49 -34 55q-21 5 -39 -10q-11 -13 -14 -36q-6 -39 -6 -40q1 -28 1 -56q2 -35 10.5 -54.5t39.5 -17.5q25 2 38 30q12 62 4 129z" />
    <glyph glyph-name="guilsinglleft" unicode="&#x2039;" horiz-adv-x="270" 
d="M193 23q-8 -4 -18 -4q-7 0 -19.5 1t-17 1t-25.5 60q-33 91 -38 103t0 25q2 6 8 35q4 20 13 30q-1 16 11.5 41.5t11.5 40.5q-1 24 19.5 27t40.5 5q18 2 18 -9q0 -5 -12 -30q-15 -24 -27 -62q-17 -54 -19 -60q-4 -13 -4 -26q0 -22 13 -52q20 -46 22 -52q2 -10 16 -36
q11 -22 11 -30q0 -6 -4 -8z" />
    <glyph glyph-name="guilsinglright" unicode="&#x203a;" horiz-adv-x="270" 
d="M195 184q-5 -12 -38 -103q-21 -60 -25.5 -60t-17 -1t-19.5 -1q-10 0 -18 4q-4 2 -4 8q0 8 11 30q14 26 16 36q2 6 22 52q13 30 13 52q0 13 -4 26q-2 6 -19 60q-12 38 -25.5 62.5t-13.5 29.5q0 11 18 9q20 -2 40.5 -5t19.5 -27q-1 -15 11.5 -40.5t11.5 -41.5q9 -10 13 -30
q6 -29 8 -35q5 -13 0 -25z" />
    <glyph glyph-name="trademark" unicode="&#x2122;" horiz-adv-x="1060" 
d="M1034 293q0 -15 -9 -20q-95 9 -151 -7q-20 -2 -34 7q-4 2 -4 7q0 3 8 17q12 10 26 21.5t14 25.5q0 5 -2 10q-10 50 -38 147q-1 2 -5 30q-3 18 -14 23q-23 -13 -35 -49q-18 -49 -24 -58q1 -13 23 -36t20 -42q-2 -26 -25 -52q-38 -44 -40 -46q-7 -2 -14 -2q-18 0 -37 22
q-30 35 -32 36q-15 19 -7 35q2 8 17 27q12 15 10 30q-51 79 -73 129q-8 6 -11 4q-12 -22 -17 -57q-5 -30 -9 -60q-2 -8 -13 -41q-10 -27 -10 -42q0 -23 19 -35q10 -6 20.5 -12.5t14.5 -16.5q6 -8 -5 -15q-19 -2 -48 0q-37 3 -47 3q-25 0 -44 -5q-25 10 -24 21q-1 15 15 21
q12 4 25 9q24 13 34 47q7 30 15 59q5 16 13 70q6 43 19 66q0 2 4 10q2 5 0 9q-6 5 -36 12q-23 5 -24 24q0 6 6 11.5t11 5.5q80 -7 99 -4q42 7 56 0q9 -13 18 -42t17 -41q9 -20 31 -57q8 7 13.5 24.5t9.5 23.5q30 41 38 90q5 13 23 13q9 0 30.5 -4.5t30.5 -5.5q11 -2 30 1
q24 2 31 2q11 0 19 -2q3 -1 5 -11q2 -11 -2.5 -16.5t-21 -9t-21.5 -13.5t-5 -22q0 -1 13 -48q3 -30 20 -79q19 -54 23 -78q4 -10 8.5 -20.5t14.5 -12.5q34 -7 38 -31zM445 384q-10 -54 -39 -74q-17 -11 -51 -35q-55 -16 -102 -16q-46 0 -83 16q-19 4 -47 30q-20 18 -27 27
q-25 36 -25 87q0 43 17 78q32 65 109 72q-1 -1 -23 -34q-16 -22 -18 -39t-2 -32q0 -52 23 -88q11 -13 17 -12q3 3 3 4v68q0 42 -23 61q8 5 44 14q29 7 41 23h6q3 0 3 -4q-3 -25 -1 -64q3 -55 3 -63q0 -22 -3 -40l4 -18t11 -9q14 -2 16 10q1 23 1 69v68q-4 8 -1.5 30t-4.5 32
q-28 5 -101 43q-61 33 -104 27q-8 -3 -16.5 -6.5t-10.5 -11.5q-4 -20 13 -29l9 -2q4 -1 2 -6q-21 -17 -26 -17q-3 0 -7 2q-8 6 -16.5 12.5t-9.5 17.5q-6 42 26 60q27 10 68 11q35 -1 70 -1q25 1 75 -11.5t73 -12.5q36 0 63 20q14 10 23 4q16 -11 10 -40q-18 -49 -96 -63
q-6 -6 -8 -11q0 -62 4 -186q3 -6 8 -6q3 0 10 3t11 2q22 4 41 24l32 36q9 0 9 -20zM730 354q-1 9 -18 13q-13 -8 -13 -22q0 -8 6 -13q14 -5 19 2q6 21 6 20z" />
    <glyph glyph-name="apple" unicode="&#xf000;" horiz-adv-x="620" 
d="M506 786q5 0 -90.5 -113t-116.5 -113q-20 0 -20 43q0 35 10 46q34 39 107 70q77 34 110 67zM584 457q2 -6 2 -18q0 -23 -5.5 -45.5t-11.5 -18.5q-9 -5 -18 -5q-20 0 -40 34q-29 49 -31 51q-20 18 -23 19q-13 9 -30 7q-40 -4 -97 -41q-16 -11 -39 -11q-31 0 -50 16
q-44 37 -75 35q-50 -2 -50 -67q0 -37 13 -67q5 -15 26.5 -45.5t28.5 -50.5q6 -40 11 -81q8 -57 30 -57q25 0 48 32.5t41 32.5q16 0 39 -20.5t32 -20.5q5 0 10 3q44 25 66 77q2 4 9 4q14 0 37 -13t24 -24q0 -6 -7 -18q-45 -51 -47 -53q-26 -32 -39 -57q-4 -9 -9 -16
q-12 -17 -25 -22q-7 -3 -15 -3q-15 0 -36 19q-25 23 -35 27q-31 9 -43 -3q-12 -18 -41 -37q-34 -23 -55 -20q-28 4 -42 47q-9 27 -15 88q-7 57 -13 72q-11 28 -37 67q-23 36 -35 70q-9 26 -9 59q0 44 16.5 82.5t45.5 52.5q35 16 72 16q27 0 45 -9q48 -24 84 -24q33 0 61 20
q37 27 92 27q39 0 70 -14q49 -21 70 -97z" />
    <glyph glyph-name="fi" unicode="&#xf001;" horiz-adv-x="440" 
d="M405 653q-9 -31 -28 -36q-8 -2 -15 -2q-20 0 -52 20.5t-48 20.5t-33 -14q-17 -40 -17 -101q0 -25 3 -64q3 -48 4 -61q2 -4 10 -9q79 7 119 0q11 -22 -5 -42q-9 -2 -19 -2t-29.5 2.5t-28.5 2.5q-26 0 -42 -14q-1 -18 -1 -39q0 -19 1.5 -56.5t1.5 -55.5q0 -37 -5 -65
q2 -64 48 -78q42 2 59 -33q0 -25 -17 -31q-27 -3 -75 5q-53 8 -73 8q-24 0 -42 -6q-30 -10 -51 -10q-19 0 -33 8q-5 3 -12 23q0 23 36 32.5t38 34.5q13 42 13 96q0 31 -5 86q-5 60 -6 85q-9 11 -48 12q-34 1 -34 15q0 10 10 27q5 1 10 1q7 0 22.5 -2.5t22.5 -2.5q15 0 24 8
q0 9 -1 37q-1 24 -1 38q0 92 38 136q25 38 67.5 66t87.5 33q10 -1 29.5 2t27.5 3q23 0 39 -16q23 -16 10 -62zM581 593q-9 -32 -47 -48l-62 -26q-4 -2 -7 -2q-6 0 -10.5 9.5t-6.5 11.5q-10 64 18 95q40 31 44 34q28 17 53 12q22 -27 18 -86zM636 -5l-102 4q-59 2 -103 -6
q-17 5 -22 27q-1 21 24 35q28 18 33 28q4 28 3 92q-1 59 5 91q-3 7 -7 14t-10 8q-10 3 -26 -5q-19 -8 -24 -8q-8 0 -14 10q-4 53 28 74q24 15 71 32q51 19 71 30q26 -1 24 -49q-11 -57 -11 -129q0 -49 7 -147q4 -19 38 -37t34 -32q0 -13 -19 -32z" />
    <glyph glyph-name="fl" unicode="&#xf002;" horiz-adv-x="440" 
d="M405 653q-9 -31 -28 -36q-8 -2 -15 -2q-20 0 -52 20.5t-48 20.5t-33 -14q-17 -40 -17 -101q0 -25 3 -64q3 -48 4 -61q2 -4 10 -9q79 7 119 0q11 -22 -5 -42q-9 -2 -19 -2t-29.5 2.5t-28.5 2.5q-26 0 -42 -14q-1 -18 -1 -39q0 -19 1.5 -56.5t1.5 -55.5q0 -37 -5 -65
q2 -64 48 -78q42 2 59 -33q0 -25 -17 -31q-27 -3 -75 5q-53 8 -73 8q-24 0 -42 -6q-30 -10 -51 -10q-19 0 -33 8q-5 3 -12 23q0 23 36 32.5t38 34.5q13 42 13 96q0 31 -5 86q-5 60 -6 85q-9 11 -48 12q-34 1 -34 15q0 10 10 27q5 1 10 1q7 0 22.5 -2.5t22.5 -2.5q15 0 24 8
q0 9 -1 37q-1 24 -1 38q0 92 38 136q25 38 67.5 66t87.5 33q10 -1 29.5 2t27.5 3q23 0 39 -16q23 -16 10 -62zM688 34q-3 -23 -3 -25q-4 -14 -14 -19q-20 2 -42 2q-18 0 -51 -1.5t-50 -1.5q-41 0 -75 8q-21 17 -7 40q73 55 65 131q1 43 -3 112q-5 78 -5 109q0 51 7 96
q-1 4 -4 49q-1 30 -20 41q-28 -11 -37 -11t-15 4q-12 20 -3 52q21 25 67 44q41 16 82 31q24 0 36 -24q0 -2 -1 -224q-1 -132 4 -223q-8 -37 -8 -68q0 -50 21 -82q5 -6 32 -15q21 -7 24 -25z" />
    <glyph glyph-name="glyph205" horiz-adv-x="500" 
 />
  </font>
</defs>
</svg>
